<?xml version="1.0" encoding="UTF-8"?>
<svg id="c" data-name="DYPTA_EXPAND" xmlns="http://www.w3.org/2000/svg" width="64" height="64" viewBox="0 0 64 64">
  <path d="M52.4,60.48H11.6c-1.93,0-3.5-1.57-3.5-3.5V13c0-1.93,1.57-3.5,3.5-3.5h7.61c.828,0,1.5.672,1.5,1.5s-.672,1.5-1.5,1.5h-7.61c-.275,0-.5.225-.5.5v43.98c0,.275.225.5.5.5h40.801c.275,0,.5-.225.5-.5V13c0-.275-.225-.5-.5-.5h-2.125c-.828,0-1.5-.672-1.5-1.5s.672-1.5,1.5-1.5h2.125c1.93,0,3.5,1.57,3.5,3.5v43.98c0,1.93-1.57,3.5-3.5,3.5Z" fill="#293a4c"/>
  <path d="M42.79,7.16h-4.22c-.25,0-.42-.24-.47-.32-1.33-2.12-3.61-3.38-6.1-3.38s-4.77,1.26-6.1,3.38c-.05.08-.22.32-.47.32h-4.22c-1.93,0-3.5,1.57-3.5,3.5v2.57c0,1.93,1.57,3.5,3.5,3.5h21.58c1.93,0,3.5-1.57,3.5-3.5v-2.57c0-1.93-1.57-3.5-3.5-3.5ZM32,11.13c-.83,0-1.5-.65-1.5-1.48v-.03c0-.83.67-1.5,1.5-1.5s1.5.67,1.5,1.5-.67,1.51-1.5,1.51Z" fill="#ff5f00"/>
  <g>
    <g>
      <g>
        <path d="M37.914,23.5h-8.851c-.828,0-1.5-.672-1.5-1.5s.672-1.5,1.5-1.5h8.851c.828,0,1.5.672,1.5,1.5s-.672,1.5-1.5,1.5Z" fill="#293a4c"/>
        <path d="M46.766,28.192h-17.702c-.828,0-1.5-.672-1.5-1.5s.672-1.5,1.5-1.5h17.702c.828,0,1.5.672,1.5,1.5s-.672,1.5-1.5,1.5Z" fill="#293a4c"/>
      </g>
      <path d="M19.021,27.632c-.384,0-.768-.146-1.061-.439l-1.786-1.785c-.586-.585-.586-1.535,0-2.121s1.535-.586,2.121,0l.726.725,2.511-2.511c.586-.586,1.535-.586,2.121,0s.586,1.535,0,2.121l-3.571,3.571c-.293.293-.677.439-1.061.439Z" fill="#293a4c"/>
    </g>
    <g>
      <g>
        <path d="M37.914,36.254h-8.851c-.828,0-1.5-.672-1.5-1.5s.672-1.5,1.5-1.5h8.851c.828,0,1.5.672,1.5,1.5s-.672,1.5-1.5,1.5Z" fill="#293a4c"/>
        <path d="M46.766,40.947h-17.702c-.828,0-1.5-.672-1.5-1.5s.672-1.5,1.5-1.5h17.702c.828,0,1.5.672,1.5,1.5s-.672,1.5-1.5,1.5Z" fill="#293a4c"/>
      </g>
      <path d="M19.021,40.387c-.384,0-.768-.146-1.061-.439l-1.786-1.786c-.586-.586-.586-1.535,0-2.121s1.535-.586,2.121,0l.726.726,2.511-2.511c.586-.586,1.535-.586,2.121,0s.586,1.535,0,2.121l-3.571,3.571c-.293.293-.677.439-1.061.439Z" fill="#293a4c"/>
    </g>
    <g>
      <g>
        <path d="M37.914,49.009h-8.851c-.828,0-1.5-.672-1.5-1.5s.672-1.5,1.5-1.5h8.851c.828,0,1.5.672,1.5,1.5s-.672,1.5-1.5,1.5Z" fill="#293a4c"/>
        <path d="M46.766,53.701h-17.702c-.828,0-1.5-.672-1.5-1.5s.672-1.5,1.5-1.5h17.702c.828,0,1.5.672,1.5,1.5s-.672,1.5-1.5,1.5Z" fill="#293a4c"/>
      </g>
      <path d="M19.021,53.141c-.384,0-.768-.146-1.061-.439l-1.786-1.785c-.586-.585-.586-1.535,0-2.121s1.535-.586,2.121,0l.726.725,2.511-2.511c.586-.586,1.535-.586,2.121,0s.586,1.535,0,2.121l-3.571,3.571c-.293.293-.677.439-1.061.439Z" fill="#293a4c"/>
    </g>
  </g>
</svg>