<?xml version="1.0" encoding="UTF-8"?>
<svg id="c" data-name="DYPTA_EXPAND" xmlns="http://www.w3.org/2000/svg" width="64" height="64" viewBox="0 0 64 64">
  <path d="M36.54,57.49H8c-2.481,0-4.5-2.019-4.5-4.5V8c0-2.481,2.019-4.5,4.5-4.5h27.05c.398,0,.779.158,1.061.439l10.71,10.71c.281.281.439.663.439,1.061v10.779c0,.829-.671,1.5-1.5,1.5s-1.5-.671-1.5-1.5v-10.158l-9.831-9.831H8c-.827,0-1.5.673-1.5,1.5v44.99c0,.827.673,1.5,1.5,1.5h28.54c.829,0,1.5.671,1.5,1.5s-.671,1.5-1.5,1.5Z" fill="#293a4c"/>
  <path d="M45.761,17.207h-10.707c-.829,0-1.5-.671-1.5-1.5V5c0-.829.671-1.5,1.5-1.5s1.5.671,1.5,1.5v9.207h9.207c.829,0,1.5.671,1.5,1.5s-.671,1.5-1.5,1.5Z" fill="#293a4c"/>
  <path d="M28.575,25.606H10.665c-.829,0-1.5-.671-1.5-1.5v-13.441c0-.829.671-1.5,1.5-1.5h17.91c.829,0,1.5.671,1.5,1.5v13.441c0,.829-.671,1.5-1.5,1.5ZM12.165,22.606h14.91v-10.441h-14.91v10.441Z" fill="#293a4c"/>
  <path d="M18.601,33.032h-7.936c-.829,0-1.5-.671-1.5-1.5s.671-1.5,1.5-1.5h7.936c.829,0,1.5.671,1.5,1.5s-.671,1.5-1.5,1.5Z" fill="#293a4c"/>
  <path d="M24.234,39.079h-13.569c-.829,0-1.5-.671-1.5-1.5s.671-1.5,1.5-1.5h13.569c.829,0,1.5.671,1.5,1.5s-.671,1.5-1.5,1.5Z" fill="#293a4c"/>
  <path d="M24.234,45.126h-13.569c-.829,0-1.5-.671-1.5-1.5s.671-1.5,1.5-1.5h13.569c.829,0,1.5.671,1.5,1.5s-.671,1.5-1.5,1.5Z" fill="#293a4c"/>
  <path d="M48.64,47.36v2.34c-2.3.58-4.61.57-7.05-.02v-2.33l2.85,1.45c.21.1.44.16.68.16.23,0,.46-.06.68-.16l2.84-1.44Z" fill="#ff5f00"/>
  <polygon points="50.23 43.18 45.12 45.78 40.01 43.18 45.12 40.59 50.23 43.18" fill="#ff5f00"/>
  <path d="M45.12,30.03c-8.4,0-15.24,6.84-15.24,15.24s6.84,15.23,15.24,15.23,15.23-6.83,15.23-15.23-6.83-15.24-15.23-15.24ZM54.22,44.52l-2.58,1.31v4.24c0,1.13-.75,2.12-1.82,2.42-1.51.42-3.06.63-4.62.63-1.57,0-3.16-.21-4.76-.64-1.08-.27-1.85-1.27-1.85-2.42v-4.23l-.4-.2v.72c0,.83-.67,1.5-1.5,1.5s-1.5-.67-1.5-1.5v-3.17c0-.1.01-.19.03-.28.02-.11.05-.22.1-.32.03-.08.07-.16.12-.23.01-.01.01-.02.03-.03.04-.07.09-.13.14-.18.07-.08.15-.15.24-.2.05-.04.1-.07.16-.1l8.43-4.27c.42-.22.93-.22,1.36,0l8.42,4.27c.51.26.82.78.82,1.34,0,.57-.31,1.08-.82,1.34Z" fill="#ff5f00"/>
  <path d="M24.234,51.224h-13.569c-.829,0-1.5-.671-1.5-1.5s.671-1.5,1.5-1.5h13.569c.829,0,1.5.671,1.5,1.5s-.671,1.5-1.5,1.5Z" fill="#293a4c"/>
  <path d="M18.866,20.905h0c-.398,0-.779-.158-1.061-.439l-2.53-2.531c-.586-.586-.586-1.536,0-2.121.586-.586,1.535-.586,2.121,0l1.47,1.47,2.978-2.978c.586-.586,1.535-.586,2.121,0,.586.585.586,1.536,0,2.121l-4.039,4.039c-.281.281-.663.439-1.061.439Z" fill="#293a4c"/>
</svg>