<?xml version="1.0" encoding="UTF-8"?>
<svg id="c" data-name="DYPTA_EXPAND" xmlns="http://www.w3.org/2000/svg" width="64" height="64" viewBox="0 0 64 64">
  <path d="M11,49.48c-.828,0-1.5-.672-1.5-1.5V8c0-2.481,2.019-4.5,4.5-4.5h36c2.481,0,4.5,2.019,4.5,4.5v33.639c0,.828-.672,1.5-1.5,1.5s-1.5-.672-1.5-1.5V8c0-.827-.673-1.5-1.5-1.5H14c-.827,0-1.5.673-1.5,1.5v39.98c0,.828-.672,1.5-1.5,1.5Z" fill="#293a4c"/>
  <g>
    <path d="M31.896,41.211c-3.421,0-6.807-1.426-10.063-4.278-.325-.284-.512-.695-.512-1.128v-6.84c0-.828.672-1.5,1.5-1.5s1.5.672,1.5,1.5v6.146c5.107,4.204,10.019,4.199,15.359-.02v-6.127c0-.828.672-1.5,1.5-1.5s1.5.672,1.5,1.5v6.84c0,.443-.196.865-.537,1.149-3.387,2.838-6.834,4.257-10.247,4.257Z" fill="#293a4c"/>
    <path d="M32,35.206c-.236,0-.473-.056-.689-.168l-14.32-7.406c-.498-.257-.811-.771-.811-1.332s.312-1.075.811-1.332l14.32-7.405c.434-.225.945-.225,1.379,0l14.32,7.405c.498.257.811.771.811,1.332s-.312,1.075-.811,1.332l-14.32,7.406c-.217.112-.453.168-.689.168ZM20.945,26.3l11.055,5.718,11.055-5.718-11.055-5.717-11.055,5.717Z" fill="#293a4c"/>
    <path d="M46.32,33.349c-.828,0-1.5-.672-1.5-1.5v-5.549c0-.828.672-1.5,1.5-1.5s1.5.672,1.5,1.5v5.549c0,.828-.672,1.5-1.5,1.5Z" fill="#293a4c"/>
  </g>
  <path d="M41.447,12.5h-18.895c-.559,0-1.07-.311-1.329-.805l-3.127-5.979c-.384-.734-.101-1.641.634-2.024.732-.385,1.641-.1,2.024.634l2.706,5.174h17.078l2.706-5.174c.384-.733,1.292-1.018,2.024-.634.734.384,1.018,1.29.634,2.024l-3.127,5.979c-.259.494-.771.805-1.329.805Z" fill="#293a4c"/>
  <path d="M53,46.48H11c-.83,0-1.5.67-1.5,1.5v8.02c0,2.48,2.02,4.5,4.5,4.5h36c2.48,0,4.5-2.02,4.5-4.5v-8.02c0-.83-.67-1.5-1.5-1.5ZM35,54.99h-6c-.83,0-1.5-.67-1.5-1.5s.67-1.5,1.5-1.5h6c.83,0,1.5.67,1.5,1.5s-.67,1.5-1.5,1.5Z" fill="#ff5f00"/>
</svg>