<?xml version="1.0" encoding="UTF-8"?>
<svg id="c" data-name="DYPTA_EXPAND" xmlns="http://www.w3.org/2000/svg" width="64" height="64" viewBox="0 0 64 64">
  <path d="M45.312,60.5H9.492c-2.481,0-4.5-2.019-4.5-4.5V14c0-2.481,2.019-4.5,4.5-4.5h32c.828,0,1.5.671,1.5,1.5s-.672,1.5-1.5,1.5H9.492c-.827,0-1.5.673-1.5,1.5v42c0,.827.673,1.5,1.5,1.5h35.82c.827,0,1.5-.673,1.5-1.5v-25.94c0-.829.672-1.5,1.5-1.5s1.5.671,1.5,1.5v25.94c0,2.481-2.019,4.5-4.5,4.5Z" fill="#293a4c"/>
  <path d="M47.113,31.632c-6.559,0-11.894-5.335-11.894-11.894s5.335-11.894,11.894-11.894,11.895,5.335,11.895,11.894-5.336,11.894-11.895,11.894ZM47.113,10.845c-4.904,0-8.894,3.99-8.894,8.894s3.989,8.894,8.894,8.894,8.895-3.99,8.895-8.894-3.99-8.894-8.895-8.894Z" fill="#293a4c"/>
  <path d="M47.113,10.845c-.828,0-1.5-.671-1.5-1.5v-4.345c0-.829.672-1.5,1.5-1.5s1.5.671,1.5,1.5v4.345c0,.829-.672,1.5-1.5,1.5Z" fill="#293a4c"/>
  <path d="M49.111,6.5h-3.995c-.828,0-1.5-.671-1.5-1.5s.672-1.5,1.5-1.5h3.995c.828,0,1.5.671,1.5,1.5s-.672,1.5-1.5,1.5Z" fill="#293a4c"/>
  <path d="M47.113,21.239c-.382,0-.763-.145-1.056-.434l-3.195-3.164c-.589-.583-.593-1.533-.01-2.122.582-.588,1.531-.594,2.121-.01l3.195,3.164c.589.583.593,1.533.01,2.122-.293.296-.679.444-1.065.444Z" fill="#293a4c"/>
  <path d="M47.113,13.032c-.828,0-1.5-.671-1.5-1.5v-2.187c0-.829.672-1.5,1.5-1.5s1.5.671,1.5,1.5v2.187c0,.829-.672,1.5-1.5,1.5Z" fill="#293a4c"/>
  <path d="M38.907,21.239h-2.188c-.828,0-1.5-.671-1.5-1.5s.672-1.5,1.5-1.5h2.188c.828,0,1.5.671,1.5,1.5s-.672,1.5-1.5,1.5Z" fill="#293a4c"/>
  <path d="M47.113,31.632c-.828,0-1.5-.671-1.5-1.5v-2.187c0-.829.672-1.5,1.5-1.5s1.5.671,1.5,1.5v2.187c0,.829-.672,1.5-1.5,1.5Z" fill="#293a4c"/>
  <path d="M57.508,21.239h-2.188c-.828,0-1.5-.671-1.5-1.5s.672-1.5,1.5-1.5h2.188c.828,0,1.5.671,1.5,1.5s-.672,1.5-1.5,1.5Z" fill="#293a4c"/>
  <g>
    <path d="M19.385,41.25h-7.054c-.828,0-1.5-.671-1.5-1.5v-7.054c0-.829.672-1.5,1.5-1.5h7.054c.828,0,1.5.671,1.5,1.5v7.054c0,.829-.672,1.5-1.5,1.5ZM13.831,38.25h4.054v-4.054h-4.054v4.054Z" fill="#293a4c"/>
    <path d="M19.385,55.305h-7.054c-.828,0-1.5-.671-1.5-1.5v-7.054c0-.829.672-1.5,1.5-1.5h7.054c.828,0,1.5.671,1.5,1.5v7.054c0,.829-.672,1.5-1.5,1.5ZM13.831,52.305h4.054v-4.054h-4.054v4.054Z" fill="#293a4c"/>
    <g>
      <path d="M42.475,35.447h-17.255c-.828,0-1.5-.671-1.5-1.5s.672-1.5,1.5-1.5h17.255c.828,0,1.5.671,1.5,1.5s-.672,1.5-1.5,1.5Z" fill="#293a4c"/>
      <path d="M36.367,40h-11.147c-.828,0-1.5-.671-1.5-1.5s.672-1.5,1.5-1.5h11.147c.828,0,1.5.671,1.5,1.5s-.672,1.5-1.5,1.5Z" fill="#293a4c"/>
    </g>
    <g>
      <path d="M42.475,49.501h-17.255c-.828,0-1.5-.671-1.5-1.5s.672-1.5,1.5-1.5h17.255c.828,0,1.5.671,1.5,1.5s-.672,1.5-1.5,1.5Z" fill="#293a4c"/>
      <path d="M36.367,54.054h-11.147c-.828,0-1.5-.671-1.5-1.5s.672-1.5,1.5-1.5h11.147c.828,0,1.5.671,1.5,1.5s-.672,1.5-1.5,1.5Z" fill="#293a4c"/>
    </g>
  </g>
  <rect x="10.831" y="15.075" width="21.161" height="12.872" rx="1.5" ry="1.5" fill="#ff5f00"/>
</svg>