<?xml version="1.0" encoding="UTF-8"?>
<svg id="c" data-name="DYPTA_EXPAND" xmlns="http://www.w3.org/2000/svg" width="64" height="64" viewBox="0 0 64 64">
  <path d="M56,57.5H8c-2.481,0-4.5-2.019-4.5-4.5v-26.778c0-.829.671-1.5,1.5-1.5s1.5.671,1.5,1.5v26.778c0,.827.673,1.5,1.5,1.5h48c.827,0,1.5-.673,1.5-1.5V19.77c0-.829.671-1.5,1.5-1.5s1.5.671,1.5,1.5v33.23c0,2.481-2.019,4.5-4.5,4.5Z" fill="#293a4c"/>
  <g>
    <g>
      <g>
        <path d="M32.89,46.52c-.39,0-.78-.16-1.06-.44-.07-.07-.13-.14-.18-.23-.06-.08-.1-.16-.14-.25-.04-.1-.07-.19-.09-.29-.02-.09-.03-.19-.03-.29,0-.4.16-.78.44-1.06.35-.35.87-.51,1.36-.41.09.02.19.05.28.09.09.03.17.08.26.13.08.06.15.12.22.19.28.28.44.67.44,1.06,0,.4-.16.78-.44,1.06-.07.07-.14.13-.22.19-.09.05-.17.1-.26.14-.09.03-.19.06-.28.08-.1.02-.2.03-.3.03Z" fill="#293a4c"/>
        <path d="M38.12,46.52c-.1,0-.2-.01-.3-.03-.09-.02-.19-.05-.28-.08-.09-.04-.17-.09-.26-.14-.08-.06-.15-.12-.22-.19-.07-.07-.14-.14-.19-.23-.05-.08-.1-.16-.14-.25-.04-.1-.06-.19-.08-.29-.02-.09-.03-.19-.03-.29,0-.39.16-.78.44-1.06.07-.07.14-.13.22-.19.09-.05.17-.1.26-.13.09-.04.19-.07.28-.09.49-.1,1.01.06,1.36.41.28.28.44.67.44,1.06,0,.1-.01.2-.03.29-.02.1-.05.19-.09.29-.03.09-.08.17-.14.25-.05.09-.11.16-.18.23-.28.28-.67.44-1.06.44Z" fill="#293a4c"/>
        <path d="M43.34,46.52c-.39,0-.78-.16-1.06-.44s-.44-.66-.44-1.06c0-.39.16-.78.44-1.06.56-.56,1.56-.56,2.12,0,.28.28.44.67.44,1.06,0,.1-.01.2-.03.29-.02.1-.04.19-.08.29-.04.09-.09.17-.14.25-.06.09-.12.16-.19.23-.07.07-.14.13-.23.19-.08.05-.16.1-.25.14-.1.03-.19.06-.29.08-.09.02-.19.03-.29.03Z" fill="#293a4c"/>
        <path d="M48.57,46.52c-.4,0-.78-.16-1.06-.44s-.44-.66-.44-1.06c0-.1.01-.19.03-.29.02-.1.04-.19.08-.28.04-.09.09-.18.14-.26s.12-.16.19-.23c.06-.07.14-.13.22-.19.08-.05.17-.1.26-.13.09-.04.19-.07.28-.09.2-.04.39-.04.59,0,.09.02.19.05.28.09.09.03.18.08.26.13.08.06.16.12.23.19.07.07.13.15.18.23.06.08.1.17.14.26.04.09.07.18.09.28.02.1.03.19.03.29,0,.4-.16.78-.44,1.06-.07.07-.15.13-.23.19-.08.05-.17.1-.26.14-.09.03-.19.06-.28.08-.1.02-.2.03-.29.03Z" fill="#293a4c"/>
      </g>
      <path d="M53.596,51.042h-25.734c-.829,0-1.5-.671-1.5-1.5v-9.042c0-.829.671-1.5,1.5-1.5h25.734c.829,0,1.5.671,1.5,1.5v9.042c0,.829-.671,1.5-1.5,1.5ZM29.362,48.042h22.734v-6.042h-22.734v6.042Z" fill="#293a4c"/>
      <g>
        <path d="M53.596,36.766h-25.734c-.829,0-1.5-.671-1.5-1.5v-9.042c0-.829.671-1.5,1.5-1.5h25.734c.829,0,1.5.671,1.5,1.5v9.042c0,.829-.671,1.5-1.5,1.5ZM29.362,33.766h22.734v-6.042h-22.734v6.042Z" fill="#293a4c"/>
        <path d="M39.851,32.245h-6.958c-.829,0-1.5-.671-1.5-1.5s.671-1.5,1.5-1.5h6.958c.829,0,1.5.671,1.5,1.5s-.671,1.5-1.5,1.5Z" fill="#293a4c"/>
      </g>
    </g>
    <g>
      <path d="M16.299,39.458c-3.248,0-5.89-2.642-5.89-5.89s2.642-5.89,5.89-5.89,5.89,2.642,5.89,5.89-2.642,5.89-5.89,5.89ZM16.299,30.678c-1.594,0-2.89,1.296-2.89,2.89s1.296,2.89,2.89,2.89,2.89-1.296,2.89-2.89-1.296-2.89-2.89-2.89Z" fill="#293a4c"/>
      <path d="M22.192,48.088h-11.788c-.829,0-1.5-.671-1.5-1.5v-4.205c0-3.269,2.659-5.928,5.928-5.928h2.933c3.269,0,5.928,2.659,5.928,5.928v4.194c0,.829-.671,1.511-1.5,1.511ZM11.904,45.088h8.788v-2.705c0-1.614-1.313-2.928-2.928-2.928h-2.933c-1.614,0-2.928,1.313-2.928,2.928v2.705Z" fill="#293a4c"/>
    </g>
  </g>
  <path d="M56,6.5H8c-2.48,0-4.5,2.02-4.5,4.5v8.77c0,.83.67,1.5,1.5,1.5h54c.83,0,1.5-.67,1.5-1.5v-8.77c0-2.48-2.02-4.5-4.5-4.5ZM12.2,14.94c-.07.07-.15.13-.23.19-.08.05-.17.1-.26.14-.09.04-.18.06-.28.08-.1.02-.19.03-.29.03s-.2-.01-.3-.03c-.09-.02-.19-.04-.28-.08-.09-.04-.17-.09-.25-.14-.09-.06-.16-.12-.23-.19s-.13-.14-.19-.22c-.05-.09-.1-.17-.14-.26-.03-.09-.06-.19-.08-.28-.02-.1-.03-.2-.03-.3,0-.39.16-.78.44-1.06.07-.07.14-.13.23-.18.08-.06.16-.1.25-.14.09-.04.19-.07.28-.09.2-.04.4-.04.59,0,.1.02.19.05.28.09.09.04.18.08.26.14.08.05.16.11.23.18s.13.15.19.23c.05.08.1.17.13.26.04.09.07.18.09.28.02.1.03.2.03.29,0,.4-.16.78-.44,1.06ZM17.97,14.18c-.02.09-.05.19-.08.28-.04.09-.09.17-.14.26-.06.08-.12.16-.19.22-.28.28-.67.44-1.06.44-.1,0-.2-.01-.29-.03-.1-.02-.19-.04-.28-.08-.09-.04-.18-.09-.26-.14-.09-.05-.16-.12-.23-.19-.07-.06-.13-.14-.19-.22-.05-.09-.1-.17-.14-.26-.03-.09-.06-.19-.08-.28-.02-.1-.03-.2-.03-.3,0-.09.01-.19.03-.29.02-.1.05-.19.08-.28.04-.09.09-.18.14-.26.06-.08.12-.16.19-.23.34-.35.87-.51,1.35-.41.1.02.19.05.28.09.09.04.18.08.26.14.08.05.16.11.23.18s.13.15.19.23c.05.08.1.17.14.26.03.09.06.18.08.28.02.1.03.2.03.29,0,.1-.01.2-.03.3ZM22.92,14.94c-.07.07-.14.14-.23.19-.08.05-.16.1-.25.14-.09.04-.19.06-.29.08-.09.02-.19.03-.29.03-.4,0-.78-.16-1.06-.44-.07-.07-.13-.14-.19-.22-.05-.09-.1-.17-.13-.26-.04-.09-.07-.19-.09-.28-.02-.1-.03-.2-.03-.3,0-.09.01-.19.03-.29.02-.1.05-.19.09-.28.03-.09.08-.18.13-.26.06-.08.12-.16.19-.23.35-.35.87-.51,1.35-.41.1.02.2.05.29.09.09.04.17.08.25.14.09.05.16.11.23.18.28.28.44.67.44,1.06,0,.4-.16.78-.44,1.06ZM52.86,15.38h-21c-.83,0-1.5-.67-1.5-1.5s.67-1.5,1.5-1.5h21c.83,0,1.5.67,1.5,1.5s-.67,1.5-1.5,1.5Z" fill="#ff5f00"/>
</svg>