<?xml version="1.0" encoding="UTF-8"?>
<svg id="c" data-name="DYPTA_EXPAND" xmlns="http://www.w3.org/2000/svg" width="64" height="64" viewBox="0 0 64 64">
  <g>
    <g>
      <g>
        <path d="M56,52.18c-.828,0-1.5-.672-1.5-1.5V17.664c0-.275-.225-.5-.5-.5h-13.7c-.828,0-1.5-.672-1.5-1.5s.672-1.5,1.5-1.5h13.7c1.93,0,3.5,1.57,3.5,3.5v33.016c0,.828-.672,1.5-1.5,1.5Z" fill="#293a4c"/>
        <path d="M8,52.18c-.828,0-1.5-.672-1.5-1.5V17.664c0-1.93,1.57-3.5,3.5-3.5h13.7c.828,0,1.5.672,1.5,1.5s-.672,1.5-1.5,1.5h-13.7c-.275,0-.5.225-.5.5v33.016c0,.828-.672,1.5-1.5,1.5Z" fill="#293a4c"/>
        <path d="M56.02,60.501H7.98c-2.481,0-4.5-2.019-4.5-4.5v-5.32c0-.828.672-1.5,1.5-1.5h17.329c.679,0,1.272.455,1.448,1.11l.382,1.42h15.761l.382-1.42c.176-.655.77-1.11,1.448-1.11h17.289c.828,0,1.5.672,1.5,1.5v5.32c0,2.481-2.019,4.5-4.5,4.5ZM6.48,52.181v3.82c0,.827.673,1.5,1.5,1.5h48.039c.827,0,1.5-.673,1.5-1.5v-3.82h-14.64l-.382,1.42c-.176.655-.77,1.11-1.448,1.11h-18.06c-.679,0-1.272-.455-1.448-1.11l-.382-1.42H6.48Z" fill="#293a4c"/>
      </g>
      <path d="M56,46.866H8c-.828,0-1.5-.672-1.5-1.5s.672-1.5,1.5-1.5h48c.828,0,1.5.672,1.5,1.5s-.672,1.5-1.5,1.5Z" fill="#293a4c"/>
    </g>
    <g>
      <g>
        <g>
          <g>
            <path d="M23.7,15.26c-.348,0-.688-.121-.959-.347-.343-.285-.541-.708-.541-1.153v-.49c0-5.403,4.396-9.8,9.8-9.8s9.8,4.396,9.8,9.8v.49c0,.828-.672,1.5-1.5,1.5-5.372,0-8.477-1.604-10.052-2.809-2.242,1.982-5.801,2.695-6.274,2.783-.091.018-.183.025-.273.025ZM30.14,8.79c.489,0,.949.239,1.23.642.066.087,1.866,2.392,7.347,2.774-.512-3.246-3.329-5.736-6.717-5.736-3.225,0-5.933,2.256-6.627,5.272,1.34-.471,2.88-1.219,3.479-2.222.262-.437.727-.712,1.235-.729.018,0,.035,0,.053,0Z" fill="#293a4c"/>
            <path d="M31.997,28.7c-1.462.033-2.983-.338-4.333-1.007-.932-.453-1.805-1.075-2.586-1.844-1.619-1.631-2.617-3.759-2.822-6.003-.032-.279-.056-.608-.056-.937v-5.15c0-.828.672-1.5,1.5-1.5s1.5.672,1.5,1.5v5.15c0,.211.016.423.04.626.146,1.589.838,3.062,1.954,4.188.537.527,1.145.962,1.792,1.277.942.467,1.987.697,3.003.699,1.053,0,2.052-.248,2.981-.737,2.034-1.067,3.479-3.156,3.771-5.453.04-.287.058-.565.058-.89v-4.86c0-.828.672-1.5,1.5-1.5s1.5.672,1.5,1.5v4.86c0,.465-.026.873-.083,1.285-.414,3.238-2.465,6.199-5.35,7.713-1.345.708-2.855,1.082-4.37,1.082Z" fill="#293a4c"/>
          </g>
          <path d="M32.001,23.52c-.958,0-1.916-.363-2.809-1.09-.643-.523-.739-1.468-.216-2.11s1.468-.738,2.11-.216c.691.562,1.137.562,1.828,0,.643-.523,1.586-.428,2.11.216.523.643.427,1.587-.216,2.11-.893.727-1.851,1.09-2.809,1.09Z" fill="#293a4c"/>
        </g>
        <g>
          <path d="M25.865,31.271c-.723,0-1.36-.524-1.479-1.261-.133-.818.424-1.588,1.241-1.72.696-.112,1.202-.716,1.202-1.435v-.499c0-.828.672-1.5,1.5-1.5s1.5.672,1.5,1.5v.499c0,2.199-1.566,4.048-3.724,4.396-.081.014-.162.02-.241.02Z" fill="#293a4c"/>
          <path d="M22.024,31.984c-.828,0-1.5-.672-1.5-1.5,0-.682.454-1.257,1.076-1.439.961-.302,1.96.446,1.96,1.428,0,.68-.452,1.254-1.072,1.438-.15.047-.311.073-.464.073Z" fill="#293a4c"/>
          <path d="M19.247,33.807c-.389,0-.777-.15-1.07-.449-.581-.592-.571-1.541.02-2.122.95-.932,2.051-1.654,3.271-2.147.771-.312,1.643.062,1.953.828.311.769-.061,1.643-.828,1.953-.855.346-1.627.853-2.295,1.509-.292.286-.672.429-1.051.429Z" fill="#293a4c"/>
        </g>
        <g>
          <path d="M38.135,31.271c-.083,0-.167-.007-.251-.021-2.152-.362-3.714-2.211-3.714-4.395v-.559c0-.828.672-1.5,1.5-1.5s1.5.672,1.5,1.5v.559c0,.714.51,1.317,1.212,1.436.816.138,1.367.911,1.23,1.729-.124.732-.759,1.251-1.478,1.251Z" fill="#293a4c"/>
          <path d="M16.457,46.881c-.828,0-1.5-.672-1.5-1.5v-6.652c0-2.727,1.216-5.531,3.253-7.502.594-.574,1.544-.561,2.121.035.576.596.561,1.545-.035,2.121-1.442,1.396-2.339,3.444-2.339,5.346v6.652c0,.828-.672,1.5-1.5,1.5Z" fill="#293a4c"/>
          <path d="M47.543,46.881c-.828,0-1.5-.672-1.5-1.5v-6.652c0-1.201-.353-2.486-.993-3.617-.409-.721-.155-1.636.565-2.044.719-.408,1.636-.156,2.044.565.893,1.574,1.384,3.385,1.384,5.096v6.652c0,.828-.672,1.5-1.5,1.5Z" fill="#293a4c"/>
        </g>
      </g>
      <g>
        <path d="M27.517,46.881c-.095,0-.19-.009-.287-.027-.813-.157-1.345-.944-1.188-1.758l1.774-9.175c.157-.813.941-1.344,1.758-1.188.813.157,1.345.944,1.188,1.758l-1.774,9.175c-.139.717-.767,1.215-1.471,1.215Z" fill="#293a4c"/>
        <path d="M36.483,46.881c-.704,0-1.332-.498-1.471-1.215l-1.774-9.175c-.157-.813.374-1.601,1.188-1.758.813-.156,1.601.374,1.758,1.188l1.774,9.175c.157.813-.374,1.601-1.188,1.758-.097.019-.192.027-.287.027Z" fill="#293a4c"/>
      </g>
    </g>
  </g>
  <path d="M42.636,29.006l-2.816-1.38c-.518-.253-1.133-.189-1.585.166l-6.233,4.884-6.233-4.884c-.451-.354-1.067-.418-1.585-.166l-2.816,1.38c-.671.328-.998,1.102-.766,1.812l2.814,8.633c.143.438.477.784.908.943.168.062.343.092.518.092.274,0,.547-.075.786-.223l6.374-3.92,6.374,3.92c.239.147.512.223.786.223.175,0,.35-.03.518-.092.432-.159.766-.506.908-.943l2.814-8.633c.232-.71-.095-1.483-.766-1.812Z" fill="#ff5f00"/>
</svg>