<?xml version="1.0" encoding="UTF-8"?>
<svg id="c" data-name="LINE" xmlns="http://www.w3.org/2000/svg" width="64" height="64" viewBox="0 0 64 64">
  <g>
    <path d="M41.93,60.5H8c-2.481,0-4.5-2.019-4.5-4.5V8c0-2.481,2.019-4.5,4.5-4.5h33.93c2.481,0,4.5,2.019,4.5,4.5v48c0,2.481-2.019,4.5-4.5,4.5ZM8,6.5c-.827,0-1.5.673-1.5,1.5v48c0,.827.673,1.5,1.5,1.5h33.93c.827,0,1.5-.673,1.5-1.5V8c0-.827-.673-1.5-1.5-1.5H8Z" fill="#293a4c"/>
    <g>
      <g>
        <path d="M22.061,22.527h-11.063c-.829,0-1.5-.671-1.5-1.5v-11.063c0-.829.671-1.5,1.5-1.5h11.063c.829,0,1.5.671,1.5,1.5v11.063c0,.829-.671,1.5-1.5,1.5ZM12.498,19.527h8.063v-8.063h-8.063v8.063Z" fill="#293a4c"/>
        <path d="M16.143,17.953c-.384,0-.768-.146-1.061-.439l-1.14-1.14c-.586-.585-.586-1.536,0-2.121.586-.586,1.535-.586,2.121,0l.08.08.853-.853c.586-.586,1.535-.586,2.121,0,.586.585.586,1.536,0,2.121l-1.913,1.913c-.293.293-.677.439-1.061.439Z" fill="#293a4c"/>
      </g>
      <path d="M22.061,39.032h-11.063c-.829,0-1.5-.671-1.5-1.5v-11.063c0-.829.671-1.5,1.5-1.5h11.063c.829,0,1.5.671,1.5,1.5v11.063c0,.829-.671,1.5-1.5,1.5ZM12.498,36.032h8.063v-8.063h-8.063v8.063Z" fill="#293a4c"/>
      <g>
        <path d="M18.073,35.044c-.384,0-.768-.146-1.061-.439l-3.088-3.088c-.586-.585-.586-1.536,0-2.121.586-.586,1.535-.586,2.121,0l3.088,3.088c.586.585.586,1.536,0,2.121-.293.293-.677.439-1.061.439Z" fill="#293a4c"/>
        <path d="M14.985,35.044c-.384,0-.768-.146-1.061-.439-.586-.585-.586-1.536,0-2.121l3.088-3.088c.586-.586,1.535-.586,2.121,0,.586.585.586,1.536,0,2.121l-3.088,3.088c-.293.293-.677.439-1.061.439Z" fill="#293a4c"/>
      </g>
      <g>
        <path d="M22.061,55.536h-11.063c-.829,0-1.5-.671-1.5-1.5v-11.063c0-.829.671-1.5,1.5-1.5h11.063c.829,0,1.5.671,1.5,1.5v11.063c0,.829-.671,1.5-1.5,1.5ZM12.498,52.536h8.063v-8.063h-8.063v8.063Z" fill="#293a4c"/>
        <path d="M16.143,50.96c-.384,0-.768-.146-1.061-.439l-1.14-1.14c-.586-.586-.586-1.536,0-2.122.586-.586,1.536-.585,2.122,0l.08.08.853-.853c.586-.586,1.535-.586,2.121,0,.586.585.586,1.536,0,2.121l-1.913,1.913c-.293.293-.677.439-1.061.439Z" fill="#293a4c"/>
      </g>
      <g>
        <path d="M33.738,14.083h-5.194c-.829,0-1.5-.671-1.5-1.5s.671-1.5,1.5-1.5h5.194c.829,0,1.5.671,1.5,1.5s-.671,1.5-1.5,1.5Z" fill="#293a4c"/>
        <path d="M38.932,19.909h-10.389c-.829,0-1.5-.671-1.5-1.5s.671-1.5,1.5-1.5h10.389c.829,0,1.5.671,1.5,1.5s-.671,1.5-1.5,1.5Z" fill="#293a4c"/>
      </g>
      <g>
        <path d="M33.738,30.587h-5.194c-.829,0-1.5-.671-1.5-1.5s.671-1.5,1.5-1.5h5.194c.829,0,1.5.671,1.5,1.5s-.671,1.5-1.5,1.5Z" fill="#293a4c"/>
        <path d="M38.932,36.413h-10.389c-.829,0-1.5-.671-1.5-1.5s.671-1.5,1.5-1.5h10.389c.829,0,1.5.671,1.5,1.5s-.671,1.5-1.5,1.5Z" fill="#293a4c"/>
      </g>
      <g>
        <path d="M33.738,47.091h-5.194c-.829,0-1.5-.671-1.5-1.5s.671-1.5,1.5-1.5h5.194c.829,0,1.5.671,1.5,1.5s-.671,1.5-1.5,1.5Z" fill="#293a4c"/>
        <path d="M38.932,52.917h-10.389c-.829,0-1.5-.671-1.5-1.5s.671-1.5,1.5-1.5h10.389c.829,0,1.5.671,1.5,1.5s-.671,1.5-1.5,1.5Z" fill="#293a4c"/>
      </g>
    </g>
  </g>
  <g>
    <path d="M54.489,55.933c-.589,0-1.124-.345-1.367-.882l-4.511-9.979c-.088-.194-.133-.405-.133-.618V11.567c0-1.93,1.57-3.5,3.5-3.5h5.021c1.93,0,3.5,1.57,3.5,3.5v32.888c0,.213-.045.424-.133.618l-4.511,9.979c-.243.537-.777.882-1.367.882ZM51.479,44.131l3.011,6.66,3.011-6.66V11.567c0-.276-.224-.5-.5-.5h-5.021c-.276,0-.5.224-.5.5v32.564ZM59,44.455h.01-.01Z" fill="#293a4c"/>
    <path d="M59,20.125h-9.021c-.829,0-1.5-.671-1.5-1.5s.671-1.5,1.5-1.5h9.021c.829,0,1.5.671,1.5,1.5s-.671,1.5-1.5,1.5Z" fill="#293a4c"/>
    <path d="M59,45.955h-9.021c-.829,0-1.5-.671-1.5-1.5s.671-1.5,1.5-1.5h9.021c.829,0,1.5.671,1.5,1.5s-.671,1.5-1.5,1.5Z" fill="#293a4c"/>
    <path d="M54.489,45.955c-.829,0-1.5-.671-1.5-1.5v-25.83c0-.829.671-1.5,1.5-1.5s1.5.671,1.5,1.5v25.83c0,.829-.671,1.5-1.5,1.5Z" fill="#293a4c"/>
  </g>
</svg>