<?xml version="1.0" encoding="UTF-8"?>
<svg id="c" data-name="LINE" xmlns="http://www.w3.org/2000/svg" width="64" height="64" viewBox="0 0 64 64">
  <g>
    <path d="M39.57,60.5H7c-1.93,0-3.5-1.57-3.5-3.5V13c0-1.93,1.57-3.5,3.5-3.5h23.68c.829,0,1.5.672,1.5,1.5s-.671,1.5-1.5,1.5H7c-.276,0-.5.225-.5.5v44c0,.275.224.5.5.5h32.57c.275,0,.5-.225.5-.5v-3.41c0-.828.672-1.5,1.5-1.5s1.5.672,1.5,1.5v3.41c0,1.93-1.57,3.5-3.5,3.5Z" fill="#293a4c"/>
    <path d="M41.57,30.03c-.828,0-1.5-.672-1.5-1.5v-6.641c0-.828.672-1.5,1.5-1.5s1.5.672,1.5,1.5v6.641c0,.828-.672,1.5-1.5,1.5Z" fill="#293a4c"/>
    <path d="M47.45,36.55c-.828,0-1.5-.672-1.5-1.5V7c0-.275-.225-.5-.5-.5H12.44c-.276,0-.5.225-.5.5v3.83c0,.828-.671,1.5-1.5,1.5s-1.5-.672-1.5-1.5v-3.83c0-1.93,1.57-3.5,3.5-3.5h33.01c1.93,0,3.5,1.57,3.5,3.5v28.05c0,.828-.672,1.5-1.5,1.5Z" fill="#293a4c"/>
    <path d="M41.57,23.39h-10.89c-.829,0-1.5-.672-1.5-1.5v-10.89c0-.606.365-1.153.926-1.386.562-.233,1.207-.104,1.635.325l10.89,10.89c.429.429.558,1.074.325,1.635s-.779.926-1.386.926ZM32.18,20.39h5.769l-5.769-5.769v5.769Z" fill="#293a4c"/>
    <path d="M25.064,23.39h-15.021c-.829,0-1.5-.672-1.5-1.5v-5.698c0-.828.671-1.5,1.5-1.5h15.021c.829,0,1.5.672,1.5,1.5v5.698c0,.828-.671,1.5-1.5,1.5ZM11.542,20.39h12.021v-2.698h-12.021v2.698Z" fill="#293a4c"/>
    <path d="M23.285,31.109h-13.243c-.829,0-1.5-.672-1.5-1.5s.671-1.5,1.5-1.5h13.243c.829,0,1.5.672,1.5,1.5s-.671,1.5-1.5,1.5Z" fill="#293a4c"/>
    <path d="M23.285,38.453h-13.243c-.829,0-1.5-.672-1.5-1.5s.671-1.5,1.5-1.5h13.243c.829,0,1.5.672,1.5,1.5s-.671,1.5-1.5,1.5Z" fill="#293a4c"/>
    <path d="M23.285,45.797h-13.243c-.829,0-1.5-.672-1.5-1.5s.671-1.5,1.5-1.5h13.243c.829,0,1.5.672,1.5,1.5s-.671,1.5-1.5,1.5Z" fill="#293a4c"/>
    <path d="M29.234,53.141H10.042c-.829,0-1.5-.672-1.5-1.5s.671-1.5,1.5-1.5h19.191c.829,0,1.5.672,1.5,1.5s-.671,1.5-1.5,1.5Z" fill="#293a4c"/>
  </g>
  <g>
    <path d="M46.851,51.94c-.384,0-.768-.146-1.061-.439l-3.967-3.967c-.586-.586-.586-1.535,0-2.121s1.535-.586,2.121,0l3.967,3.967c.586.586.586,1.535,0,2.121-.293.293-.677.439-1.061.439Z" fill="#293a4c"/>
    <path d="M50.438,48.353c-.384,0-.768-.146-1.061-.439l-3.967-3.967c-.586-.586-.586-1.535,0-2.121s1.535-.586,2.121,0l3.967,3.967c.586.586.586,1.535,0,2.121-.293.293-.677.439-1.061.439Z" fill="#293a4c"/>
    <path d="M54.726,60.496c-1.479,0-2.958-.562-4.084-1.688l-6.079-6.079c-.586-.586-.586-1.535,0-2.121l6.047-6.047c.586-.586,1.535-.586,2.121,0l6.079,6.079c2.251,2.252,2.251,5.916,0,8.168-1.126,1.125-2.605,1.688-4.084,1.688ZM47.744,51.668l5.019,5.019c1.082,1.082,2.844,1.082,3.926,0,1.081-1.082,1.081-2.844,0-3.926l-5.019-5.019-3.926,3.926Z" fill="#293a4c"/>
    <path d="M37.825,49.344c-3.076,0-5.968-1.198-8.144-3.374-2.175-2.175-3.373-5.066-3.373-8.143s1.198-5.969,3.373-8.144c2.175-2.176,5.067-3.373,8.144-3.373s5.968,1.197,8.143,3.373h0c2.176,2.175,3.373,5.066,3.373,8.144s-1.197,5.968-3.373,8.143c-2.175,2.176-5.066,3.374-8.143,3.374ZM37.825,29.311c-2.274,0-4.414.886-6.022,2.494s-2.494,3.747-2.494,6.022.886,4.413,2.494,6.021,3.748,2.495,6.022,2.495,4.413-.887,6.021-2.495,2.494-3.747,2.494-6.021-.886-4.414-2.494-6.022h0c-1.608-1.608-3.747-2.494-6.021-2.494Z" fill="#293a4c"/>
    <path d="M37.825,44.557c-1.798,0-3.487-.699-4.76-1.97-2.623-2.625-2.623-6.895,0-9.519,1.273-1.271,2.963-1.971,4.761-1.971s3.486.7,4.757,1.971c2.624,2.624,2.624,6.894,0,9.518-1.272,1.271-2.962,1.971-4.758,1.971ZM37.825,34.098c-.997,0-1.934.388-2.639,1.093-1.453,1.453-1.453,3.82,0,5.274,1.406,1.407,3.863,1.41,5.274,0,1.453-1.453,1.453-3.82,0-5.274-.704-.704-1.641-1.092-2.636-1.092Z" fill="#293a4c"/>
  </g>
</svg>