<?xml version="1.0" encoding="UTF-8"?>
<svg id="c" data-name="LINE" xmlns="http://www.w3.org/2000/svg" width="64" height="64" viewBox="0 0 64 64">
  <path d="M36.54,57.49H8c-2.481,0-4.5-2.019-4.5-4.5V8c0-2.481,2.019-4.5,4.5-4.5h27.05c.398,0,.779.158,1.061.439l10.71,10.71c.281.281.439.663.439,1.061v10.779c0,.829-.671,1.5-1.5,1.5s-1.5-.671-1.5-1.5v-10.158l-9.831-9.831H8c-.827,0-1.5.673-1.5,1.5v44.99c0,.827.673,1.5,1.5,1.5h28.54c.829,0,1.5.671,1.5,1.5s-.671,1.5-1.5,1.5Z" fill="#293a4c"/>
  <path d="M45.761,17.207h-10.707c-.829,0-1.5-.671-1.5-1.5V5c0-.829.671-1.5,1.5-1.5s1.5.671,1.5,1.5v9.207h9.207c.829,0,1.5.671,1.5,1.5s-.671,1.5-1.5,1.5Z" fill="#293a4c"/>
  <path d="M28.575,25.606H10.665c-.829,0-1.5-.671-1.5-1.5v-13.441c0-.829.671-1.5,1.5-1.5h17.91c.829,0,1.5.671,1.5,1.5v13.441c0,.829-.671,1.5-1.5,1.5ZM12.165,22.606h14.91v-10.441h-14.91v10.441Z" fill="#293a4c"/>
  <path d="M18.601,33.032h-7.936c-.829,0-1.5-.671-1.5-1.5s.671-1.5,1.5-1.5h7.936c.829,0,1.5.671,1.5,1.5s-.671,1.5-1.5,1.5Z" fill="#293a4c"/>
  <path d="M24.234,39.079h-13.569c-.829,0-1.5-.671-1.5-1.5s.671-1.5,1.5-1.5h13.569c.829,0,1.5.671,1.5,1.5s-.671,1.5-1.5,1.5Z" fill="#293a4c"/>
  <path d="M24.234,45.126h-13.569c-.829,0-1.5-.671-1.5-1.5s.671-1.5,1.5-1.5h13.569c.829,0,1.5.671,1.5,1.5s-.671,1.5-1.5,1.5Z" fill="#293a4c"/>
  <path d="M45.117,60.5c-8.4,0-15.234-6.834-15.234-15.234s6.834-15.234,15.234-15.234,15.234,6.834,15.234,15.234-6.834,15.234-15.234,15.234ZM45.117,33.032c-6.746,0-12.234,5.488-12.234,12.234s5.488,12.234,12.234,12.234,12.234-5.488,12.234-12.234-5.488-12.234-12.234-12.234Z" fill="#293a4c"/>
  <g>
    <path d="M45.117,48.958c-.233,0-.466-.054-.679-.163l-8.425-4.277c-.503-.255-.821-.772-.821-1.337s.317-1.082.821-1.337l8.425-4.276c.427-.217.931-.217,1.357,0l8.426,4.276c.504.255.821.772.821,1.337s-.317,1.082-.821,1.337l-8.426,4.277c-.213.108-.446.163-.679.163ZM40.005,43.182l5.111,2.595,5.112-2.595-5.112-2.594-5.111,2.594Z" fill="#293a4c"/>
    <path d="M45.198,53.124c-1.571,0-3.16-.214-4.755-.642-1.08-.27-1.852-1.267-1.852-2.418v-5.15c0-.829.671-1.5,1.5-1.5s1.5.671,1.5,1.5v4.766c2.438.594,4.747.599,7.05.02v-4.786c0-.829.671-1.5,1.5-1.5s1.5.671,1.5,1.5v5.16c0,1.123-.747,2.116-1.817,2.415-1.517.424-3.063.636-4.626.636ZM41.194,49.578c.006.001.013.003.019.005-.006-.002-.013-.003-.019-.005Z" fill="#293a4c"/>
    <path d="M36.691,47.852c-.829,0-1.5-.671-1.5-1.5v-3.17c0-.829.671-1.5,1.5-1.5s1.5.671,1.5,1.5v3.17c0,.829-.671,1.5-1.5,1.5Z" fill="#293a4c"/>
  </g>
  <path d="M24.234,51.224h-13.569c-.829,0-1.5-.671-1.5-1.5s.671-1.5,1.5-1.5h13.569c.829,0,1.5.671,1.5,1.5s-.671,1.5-1.5,1.5Z" fill="#293a4c"/>
  <path d="M18.866,20.905h0c-.398,0-.779-.158-1.061-.439l-2.53-2.531c-.586-.586-.586-1.536,0-2.121.586-.586,1.535-.586,2.121,0l1.47,1.47,2.978-2.978c.586-.586,1.535-.586,2.121,0,.586.585.586,1.536,0,2.121l-4.039,4.039c-.281.281-.663.439-1.061.439Z" fill="#293a4c"/>
</svg>