<?xml version="1.0" encoding="UTF-8"?>
<svg id="c" data-name="LINE" xmlns="http://www.w3.org/2000/svg" width="64" height="64" viewBox="0 0 64 64">
  <g>
    <g>
      <path d="M56,52.18c-.829,0-1.5-.671-1.5-1.5V17.664c0-.276-.224-.5-.5-.5h-4.49c-.829,0-1.5-.671-1.5-1.5s.671-1.5,1.5-1.5h4.49c1.93,0,3.5,1.57,3.5,3.5v33.016c0,.829-.671,1.5-1.5,1.5Z" fill="#293a4c"/>
      <path d="M8,52.18c-.829,0-1.5-.671-1.5-1.5V17.664c0-1.93,1.57-3.5,3.5-3.5h4.49c.829,0,1.5.671,1.5,1.5s-.671,1.5-1.5,1.5h-4.49c-.276,0-.5.224-.5.5v33.016c0,.829-.671,1.5-1.5,1.5Z" fill="#293a4c"/>
      <path d="M56.02,60.5H7.98c-2.481,0-4.5-2.019-4.5-4.5v-5.32c0-.829.671-1.5,1.5-1.5h17.33c.679,0,1.272.456,1.449,1.111l.381,1.419h15.76l.381-1.419c.176-.655.771-1.11,1.449-1.11h17.29c.829,0,1.5.671,1.5,1.5v5.32c0,2.481-2.019,4.5-4.5,4.5ZM6.48,52.181v3.82c0,.827.673,1.5,1.5,1.5h48.04c.827,0,1.5-.673,1.5-1.5v-3.82h-14.64l-.381,1.419c-.176.655-.771,1.11-1.449,1.11h-18.06c-.679,0-1.272-.456-1.449-1.111l-.381-1.419H6.48Z" fill="#293a4c"/>
    </g>
    <path d="M56,46.866H8c-.829,0-1.5-.671-1.5-1.5s.671-1.5,1.5-1.5h48c.829,0,1.5.671,1.5,1.5s-.671,1.5-1.5,1.5Z" fill="#293a4c"/>
  </g>
  <path d="M49.511,45.826c-.829,0-1.5-.671-1.5-1.5V6.656c-.154-.085-.334-.156-.5-.156h-31.021c-.166,0-.346.071-.5.156v37.67c0,.829-.671,1.5-1.5,1.5s-1.5-.671-1.5-1.5V5.96c0-1.358,2.118-2.46,3.5-2.46h31.021c1.382,0,3.5,1.102,3.5,2.46v38.366c0,.829-.671,1.5-1.5,1.5Z" fill="#293a4c"/>
  <path d="M19.489,14.968c-.829,0-1.5-.671-1.5-1.5v-3.468c0-.829.671-1.5,1.5-1.5h3.468c.829,0,1.5.671,1.5,1.5s-.671,1.5-1.5,1.5h-1.968v1.968c0,.829-.671,1.5-1.5,1.5Z" fill="#293a4c"/>
  <path d="M44.511,14.968c-.829,0-1.5-.671-1.5-1.5v-1.968h-1.968c-.829,0-1.5-.671-1.5-1.5s.671-1.5,1.5-1.5h3.468c.829,0,1.5.671,1.5,1.5v3.468c0,.829-.671,1.5-1.5,1.5Z" fill="#293a4c"/>
  <g>
    <g>
      <path d="M27.994,37.291c-.522,0-1.008-.272-1.281-.72l-1.836-3.013-3.799-.042c-.526-.006-1.011-.287-1.277-.741s-.275-1.014-.023-1.477l3.522-6.465c.247-.49.754-.827,1.339-.827.829,0,1.5.667,1.5,1.496v.008c0,.25-.063.498-.183.718l-2.351,4.315,2.137.024c.518.006.995.278,1.264.72l.916,1.502,2.487-4.564c.263-.482.768-.782,1.317-.782.829,0,1.504.671,1.504,1.5,0,.305-.09.588-.246.825l-3.674,6.74c-.256.471-.745.769-1.281.782-.012,0-.024,0-.036,0Z" fill="#293a4c"/>
      <path d="M36.006,37.291c-.012,0-.024,0-.036,0-.536-.013-1.024-.311-1.281-.782l-3.688-6.767c-.146-.231-.231-.505-.231-.799,0-.829.667-1.5,1.496-1.5h.009c.549,0,1.054.3,1.317.782l2.487,4.564.916-1.502c.269-.442.747-.714,1.264-.72l2.139-.024-.089-.164c-.396-.728-.126-1.639.601-2.035.727-.395,1.638-.126,2.035.601l1.28,2.353c.251.462.242,1.022-.024,1.476-.266.454-.75.735-1.277.741l-3.799.042-1.836,3.013c-.272.448-.758.72-1.281.72Z" fill="#293a4c"/>
    </g>
    <g>
      <path d="M34.065,30.886c-.558,0-1.125-.119-1.663-.369-.256-.12-.549-.12-.805,0-1.975.919-4.331.062-5.252-1.911-.119-.256-.344-.444-.616-.518-2.104-.564-3.358-2.736-2.795-4.84.073-.272.022-.562-.14-.793-1.249-1.785-.813-4.254.97-5.504.231-.162.378-.416.403-.697.191-2.17,2.115-3.779,4.281-3.592.283.027.557-.076.757-.275,1.54-1.539,4.047-1.541,5.588,0,.2.199.472.299.756.275,2.163-.189,4.09,1.422,4.281,3.592.025.281.172.535.403.698,1.783,1.249,2.219,3.718.97,5.503-.162.231-.212.521-.14.793.563,2.104-.69,4.275-2.794,4.839-.272.073-.498.262-.617.518-.67,1.436-2.1,2.28-3.589,2.28ZM32,27.426c.569,0,1.139.124,1.67.371.475.221,1.043.014,1.266-.461.496-1.062,1.428-1.844,2.559-2.146.507-.136.809-.66.673-1.167-.302-1.131-.091-2.33.58-3.288.301-.431.196-1.026-.234-1.327-.958-.672-1.567-1.726-1.669-2.892-.046-.524-.515-.911-1.032-.867-1.167.104-2.31-.314-3.138-1.142t0,0c-.371-.371-.976-.371-1.347,0-.828.828-1.972,1.248-3.138,1.142-.523-.051-.987.343-1.032.867-.103,1.166-.711,2.219-1.669,2.891-.431.302-.536.897-.234,1.328.671.958.882,2.157.58,3.288-.136.508.166,1.031.673,1.167,1.13.303,2.062,1.085,2.558,2.146.221.475.788.682,1.266.461.53-.247,1.1-.371,1.669-.371Z" fill="#293a4c"/>
      <path d="M32,25.74c-2.582,0-4.682-2.101-4.682-4.682s2.101-4.682,4.682-4.682,4.682,2.101,4.682,4.682-2.101,4.682-4.682,4.682ZM32,19.375c-.928,0-1.682.754-1.682,1.682s.754,1.682,1.682,1.682,1.682-.754,1.682-1.682-.754-1.682-1.682-1.682Z" fill="#293a4c"/>
    </g>
  </g>
  <path d="M38.276,42.458h-13.083c-.829,0-1.5-.671-1.5-1.5s.671-1.5,1.5-1.5h13.083c.829,0,1.5.671,1.5,1.5s-.671,1.5-1.5,1.5Z" fill="#293a4c"/>
</svg>