<?xml version="1.0" encoding="UTF-8"?>
<svg id="c" data-name="LINE" xmlns="http://www.w3.org/2000/svg" width="64" height="64" viewBox="0 0 64 64">
  <path d="M56,60.5H8c-2.481,0-4.5-2.019-4.5-4.5v-28.72c0-2.481,2.019-4.5,4.5-4.5h17.63c.829,0,1.5.672,1.5,1.5s-.671,1.5-1.5,1.5H8c-.827,0-1.5.673-1.5,1.5v28.72c0,.827.673,1.5,1.5,1.5h48c.827,0,1.5-.673,1.5-1.5v-28.72c0-.827-.673-1.5-1.5-1.5h-17.62c-.829,0-1.505-.672-1.505-1.5s.667-1.5,1.495-1.5h17.63c2.481,0,4.5,2.019,4.5,4.5v28.72c0,2.481-2.019,4.5-4.5,4.5Z" fill="#293a4c"/>
  <path d="M34.111,31.386h-4.223c-2.121,0-3.846-1.726-3.846-3.847,0-.5-.156-.874-.427-1.112-2.1-1.842-3.303-4.496-3.303-7.282,0-2.756,1.18-5.39,3.238-7.228,2.056-1.835,4.818-2.71,7.575-2.396,4.428.503,8.003,4.082,8.5,8.51h0c.352,3.141-.78,6.156-3.104,8.274-.21.191-.563.595-.563,1.15,0,2.204-1.726,3.93-3.846,3.93ZM31.993,12.457c-1.647,0-3.202.589-4.444,1.698-1.421,1.269-2.236,3.087-2.236,4.989,0,1.923.832,3.755,2.281,5.026.921.807,1.449,2.004,1.449,3.284,0,.551.379.931.846.931h4.223c.467,0,.846-.38.846-.847,0-1.35.548-2.546,1.543-3.452,1.605-1.462,2.387-3.548,2.143-5.722-.342-3.051-2.805-5.517-5.856-5.863-.267-.03-.532-.045-.794-.045Z" fill="#293a4c"/>
  <g>
    <path d="M18.894,35.479c-.384,0-.768-.146-1.061-.439l-4.17-4.17c-.586-.586-.586-1.535,0-2.121s1.535-.586,2.121,0l4.17,4.17c.586.586.586,1.535,0,2.121-.293.293-.677.439-1.061.439Z" fill="#293a4c"/>
    <path d="M14.724,35.479c-.384,0-.768-.146-1.061-.439-.586-.586-.586-1.535,0-2.121l4.17-4.17c.586-.586,1.535-.586,2.121,0s.586,1.535,0,2.121l-4.17,4.17c-.293.293-.677.439-1.061.439Z" fill="#293a4c"/>
  </g>
  <g>
    <path d="M18.894,54.968c-.384,0-.768-.146-1.061-.439l-4.17-4.17c-.586-.586-.586-1.535,0-2.121s1.535-.586,2.121,0l4.17,4.17c.586.586.586,1.535,0,2.121-.293.293-.677.439-1.061.439Z" fill="#293a4c"/>
    <path d="M14.724,54.968c-.384,0-.768-.146-1.061-.439-.586-.586-.586-1.535,0-2.121l4.17-4.17c.586-.586,1.535-.586,2.121,0s.586,1.535,0,2.121l-4.17,4.17c-.293.293-.677.439-1.061.439Z" fill="#293a4c"/>
  </g>
  <g>
    <path d="M34.085,45.224c-.384,0-.768-.146-1.061-.439l-4.17-4.171c-.586-.586-.586-1.535,0-2.121s1.536-.586,2.121,0l4.17,4.171c.586.586.586,1.535,0,2.121-.293.293-.677.439-1.061.439Z" fill="#293a4c"/>
    <path d="M29.915,45.224c-.384,0-.768-.146-1.061-.439-.586-.586-.586-1.535,0-2.121l4.17-4.171c.585-.586,1.535-.586,2.121,0s.586,1.535,0,2.121l-4.17,4.171c-.292.293-.677.439-1.061.439Z" fill="#293a4c"/>
  </g>
  <g>
    <path d="M49.276,35.479c-.384,0-.768-.146-1.061-.439l-4.17-4.17c-.586-.586-.586-1.535,0-2.121s1.535-.586,2.121,0l4.17,4.17c.586.586.586,1.535,0,2.121-.293.293-.677.439-1.061.439Z" fill="#293a4c"/>
    <path d="M45.106,35.479c-.384,0-.768-.146-1.061-.439-.586-.586-.586-1.535,0-2.121l4.17-4.17c.586-.586,1.535-.586,2.121,0s.586,1.535,0,2.121l-4.17,4.17c-.293.293-.677.439-1.061.439Z" fill="#293a4c"/>
  </g>
  <g>
    <path d="M49.276,54.968c-.384,0-.768-.146-1.061-.439l-4.17-4.17c-.586-.586-.586-1.535,0-2.121s1.535-.586,2.121,0l4.17,4.17c.586.586.586,1.535,0,2.121-.293.293-.677.439-1.061.439Z" fill="#293a4c"/>
    <path d="M45.106,54.968c-.384,0-.768-.146-1.061-.439-.586-.586-.586-1.535,0-2.121l4.17-4.17c.586-.586,1.535-.586,2.121,0s.586,1.535,0,2.121l-4.17,4.17c-.293.293-.677.439-1.061.439Z" fill="#293a4c"/>
  </g>
  <path d="M47.191,45.947c-2.376,0-4.309-1.933-4.309-4.309s1.933-4.309,4.309-4.309,4.309,1.933,4.309,4.309-1.933,4.309-4.309,4.309ZM47.191,40.33c-.722,0-1.309.587-1.309,1.309s.587,1.309,1.309,1.309,1.309-.587,1.309-1.309-.587-1.309-1.309-1.309Z" fill="#293a4c"/>
  <path d="M16.809,45.947c-2.376,0-4.309-1.933-4.309-4.309s1.933-4.309,4.309-4.309,4.309,1.933,4.309,4.309-1.933,4.309-4.309,4.309ZM16.809,40.33c-.722,0-1.309.587-1.309,1.309s.587,1.309,1.309,1.309,1.309-.587,1.309-1.309-.587-1.309-1.309-1.309Z" fill="#293a4c"/>
  <path d="M32,55.691c-2.376,0-4.309-1.933-4.309-4.309s1.933-4.309,4.309-4.309,4.309,1.933,4.309,4.309-1.933,4.309-4.309,4.309ZM32,50.074c-.722,0-1.309.587-1.309,1.309s.587,1.309,1.309,1.309,1.309-.587,1.309-1.309-.587-1.309-1.309-1.309Z" fill="#293a4c"/>
  <path d="M32,7.648c-.829,0-1.5-.672-1.5-1.5v-1.148c0-.828.671-1.5,1.5-1.5s1.5.672,1.5,1.5v1.148c0,.828-.671,1.5-1.5,1.5Z" fill="#293a4c"/>
  <path d="M23.034,11.362c-.384,0-.768-.146-1.061-.439l-.812-.812c-.585-.586-.585-1.536,0-2.121.586-.587,1.536-.585,2.122,0l.812.812c.585.586.585,1.536,0,2.121-.293.293-.677.439-1.061.439Z" fill="#293a4c"/>
  <path d="M19.32,20.328h-1.148c-.829,0-1.5-.672-1.5-1.5s.671-1.5,1.5-1.5h1.148c.829,0,1.5.672,1.5,1.5s-.671,1.5-1.5,1.5Z" fill="#293a4c"/>
  <path d="M40.966,11.362c-.384,0-.768-.146-1.061-.439-.586-.585-.586-1.535,0-2.121l.812-.812c.586-.586,1.536-.586,2.122,0,.586.585.586,1.535,0,2.121l-.812.812c-.293.293-.677.439-1.061.439Z" fill="#293a4c"/>
  <path d="M45.828,20.328h-1.148c-.829,0-1.5-.672-1.5-1.5s.671-1.5,1.5-1.5h1.148c.829,0,1.5.672,1.5,1.5s-.671,1.5-1.5,1.5Z" fill="#293a4c"/>
  <g>
    <path d="M32,31.384c-.829,0-1.5-.672-1.5-1.5v-10.35c0-.828.671-1.5,1.5-1.5s1.5.672,1.5,1.5v10.35c0,.828-.671,1.5-1.5,1.5Z" fill="#293a4c"/>
    <path d="M34.859,21.034h-5.718c-.829,0-1.5-.672-1.5-1.5s.671-1.5,1.5-1.5h5.718c.829,0,1.5.672,1.5,1.5s-.671,1.5-1.5,1.5Z" fill="#293a4c"/>
  </g>
  <path d="M34.146,35.563h-4.291c-1.865,0-3.382-1.517-3.382-3.382v-3.294c0-.828.671-1.5,1.5-1.5s1.5.672,1.5,1.5v3.294c0,.211.171.382.382.382h4.291c.211,0,.382-.171.382-.382v-3.294c0-.828.671-1.5,1.5-1.5s1.5.672,1.5,1.5v3.294c0,1.865-1.517,3.382-3.382,3.382Z" fill="#293a4c"/>
</svg>