<?xml version="1.0" encoding="UTF-8"?>
<svg id="c" data-name="LINE" xmlns="http://www.w3.org/2000/svg" width="64" height="64" viewBox="0 0 64 64">
  <g>
    <g>
      <path d="M56,46.849c-.829,0-1.5-.672-1.5-1.5V12.332c0-.275-.224-.5-.5-.5H10c-.276,0-.5.225-.5.5v33.017c0,.828-.671,1.5-1.5,1.5s-1.5-.672-1.5-1.5V12.332c0-1.93,1.57-3.5,3.5-3.5h44c1.93,0,3.5,1.57,3.5,3.5v33.017c0,.828-.671,1.5-1.5,1.5Z" fill="#293a4c"/>
      <path d="M56.02,55.167H7.98c-2.481,0-4.5-2.019-4.5-4.5v-5.32c0-.828.671-1.5,1.5-1.5h17.33c.679,0,1.272.455,1.449,1.111l.381,1.419h15.76l.381-1.42c.176-.655.771-1.11,1.449-1.11h17.29c.829,0,1.5.672,1.5,1.5v5.32c0,2.481-2.019,4.5-4.5,4.5ZM6.48,46.847v3.82c0,.827.673,1.5,1.5,1.5h48.04c.827,0,1.5-.673,1.5-1.5v-3.82h-14.64l-.381,1.42c-.176.655-.771,1.11-1.449,1.11h-18.06c-.679,0-1.272-.455-1.449-1.111l-.381-1.419H6.48Z" fill="#293a4c"/>
    </g>
    <path d="M56,41.535H8c-.829,0-1.5-.672-1.5-1.5s.671-1.5,1.5-1.5h48c.829,0,1.5.672,1.5,1.5s-.671,1.5-1.5,1.5Z" fill="#293a4c"/>
  </g>
  <g>
    <path d="M44.873,36.588h-25.745c-1.93,0-3.5-1.57-3.5-3.5v-15.809c0-1.93,1.57-3.5,3.5-3.5h25.745c1.93,0,3.5,1.57,3.5,3.5v15.809c0,1.93-1.57,3.5-3.5,3.5ZM19.127,16.779c-.276,0-.5.225-.5.5v15.809c0,.275.224.5.5.5h25.745c.276,0,.5-.225.5-.5v-15.809c0-.275-.224-.5-.5-.5h-25.745Z" fill="#293a4c"/>
    <g>
      <path d="M32,27.62c-.144,0-.287-.021-.426-.062l-10-2.961c-.618-.183-1.049-.739-1.073-1.383s.366-1.23.968-1.459l10-3.784c.342-.129.72-.129,1.062,0l10,3.784c.603.229.992.815.968,1.459s-.456,1.2-1.073,1.383l-10,2.961c-.139.041-.282.062-.426.062ZM26.697,22.985l5.303,1.57,5.303-1.57-5.303-2.007-5.303,2.007Z" fill="#293a4c"/>
      <path d="M32.083,32.489c-1.84,0-3.699-.311-5.564-.933-1.156-.267-1.983-1.22-1.983-2.309v-4.893c0-.828.671-1.5,1.5-1.5s1.5.672,1.5,1.5v4.378c3.077,1.013,6,1.018,8.929.019v-4.396c0-.828.671-1.5,1.5-1.5s1.5.672,1.5,1.5v4.902c0,1.084-.792,2.016-1.94,2.302-1.786.62-3.604.93-5.441.93Z" fill="#293a4c"/>
      <path d="M22,27.464c-.829,0-1.5-.672-1.5-1.5v-2.805c0-.828.671-1.5,1.5-1.5s1.5.672,1.5,1.5v2.805c0,.828-.671,1.5-1.5,1.5Z" fill="#293a4c"/>
    </g>
  </g>
</svg>