<?xml version="1.0" encoding="UTF-8"?>
<svg id="c" data-name="LINE" xmlns="http://www.w3.org/2000/svg" width="64" height="64" viewBox="0 0 64 64">
  <path d="M59,57.5H5c-.828,0-1.5-.671-1.5-1.5V8c0-.829.672-1.5,1.5-1.5h54c.828,0,1.5.671,1.5,1.5v48c0,.829-.672,1.5-1.5,1.5ZM6.5,54.5h51V9.5H6.5v45Z" fill="#293a4c"/>
  <path d="M54,41.181H10c-.828,0-1.5-.671-1.5-1.5V13c0-.829.672-1.5,1.5-1.5h44c.828,0,1.5.671,1.5,1.5v26.681c0,.829-.672,1.5-1.5,1.5ZM11.5,38.181h41V14.5H11.5v23.681Z" fill="#293a4c"/>
  <g>
    <path d="M32.001,27.915c-3.248,0-5.89-2.642-5.89-5.89s2.642-5.89,5.89-5.89,5.89,2.642,5.89,5.89-2.642,5.89-5.89,5.89ZM32.001,19.135c-1.594,0-2.89,1.296-2.89,2.89s1.296,2.89,2.89,2.89,2.89-1.296,2.89-2.89-1.296-2.89-2.89-2.89Z" fill="#293a4c"/>
    <path d="M37.895,36.545h-11.789c-.828,0-1.5-.671-1.5-1.5v-4.205c0-3.269,2.659-5.928,5.929-5.928h2.932c3.27,0,5.929,2.659,5.929,5.928v4.194c0,.829-.672,1.511-1.5,1.511ZM27.605,33.545h8.789v-2.705c0-1.615-1.313-2.928-2.929-2.928h-2.932c-1.615,0-2.929,1.313-2.929,2.928v2.705Z" fill="#293a4c"/>
  </g>
  <path d="M10,52.906c-.258,0-.516-.066-.747-.199-.466-.268-.753-.764-.753-1.301v-7.193c0-.537.287-1.033.753-1.301.467-.267,1.039-.265,1.504.005l6.159,3.597c.46.269.743.762.743,1.295s-.283,1.026-.743,1.295l-6.159,3.597c-.234.136-.495.205-.757.205ZM11.5,46.826v1.968l1.685-.984-1.685-.984Z" fill="#293a4c"/>
  <g>
    <path d="M21.553,52.417c-.828,0-1.5-.671-1.5-1.5v-6.214c0-.829.672-1.5,1.5-1.5s1.5.671,1.5,1.5v6.214c0,.829-.672,1.5-1.5,1.5Z" fill="#293a4c"/>
    <path d="M25.553,52.417c-.828,0-1.5-.671-1.5-1.5v-6.214c0-.829.672-1.5,1.5-1.5s1.5.671,1.5,1.5v6.214c0,.829-.672,1.5-1.5,1.5Z" fill="#293a4c"/>
  </g>
  <path d="M54,49.31h-15.09c-.828,0-1.5-.671-1.5-1.5s.672-1.5,1.5-1.5h15.09c.828,0,1.5.671,1.5,1.5s-.672,1.5-1.5,1.5Z" fill="#293a4c"/>
  <path d="M34.63,49.31h-3.82c-.828,0-1.5-.671-1.5-1.5s.672-1.5,1.5-1.5h3.82c.828,0,1.5.671,1.5,1.5s-.672,1.5-1.5,1.5Z" fill="#293a4c"/>
  <path d="M36.774,52.906c-2.008,0-3.642-1.633-3.642-3.641v-2.912c0-2.007,1.634-3.641,3.642-3.641s3.641,1.633,3.641,3.641v2.912c0,2.008-1.633,3.641-3.641,3.641ZM36.774,45.713c-.354,0-.642.288-.642.641v2.912c0,.354.288.641.642.641s.641-.288.641-.641v-2.912c0-.353-.287-.641-.641-.641Z" fill="#293a4c"/>
</svg>