<?xml version="1.0" encoding="UTF-8"?>
<svg id="c" data-name="LINE" xmlns="http://www.w3.org/2000/svg" width="64" height="64" viewBox="0 0 64 64">
  <g>
    <g>
      <path d="M56,52.18c-.828,0-1.5-.671-1.5-1.5v-20.19c0-.829.672-1.5,1.5-1.5s1.5.671,1.5,1.5v20.19c0,.829-.672,1.5-1.5,1.5Z" fill="#293a4c"/>
      <path d="M8,52.18c-.828,0-1.5-.671-1.5-1.5V17.664c0-1.93,1.57-3.5,3.5-3.5h22c.828,0,1.5.671,1.5,1.5s-.672,1.5-1.5,1.5H10c-.275,0-.5.224-.5.5v33.016c0,.829-.672,1.5-1.5,1.5Z" fill="#293a4c"/>
      <path d="M56.02,60.5H7.98c-2.481,0-4.5-2.019-4.5-4.5v-5.32c0-.829.672-1.5,1.5-1.5h17.329c.679,0,1.272.455,1.448,1.11l.382,1.419h15.761l.382-1.419c.176-.655.77-1.11,1.448-1.11h17.289c.828,0,1.5.671,1.5,1.5v5.32c0,2.481-2.019,4.5-4.5,4.5ZM6.48,52.181v3.82c0,.827.673,1.5,1.5,1.5h48.039c.827,0,1.5-.673,1.5-1.5v-3.82h-14.64l-.382,1.419c-.176.655-.77,1.11-1.448,1.11h-18.06c-.679,0-1.272-.455-1.448-1.11l-.382-1.419H6.48Z" fill="#293a4c"/>
    </g>
    <path d="M56,46.866H8c-.828,0-1.5-.671-1.5-1.5s.672-1.5,1.5-1.5h48c.828,0,1.5.671,1.5,1.5s-.672,1.5-1.5,1.5Z" fill="#293a4c"/>
  </g>
  <g>
    <path d="M21.494,33.314c-3.703,0-6.716-3.013-6.716-6.716s3.013-6.715,6.716-6.715,6.715,3.013,6.715,6.715-3.013,6.716-6.715,6.716ZM21.494,22.883c-2.049,0-3.716,1.667-3.716,3.715s1.667,3.716,3.716,3.716,3.715-1.667,3.715-3.716-1.666-3.715-3.715-3.715Z" fill="#293a4c"/>
    <path d="M28.495,41.174c-.828,0-1.5-.665-1.5-1.494v-2.609c0-2.073-1.688-3.76-3.761-3.76h-3.483c-2.073,0-3.761,1.687-3.761,3.76v2.597c0,.829-.672,1.506-1.5,1.506s-1.5-.665-1.5-1.494v-2.609c0-3.728,3.033-6.76,6.761-6.76h3.483c3.728,0,6.761,3.033,6.761,6.76v2.597c0,.829-.672,1.506-1.5,1.506Z" fill="#293a4c"/>
  </g>
  <path d="M37.47,31.99c-.239,0-.479-.057-.698-.172-.493-.259-.802-.771-.802-1.328v-4.96h-.97c-2.481,0-4.5-2.019-4.5-4.5v-13.03c0-2.481,2.019-4.5,4.5-4.5h21.02c2.481,0,4.5,2.019,4.5,4.5v13.03c0,2.481-2.019,4.5-4.5,4.5h-8.684l-9.017,6.197c-.255.175-.552.264-.85.264ZM35,6.5c-.827,0-1.5.673-1.5,1.5v13.03c0,.827.673,1.5,1.5,1.5h2.47c.828,0,1.5.671,1.5,1.5v3.609l7.051-4.846c.25-.172.546-.264.85-.264h9.149c.827,0,1.5-.673,1.5-1.5v-13.03c0-.827-.673-1.5-1.5-1.5h-21.02Z" fill="#293a4c"/>
  <g>
    <path d="M39.6,16.01c-.1,0-.2-.01-.3-.03-.09-.02-.19-.04-.28-.08s-.18-.09-.26-.14c-.08-.05-.16-.12-.229-.19-.271-.28-.431-.66-.431-1.06,0-.39.16-.78.431-1.06.069-.07.149-.13.229-.19.08-.05.17-.1.26-.13.09-.04.19-.07.28-.09.19-.04.39-.04.59,0,.09.02.19.05.28.09.09.03.18.08.26.13.08.06.16.12.22.19.28.28.44.67.44,1.06,0,.4-.16.78-.44,1.06-.06.07-.14.14-.22.19-.08.05-.17.1-.26.14s-.19.06-.28.08c-.1.02-.2.03-.29.03Z" fill="#293a4c"/>
    <path d="M45.51,16.01c-.1,0-.2-.01-.29-.03-.1-.02-.189-.04-.28-.08-.09-.04-.18-.09-.26-.14-.08-.05-.16-.12-.229-.19-.28-.28-.44-.66-.44-1.06,0-.39.16-.78.44-1.06.069-.07.149-.13.229-.18.08-.06.17-.1.26-.14.091-.04.181-.07.28-.09.49-.1,1,.06,1.35.41.28.28.44.67.44,1.06,0,.1-.01.2-.03.3-.02.09-.05.19-.09.28-.03.09-.08.17-.13.26-.06.08-.12.15-.19.22-.279.28-.67.44-1.06.44Z" fill="#293a4c"/>
    <path d="M51.43,16.01c-.399,0-.79-.16-1.07-.44-.279-.28-.43-.66-.43-1.06,0-.39.15-.78.43-1.06.561-.55,1.57-.56,2.12,0,.28.28.44.67.44,1.06,0,.1-.01.2-.021.3-.02.09-.05.19-.09.28s-.08.17-.14.26c-.05.08-.12.15-.19.22-.27.28-.66.44-1.05.44Z" fill="#293a4c"/>
  </g>
</svg>