<?xml version="1.0" encoding="UTF-8"?>
<svg id="c" data-name="LINE" xmlns="http://www.w3.org/2000/svg" width="64" height="64" viewBox="0 0 64 64">
  <path d="M56,49.691H8c-2.481,0-4.5-2.019-4.5-4.5V11c0-2.481,2.019-4.5,4.5-4.5h48c2.481,0,4.5,2.019,4.5,4.5v34.191c0,2.481-2.019,4.5-4.5,4.5ZM8,9.5c-.827,0-1.5.673-1.5,1.5v34.191c0,.827.673,1.5,1.5,1.5h48c.827,0,1.5-.673,1.5-1.5V11c0-.827-.673-1.5-1.5-1.5H8Z" fill="#293a4c"/>
  <path d="M59,41.798H5c-.829,0-1.5-.671-1.5-1.5s.671-1.5,1.5-1.5h54c.829,0,1.5.671,1.5,1.5s-.671,1.5-1.5,1.5Z" fill="#293a4c"/>
  <g>
    <path d="M34.575,31.351H10.159c-.829,0-1.5-.671-1.5-1.5v-15.852c0-.829.671-1.5,1.5-1.5h24.416c.829,0,1.5.671,1.5,1.5v15.852c0,.829-.671,1.5-1.5,1.5ZM11.659,28.351h21.416v-12.852H11.659v12.852Z" fill="#293a4c"/>
    <path d="M19.479,27.053c-.261,0-.521-.068-.754-.204-.461-.269-.746-.762-.746-1.296v-7.255c0-.534.284-1.028.746-1.296.46-.27,1.03-.272,1.496-.008l6.383,3.627c.469.267.759.765.759,1.304s-.29,1.038-.759,1.304l-6.383,3.627c-.23.13-.486.196-.741.196ZM20.979,20.875v2.1l1.847-1.05-1.847-1.05Z" fill="#293a4c"/>
    <g>
      <path d="M12.197,36.5h-2.038c-.829,0-1.5-.671-1.5-1.5s.671-1.5,1.5-1.5h2.038c.829,0,1.5.671,1.5,1.5s-.671,1.5-1.5,1.5Z" fill="#293a4c"/>
      <path d="M34.574,36.5h-17.424c-.829,0-1.5-.671-1.5-1.5s.671-1.5,1.5-1.5h17.424c.829,0,1.5.671,1.5,1.5s-.671,1.5-1.5,1.5Z" fill="#293a4c"/>
    </g>
  </g>
  <g>
    <path d="M43.989,19.979h-4.479c-.829,0-1.5-.671-1.5-1.5v-4.479c0-.829.671-1.5,1.5-1.5h4.479c.829,0,1.5.671,1.5,1.5v4.479c0,.829-.671,1.5-1.5,1.5ZM41.011,16.979h1.479v-1.479h-1.479v1.479Z" fill="#293a4c"/>
    <path d="M43.989,28.239h-4.479c-.829,0-1.5-.671-1.5-1.5v-4.479c0-.829.671-1.5,1.5-1.5h4.479c.829,0,1.5.671,1.5,1.5v4.479c0,.829-.671,1.5-1.5,1.5ZM41.011,25.239h1.479v-1.479h-1.479v1.479Z" fill="#293a4c"/>
    <path d="M43.989,36.5h-4.479c-.829,0-1.5-.671-1.5-1.5v-4.479c0-.829.671-1.5,1.5-1.5h4.479c.829,0,1.5.671,1.5,1.5v4.479c0,.829-.671,1.5-1.5,1.5ZM41.011,33.5h1.479v-1.479h-1.479v1.479Z" fill="#293a4c"/>
  </g>
  <path d="M53.712,17.739h-5.031c-.829,0-1.5-.671-1.5-1.5s.671-1.5,1.5-1.5h5.031c.829,0,1.5.671,1.5,1.5s-.671,1.5-1.5,1.5Z" fill="#293a4c"/>
  <path d="M53.712,26h-5.031c-.829,0-1.5-.671-1.5-1.5s.671-1.5,1.5-1.5h5.031c.829,0,1.5.671,1.5,1.5s-.671,1.5-1.5,1.5Z" fill="#293a4c"/>
  <path d="M53.712,34.26h-5.031c-.829,0-1.5-.671-1.5-1.5s.671-1.5,1.5-1.5h5.031c.829,0,1.5.671,1.5,1.5s-.671,1.5-1.5,1.5Z" fill="#293a4c"/>
  <path d="M44.276,49.69c-.829,0-1.5-.671-1.5-1.5v-7.892c0-.829.671-1.5,1.5-1.5s1.5.671,1.5,1.5v7.892c0,.829-.671,1.5-1.5,1.5Z" fill="#293a4c"/>
  <path d="M19.724,49.69c-.829,0-1.5-.671-1.5-1.5v-7.892c0-.829.671-1.5,1.5-1.5s1.5.671,1.5,1.5v7.892c0,.829-.671,1.5-1.5,1.5Z" fill="#293a4c"/>
  <g>
    <g>
      <path d="M22.659,57.5c-.203,0-.41-.042-.608-.129-.757-.336-1.098-1.223-.762-1.98l3.468-7.809c.336-.757,1.222-1.1,1.98-.762.757.336,1.098,1.223.762,1.98l-3.468,7.809c-.249.559-.797.892-1.372.892Z" fill="#293a4c"/>
      <path d="M41.341,57.5c-.575,0-1.124-.333-1.372-.892l-3.468-7.809c-.336-.757.005-1.644.762-1.98.758-.338,1.643.005,1.98.762l3.468,7.809c.336.757-.005,1.644-.762,1.98-.198.088-.405.129-.608.129Z" fill="#293a4c"/>
    </g>
    <path d="M43.989,57.5h-23.979c-.829,0-1.5-.671-1.5-1.5s.671-1.5,1.5-1.5h23.979c.829,0,1.5.671,1.5,1.5s-.671,1.5-1.5,1.5Z" fill="#293a4c"/>
  </g>
</svg>