<?xml version="1.0" encoding="UTF-8"?>
<svg id="c" data-name="LINE" xmlns="http://www.w3.org/2000/svg" width="64" height="64" viewBox="0 0 64 64">
  <g>
    <g>
      <g>
        <path d="M41.25,17.16h-11.53c-.829,0-1.5-.671-1.5-1.5s.671-1.5,1.5-1.5h11.53c.828,0,1.5.671,1.5,1.5s-.672,1.5-1.5,1.5Z" fill="#293a4c"/>
        <path d="M56,52.18c-.828,0-1.5-.671-1.5-1.5v-30.03c0-.829.672-1.5,1.5-1.5s1.5.671,1.5,1.5v30.03c0,.829-.672,1.5-1.5,1.5Z" fill="#293a4c"/>
        <path d="M8,52.18c-.829,0-1.5-.671-1.5-1.5v-14.591c0-.829.671-1.5,1.5-1.5s1.5.671,1.5,1.5v14.591c0,.829-.671,1.5-1.5,1.5Z" fill="#293a4c"/>
        <path d="M56.02,60.5H7.98c-2.481,0-4.5-2.019-4.5-4.5v-5.32c0-.829.671-1.5,1.5-1.5h17.33c.679,0,1.272.456,1.449,1.111l.381,1.419h15.76l.382-1.419c.176-.655.77-1.11,1.448-1.11h17.289c.828,0,1.5.671,1.5,1.5v5.32c0,2.481-2.019,4.5-4.5,4.5ZM6.48,52.181v3.82c0,.827.673,1.5,1.5,1.5h48.04c.827,0,1.5-.673,1.5-1.5v-3.82h-14.64l-.382,1.419c-.176.655-.77,1.11-1.448,1.11h-18.06c-.679,0-1.272-.456-1.449-1.111l-.381-1.419H6.48Z" fill="#293a4c"/>
      </g>
      <path d="M56,46.866H8c-.829,0-1.5-.671-1.5-1.5s.671-1.5,1.5-1.5h48c.828,0,1.5.671,1.5,1.5s-.672,1.5-1.5,1.5Z" fill="#293a4c"/>
    </g>
    <path d="M29.724,37.59H5c-.829,0-1.5-.671-1.5-1.5V5c0-.829.671-1.5,1.5-1.5h24.724c.829,0,1.5.671,1.5,1.5v31.09c0,.829-.671,1.5-1.5,1.5ZM6.5,34.59h21.724V6.5H6.5v28.09Z" fill="#293a4c"/>
    <path d="M50.872,40.415h-15.085c-.828,0-1.5-.671-1.5-1.5v-8.891c0-.829.672-1.5,1.5-1.5h15.085c.828,0,1.5.671,1.5,1.5v8.891c0,.829-.672,1.5-1.5,1.5ZM37.287,37.415h12.085v-5.891h-12.085v5.891Z" fill="#293a4c"/>
    <g>
      <path d="M23.919,12.566h-13.115c-.829,0-1.5-.671-1.5-1.5s.671-1.5,1.5-1.5h13.115c.829,0,1.5.671,1.5,1.5s-.671,1.5-1.5,1.5Z" fill="#293a4c"/>
      <path d="M23.919,18.885h-13.115c-.829,0-1.5-.671-1.5-1.5s.671-1.5,1.5-1.5h13.115c.829,0,1.5.671,1.5,1.5s-.671,1.5-1.5,1.5Z" fill="#293a4c"/>
      <path d="M23.919,25.205h-13.115c-.829,0-1.5-.671-1.5-1.5s.671-1.5,1.5-1.5h13.115c.829,0,1.5.671,1.5,1.5s-.671,1.5-1.5,1.5Z" fill="#293a4c"/>
      <path d="M23.919,31.524h-13.115c-.829,0-1.5-.671-1.5-1.5s.671-1.5,1.5-1.5h13.115c.829,0,1.5.671,1.5,1.5s-.671,1.5-1.5,1.5Z" fill="#293a4c"/>
    </g>
  </g>
  <path d="M50.043,24.415c-5.767,0-10.458-4.691-10.458-10.458s4.691-10.458,10.458-10.458,10.457,4.691,10.457,10.458-4.691,10.458-10.457,10.458ZM50.043,6.5c-4.112,0-7.458,3.345-7.458,7.458s3.346,7.458,7.458,7.458,7.457-3.345,7.457-7.458-3.345-7.458-7.457-7.458Z" fill="#293a4c"/>
  <path d="M49.251,17.193c-.384,0-.768-.146-1.061-.439l-1.889-1.889c-.586-.585-.586-1.536,0-2.121.586-.586,1.535-.586,2.121,0l.828.828,2.411-2.411c.586-.586,1.535-.586,2.121,0,.586.585.586,1.536,0,2.121l-3.472,3.472c-.293.293-.677.439-1.061.439Z" fill="#293a4c"/>
</svg>