<?xml version="1.0" encoding="UTF-8"?>
<svg id="c" data-name="LINE" xmlns="http://www.w3.org/2000/svg" width="64" height="64" viewBox="0 0 64 64">
  <g>
    <path d="M50.5,33.18c-.828,0-1.5-.672-1.5-1.5v-3.18c0-9.374-7.626-17-17-17-8.405,0-15.64,6.269-16.829,14.581-.117.82-.872,1.386-1.697,1.273-.82-.118-1.39-.878-1.272-1.697,1.399-9.781,9.91-17.157,19.798-17.157,11.028,0,20,8.972,20,20v3.18c0,.828-.672,1.5-1.5,1.5Z" fill="#293a4c"/>
    <path d="M55.5,36.37c-.828,0-1.5-.672-1.5-1.5v-6.37c0-12.131-9.869-22-22-22S10,16.369,10,28.5v6.37c0,.828-.671,1.5-1.5,1.5s-1.5-.672-1.5-1.5v-6.37C7,14.715,18.215,3.5,32,3.5s25,11.215,25,25v6.37c0,.828-.672,1.5-1.5,1.5Z" fill="#293a4c"/>
  </g>
  <path d="M11.14,47.2h-2.11c-3.049,0-5.53-2.48-5.53-5.53v-2.81c0-2.762,2.065-5.116,4.804-5.478.172-.032.432-.053.726-.053h1.99c.829,0,1.5.672,1.5,1.5s-.671,1.5-1.5,1.5h-1.99c-.09,0-.181.002-.267.017-1.319.176-2.263,1.252-2.263,2.514v2.81c0,1.396,1.135,2.53,2.53,2.53h2.11c.829,0,1.5.672,1.5,1.5s-.671,1.5-1.5,1.5Z" fill="#293a4c"/>
  <path d="M54.97,47.2h-2.109c-.828,0-1.5-.672-1.5-1.5s.672-1.5,1.5-1.5h2.109c1.396,0,2.53-1.135,2.53-2.53v-2.81c0-1.262-.944-2.338-2.196-2.503-.152-.025-.243-.027-.334-.027h-1.989c-.828,0-1.5-.672-1.5-1.5s.672-1.5,1.5-1.5h1.989c.295,0,.555.021.793.063,2.672.351,4.737,2.705,4.737,5.467v2.81c0,3.05-2.48,5.53-5.53,5.53Z" fill="#293a4c"/>
  <path d="M14.718,49.938c-2.877,0-5.218-2.341-5.218-5.218v-9.533c0-2.877,2.341-5.218,5.218-5.218s5.218,2.341,5.218,5.218v9.533c0,2.877-2.341,5.218-5.218,5.218ZM14.718,32.97c-1.223,0-2.218.995-2.218,2.218v9.533c0,1.223.995,2.218,2.218,2.218s2.218-.995,2.218-2.218v-9.533c0-1.223-.995-2.218-2.218-2.218Z" fill="#293a4c"/>
  <g>
    <path d="M23.04,42.98c-.829,0-1.5-.672-1.5-1.5v-18.65c0-2.481,2.019-4.5,4.5-4.5h14.92c.828,0,1.5.672,1.5,1.5v18.96c0,.828-.672,1.5-1.5,1.5s-1.5-.672-1.5-1.5v-17.46h-13.42c-.827,0-1.5.673-1.5,1.5v18.65c0,.828-.671,1.5-1.5,1.5Z" fill="#293a4c"/>
    <path d="M40.957,45.67h-15.223c-2.311,0-4.191-1.88-4.191-4.191s1.88-4.191,4.191-4.191h15.223c.828,0,1.5.672,1.5,1.5v5.383c0,.828-.672,1.5-1.5,1.5ZM25.734,40.287c-.657,0-1.191.534-1.191,1.191s.535,1.191,1.191,1.191h13.723v-2.383h-13.723Z" fill="#293a4c"/>
    <path d="M27.873,40.287c-.829,0-1.5-.672-1.5-1.5v-18.957c0-.828.671-1.5,1.5-1.5s1.5.672,1.5,1.5v18.957c0,.828-.671,1.5-1.5,1.5Z" fill="#293a4c"/>
  </g>
  <path d="M40.641,60.5c-5.592,0-10.141-4.549-10.141-10.141v-6.189c0-.828.671-1.5,1.5-1.5s1.5.672,1.5,1.5v6.189c0,3.938,3.203,7.141,7.141,7.141s7.142-3.203,7.142-7.141v-1.921c0-.828.672-1.5,1.5-1.5s1.5.672,1.5,1.5v1.921c0,5.592-4.55,10.141-10.142,10.141Z" fill="#293a4c"/>
  <path d="M49.282,49.938c-2.878,0-5.219-2.341-5.219-5.218v-9.533c0-2.877,2.341-5.218,5.219-5.218s5.218,2.341,5.218,5.218v9.533c0,2.877-2.341,5.218-5.218,5.218ZM49.282,32.97c-1.224,0-2.219.995-2.219,2.218v9.533c0,1.223.995,2.218,2.219,2.218s2.218-.995,2.218-2.218v-9.533c0-1.223-.995-2.218-2.218-2.218Z" fill="#293a4c"/>
</svg>