<?xml version="1.0" encoding="UTF-8"?>
<svg id="c" data-name="LINE" xmlns="http://www.w3.org/2000/svg" width="64" height="64" viewBox="0 0 64 64">
  <path d="M52.4,60.48H11.6c-1.93,0-3.5-1.57-3.5-3.5V13c0-1.93,1.57-3.5,3.5-3.5h7.61c.828,0,1.5.672,1.5,1.5s-.672,1.5-1.5,1.5h-7.61c-.275,0-.5.225-.5.5v43.98c0,.275.225.5.5.5h40.801c.275,0,.5-.225.5-.5V13c0-.275-.225-.5-.5-.5h-2.125c-.828,0-1.5-.672-1.5-1.5s.672-1.5,1.5-1.5h2.125c1.93,0,3.5,1.57,3.5,3.5v43.98c0,1.93-1.57,3.5-3.5,3.5Z" fill="#293a4c"/>
  <path d="M42.787,16.734h-21.574c-1.93,0-3.5-1.57-3.5-3.5v-2.575c0-1.93,1.57-3.5,3.5-3.5h4.214c.254,0,.427-.244.474-.319,1.328-2.118,3.608-3.383,6.1-3.383s4.771,1.265,6.099,3.382c.048.076.221.32.475.32h4.214c1.93,0,3.5,1.57,3.5,3.5v2.575c0,1.93-1.57,3.5-3.5,3.5ZM21.213,10.159c-.275,0-.5.225-.5.5v2.575c0,.275.225.5.5.5h21.574c.275,0,.5-.225.5-.5v-2.575c0-.275-.225-.5-.5-.5h-4.214c-1.212,0-2.34-.646-3.017-1.728-.775-1.236-2.104-1.975-3.557-1.975s-2.781.738-3.558,1.976c-.676,1.081-1.804,1.727-3.016,1.727h-4.214Z" fill="#293a4c"/>
  <g>
    <g>
      <g>
        <path d="M37.914,23.5h-8.851c-.828,0-1.5-.672-1.5-1.5s.672-1.5,1.5-1.5h8.851c.828,0,1.5.672,1.5,1.5s-.672,1.5-1.5,1.5Z" fill="#293a4c"/>
        <path d="M46.766,28.192h-17.702c-.828,0-1.5-.672-1.5-1.5s.672-1.5,1.5-1.5h17.702c.828,0,1.5.672,1.5,1.5s-.672,1.5-1.5,1.5Z" fill="#293a4c"/>
      </g>
      <path d="M19.021,27.632c-.384,0-.768-.146-1.061-.439l-1.786-1.785c-.586-.585-.586-1.535,0-2.121s1.535-.586,2.121,0l.726.725,2.511-2.511c.586-.586,1.535-.586,2.121,0s.586,1.535,0,2.121l-3.571,3.571c-.293.293-.677.439-1.061.439Z" fill="#293a4c"/>
    </g>
    <g>
      <g>
        <path d="M37.914,36.254h-8.851c-.828,0-1.5-.672-1.5-1.5s.672-1.5,1.5-1.5h8.851c.828,0,1.5.672,1.5,1.5s-.672,1.5-1.5,1.5Z" fill="#293a4c"/>
        <path d="M46.766,40.947h-17.702c-.828,0-1.5-.672-1.5-1.5s.672-1.5,1.5-1.5h17.702c.828,0,1.5.672,1.5,1.5s-.672,1.5-1.5,1.5Z" fill="#293a4c"/>
      </g>
      <path d="M19.021,40.387c-.384,0-.768-.146-1.061-.439l-1.786-1.786c-.586-.586-.586-1.535,0-2.121s1.535-.586,2.121,0l.726.726,2.511-2.511c.586-.586,1.535-.586,2.121,0s.586,1.535,0,2.121l-3.571,3.571c-.293.293-.677.439-1.061.439Z" fill="#293a4c"/>
    </g>
    <g>
      <g>
        <path d="M37.914,49.009h-8.851c-.828,0-1.5-.672-1.5-1.5s.672-1.5,1.5-1.5h8.851c.828,0,1.5.672,1.5,1.5s-.672,1.5-1.5,1.5Z" fill="#293a4c"/>
        <path d="M46.766,53.701h-17.702c-.828,0-1.5-.672-1.5-1.5s.672-1.5,1.5-1.5h17.702c.828,0,1.5.672,1.5,1.5s-.672,1.5-1.5,1.5Z" fill="#293a4c"/>
      </g>
      <path d="M19.021,53.141c-.384,0-.768-.146-1.061-.439l-1.786-1.785c-.586-.585-.586-1.535,0-2.121s1.535-.586,2.121,0l.726.725,2.511-2.511c.586-.586,1.535-.586,2.121,0s.586,1.535,0,2.121l-3.571,3.571c-.293.293-.677.439-1.061.439Z" fill="#293a4c"/>
    </g>
  </g>
  <path d="M32,11.134c-.828,0-1.5-.656-1.5-1.484v-.032c0-.828.672-1.5,1.5-1.5s1.5.672,1.5,1.5-.672,1.517-1.5,1.517Z" fill="#293a4c"/>
</svg>