<?xml version="1.0" encoding="UTF-8"?>
<svg id="c" data-name="LINE" xmlns="http://www.w3.org/2000/svg" width="64" height="64" viewBox="0 0 64 64">
  <g>
    <path d="M47.737,13.708c-.12,0-.239-.014-.356-.043l-11.262-2.755c-.646-.158-1.11-.722-1.142-1.385-.032-.664.377-1.27,1.004-1.488l11.262-3.926c.32-.111.668-.111.988,0l11.262,3.926c.627.219,1.036.824,1.004,1.488-.031.664-.496,1.228-1.142,1.385l-11.262,2.755c-.117.029-.236.043-.356.043ZM41.756,9.2l5.981,1.463,5.981-1.463-5.981-2.085-5.981,2.085Z" fill="#293a4c"/>
    <path d="M47.647,19.832c-2.048,0-4.075-.276-6.068-.83-1.214-.34-2.06-1.464-2.06-2.735v-5.7c0-.829.672-1.5,1.5-1.5s1.5.671,1.5,1.5v5.582c3.427.927,6.842.921,10.431-.016v-5.566c0-.829.672-1.5,1.5-1.5s1.5.671,1.5,1.5v5.69c0,1.294-.865,2.422-2.105,2.742-2.074.555-4.146.833-6.197.833ZM53.082,16.098h-.002s0,0,.002,0Z" fill="#293a4c"/>
    <path d="M59,15.647c-.828,0-1.5-.671-1.5-1.5v-4.69c0-.829.672-1.5,1.5-1.5s1.5.671,1.5,1.5v4.69c0,.829-.672,1.5-1.5,1.5Z" fill="#293a4c"/>
  </g>
  <path d="M34.18,29.557h-5.758c-.828,0-1.5-.671-1.5-1.5s.672-1.5,1.5-1.5h5.758c.828,0,1.5.671,1.5,1.5s-.672,1.5-1.5,1.5Z" fill="#293a4c"/>
  <path d="M32.367,43.157h-11.51c-.828,0-1.5-.671-1.5-1.5s.672-1.5,1.5-1.5h11.51c.828,0,1.5.671,1.5,1.5s-.672,1.5-1.5,1.5Z" fill="#293a4c"/>
  <path d="M39.94,56.757h-11.521c-.828,0-1.5-.671-1.5-1.5s.672-1.5,1.5-1.5h11.521c.828,0,1.5.671,1.5,1.5s-.672,1.5-1.5,1.5Z" fill="#293a4c"/>
  <path d="M58.999,56.757h-12.639c-.828,0-1.5-.671-1.5-1.5s.672-1.5,1.5-1.5h12.639c.828,0,1.5.671,1.5,1.5s-.672,1.5-1.5,1.5Z" fill="#293a4c"/>
  <path d="M22,56.757h-10.2c-2.22,0-4.305-.863-5.87-2.429-1.566-1.566-2.43-3.651-2.43-5.871,0-4.577,3.724-8.3,8.3-8.3h2.627c.828,0,1.5.671,1.5,1.5s-.672,1.5-1.5,1.5h-2.627c-2.922,0-5.3,2.377-5.3,5.3,0,1.418.551,2.75,1.551,3.749,1,1,2.331,1.551,3.749,1.551h10.2c.828,0,1.5.671,1.5,1.5s-.672,1.5-1.5,1.5Z" fill="#293a4c"/>
  <path d="M52.2,43.157h-13.413c-.828,0-1.5-.671-1.5-1.5s.672-1.5,1.5-1.5h13.413c1.418,0,2.749-.551,3.749-1.551s1.551-2.332,1.551-3.75c0-2.922-2.378-5.3-5.3-5.3h-5.84c-.828,0-1.5-.671-1.5-1.5s.672-1.5,1.5-1.5h5.84c4.576,0,8.3,3.723,8.3,8.3,0,2.22-.863,4.305-2.43,5.871s-3.65,2.429-5.87,2.429Z" fill="#293a4c"/>
  <path d="M35.979,15.947h-16.578c-.828,0-1.5-.671-1.5-1.5s.672-1.5,1.5-1.5h16.578c.828,0,1.5.671,1.5,1.5s-.672,1.5-1.5,1.5Z" fill="#293a4c"/>
  <path d="M22,29.557h-10.2c-2.22,0-4.304-.863-5.87-2.43-1.568-1.58-2.43-3.664-2.43-5.871,0-4.582,3.724-8.31,8.3-8.31h1.181c.828,0,1.5.671,1.5,1.5s-.672,1.5-1.5,1.5h-1.181c-2.922,0-5.3,2.382-5.3,5.31,0,1.41.552,2.743,1.555,3.753.996.996,2.327,1.547,3.745,1.547h10.2c.828,0,1.5.671,1.5,1.5s-.672,1.5-1.5,1.5Z" fill="#293a4c"/>
  <g>
    <path d="M43.149,59.973c-2.599,0-4.712-2.114-4.712-4.712s2.113-4.712,4.712-4.712,4.711,2.114,4.711,4.712-2.113,4.712-4.711,4.712ZM43.149,53.549c-.944,0-1.712.768-1.712,1.712s.768,1.712,1.712,1.712,1.711-.768,1.711-1.712-.768-1.712-1.711-1.712Z" fill="#293a4c"/>
    <path d="M25.213,59.973c-2.599,0-4.712-2.114-4.712-4.712s2.113-4.712,4.712-4.712,4.712,2.114,4.712,4.712-2.113,4.712-4.712,4.712ZM25.213,53.549c-.944,0-1.712.768-1.712,1.712s.768,1.712,1.712,1.712,1.712-.768,1.712-1.712-.768-1.712-1.712-1.712Z" fill="#293a4c"/>
  </g>
  <g>
    <path d="M43.149,32.769c-2.599,0-4.712-2.114-4.712-4.712s2.113-4.712,4.712-4.712,4.711,2.114,4.711,4.712-2.113,4.712-4.711,4.712ZM43.149,26.345c-.944,0-1.712.768-1.712,1.712s.768,1.712,1.712,1.712,1.711-.768,1.711-1.712-.768-1.712-1.711-1.712Z" fill="#293a4c"/>
    <path d="M25.213,32.769c-2.599,0-4.712-2.114-4.712-4.712s2.113-4.712,4.712-4.712,4.712,2.114,4.712,4.712-2.113,4.712-4.712,4.712ZM25.213,26.345c-.944,0-1.712.768-1.712,1.712s.768,1.712,1.712,1.712,1.712-.768,1.712-1.712-.768-1.712-1.712-1.712Z" fill="#293a4c"/>
    <path d="M16.191,19.159c-2.599,0-4.712-2.114-4.712-4.711s2.113-4.712,4.712-4.712,4.712,2.114,4.712,4.712-2.113,4.711-4.712,4.711ZM16.191,12.735c-.944,0-1.712.768-1.712,1.712s.768,1.711,1.712,1.711,1.712-.768,1.712-1.711-.768-1.712-1.712-1.712Z" fill="#293a4c"/>
  </g>
  <g>
    <path d="M35.579,46.37c-2.599,0-4.712-2.114-4.712-4.712s2.113-4.711,4.712-4.711,4.712,2.114,4.712,4.711-2.113,4.712-4.712,4.712ZM35.579,39.946c-.944,0-1.712.768-1.712,1.711s.768,1.712,1.712,1.712,1.712-.768,1.712-1.712-.768-1.711-1.712-1.711Z" fill="#293a4c"/>
    <path d="M17.643,46.37c-2.599,0-4.712-2.114-4.712-4.712s2.113-4.711,4.712-4.711,4.712,2.114,4.712,4.711-2.113,4.712-4.712,4.712ZM17.643,39.946c-.944,0-1.712.768-1.712,1.711s.768,1.712,1.712,1.712,1.712-.768,1.712-1.712-.768-1.711-1.712-1.711Z" fill="#293a4c"/>
  </g>
  <path d="M15.894,59.973c-.365,0-.73-.132-1.019-.399l-3.471-3.212c-.307-.284-.481-.683-.481-1.101s.175-.817.481-1.101l3.471-3.212c.606-.562,1.557-.526,2.119.082.563.608.526,1.557-.082,2.12l-2.281,2.111,2.281,2.111c.608.563.646,1.512.082,2.12-.295.319-.697.481-1.101.481Z" fill="#293a4c"/>
  <path d="M15.894,32.767c-.365,0-.73-.132-1.019-.399l-3.471-3.212c-.307-.284-.481-.683-.481-1.101s.175-.817.481-1.101l3.471-3.212c.606-.562,1.557-.526,2.119.082.563.608.526,1.557-.082,2.12l-2.281,2.111,2.281,2.111c.608.563.646,1.512.082,2.12-.295.319-.697.481-1.101.481Z" fill="#293a4c"/>
  <path d="M46.36,46.371c-.403,0-.806-.162-1.101-.481-.563-.608-.526-1.557.082-2.12l2.281-2.111-2.281-2.111c-.608-.562-.646-1.512-.082-2.12.562-.609,1.513-.645,2.119-.083l3.472,3.212c.307.284.481.683.481,1.101s-.175.817-.481,1.101l-3.472,3.212c-.288.267-.654.399-1.019.399Z" fill="#293a4c"/>
  <path d="M26.037,19.159c-.403,0-.806-.162-1.101-.481-.563-.608-.526-1.557.082-2.12l2.28-2.11-2.28-2.111c-.608-.563-.646-1.512-.082-2.12.562-.608,1.513-.644,2.119-.082l3.471,3.212c.307.284.481.683.481,1.101s-.175.817-.481,1.101l-3.471,3.211c-.288.267-.653.399-1.019.399Z" fill="#293a4c"/>
</svg>