<?xml version="1.0" encoding="UTF-8"?>
<svg id="c" data-name="LINE" xmlns="http://www.w3.org/2000/svg" width="64" height="64" viewBox="0 0 64 64">
  <g>
    <g>
      <path d="M56,52.69H8c-2.481,0-4.5-2.019-4.5-4.5V14c0-2.481,2.019-4.5,4.5-4.5h3c.829,0,1.5.672,1.5,1.5s-.671,1.5-1.5,1.5h-3c-.827,0-1.5.673-1.5,1.5v34.19c0,.827.673,1.5,1.5,1.5h48c.827,0,1.5-.673,1.5-1.5V14c0-.827-.673-1.5-1.5-1.5h-3c-.829,0-1.5-.672-1.5-1.5s.671-1.5,1.5-1.5h3c2.481,0,4.5,2.019,4.5,4.5v34.19c0,2.481-2.019,4.5-4.5,4.5Z" fill="#293a4c"/>
      <path d="M59,44.798H5c-.829,0-1.5-.672-1.5-1.5s.671-1.5,1.5-1.5h54c.829,0,1.5.672,1.5,1.5s-.671,1.5-1.5,1.5Z" fill="#293a4c"/>
      <path d="M44.276,52.689c-.829,0-1.5-.672-1.5-1.5v-7.892c0-.828.671-1.5,1.5-1.5s1.5.672,1.5,1.5v7.892c0,.828-.671,1.5-1.5,1.5Z" fill="#293a4c"/>
      <path d="M19.724,52.689c-.829,0-1.5-.672-1.5-1.5v-7.892c0-.828.671-1.5,1.5-1.5s1.5.672,1.5,1.5v7.892c0,.828-.671,1.5-1.5,1.5Z" fill="#293a4c"/>
    </g>
    <g>
      <g>
        <path d="M22.659,60.5c-.203,0-.41-.041-.608-.129-.757-.337-1.098-1.223-.762-1.979l3.468-7.809c.336-.758,1.222-1.101,1.98-.763.757.337,1.098,1.223.762,1.979l-3.468,7.809c-.249.56-.797.892-1.372.892Z" fill="#293a4c"/>
        <path d="M41.341,60.5c-.575,0-1.124-.332-1.372-.892l-3.468-7.809c-.336-.757.005-1.643.762-1.979.758-.338,1.643.005,1.98.763l3.468,7.809c.336.757-.005,1.643-.762,1.979-.198.088-.405.129-.608.129Z" fill="#293a4c"/>
      </g>
      <path d="M43.989,60.5h-23.979c-.829,0-1.5-.672-1.5-1.5s.671-1.5,1.5-1.5h23.979c.829,0,1.5.672,1.5,1.5s-.671,1.5-1.5,1.5Z" fill="#293a4c"/>
    </g>
  </g>
  <path d="M53,38.71H11c-.829,0-1.5-.672-1.5-1.5V14.53c0-.828.671-1.5,1.5-1.5s1.5.672,1.5,1.5v21.18h39v-15.379c0-.828.671-1.5,1.5-1.5s1.5.672,1.5,1.5v16.879c0,.828-.671,1.5-1.5,1.5Z" fill="#293a4c"/>
  <path d="M53,16.03H11c-.829,0-1.5-.672-1.5-1.5v-7.53c0-1.93,1.57-3.5,3.5-3.5h38c1.93,0,3.5,1.57,3.5,3.5v7.53c0,.828-.671,1.5-1.5,1.5ZM12.5,13.03h39v-6.03c0-.271-.229-.5-.5-.5H13c-.271,0-.5.229-.5.5v6.03Z" fill="#293a4c"/>
  <g>
    <g>
      <path d="M16.97,11.27c-.2,0-.39-.04-.57-.12-.19-.069-.35-.18-.49-.319-.28-.29-.44-.66-.44-1.061s.16-.79.44-1.069c.55-.551,1.56-.551,2.12,0,.28.279.44.67.44,1.069s-.16.771-.44,1.061c-.29.279-.66.439-1.06.439Z" fill="#293a4c"/>
      <path d="M22.42,11.27c-.2,0-.39-.04-.57-.12-.18-.069-.35-.18-.49-.319-.28-.29-.44-.66-.44-1.061s.16-.79.44-1.069c.07-.061.15-.131.23-.181.08-.06.17-.1.26-.14.09-.04.18-.07.28-.08.19-.04.39-.04.58,0,.1.01.19.04.28.08s.18.08.26.14c.08.05.16.12.23.181.28.279.44.67.44,1.069s-.16.771-.44,1.061c-.28.279-.66.439-1.06.439Z" fill="#293a4c"/>
      <path d="M27.87,11.27c-.4,0-.77-.16-1.06-.439-.28-.29-.44-.66-.44-1.061s.16-.79.44-1.069c.56-.551,1.57-.551,2.12,0,.28.279.44.67.44,1.069s-.15.771-.44,1.061c-.28.279-.66.439-1.06.439Z" fill="#293a4c"/>
    </g>
    <path d="M47.123,11.266h-12.127c-.829,0-1.5-.672-1.5-1.5s.671-1.5,1.5-1.5h12.127c.829,0,1.5.672,1.5,1.5s-.671,1.5-1.5,1.5Z" fill="#293a4c"/>
  </g>
  <g>
    <g>
      <g>
        <path d="M16.97,21.78c-.2,0-.39-.04-.57-.12-.19-.07-.35-.181-.49-.32-.14-.15-.25-.31-.33-.49-.07-.18-.11-.37-.11-.569,0-.101.01-.2.03-.301.02-.09.05-.189.08-.279.04-.091.09-.181.14-.261.06-.08.12-.159.19-.22.07-.07.14-.14.23-.189.08-.051.16-.101.26-.141.09-.04.18-.07.28-.09.19-.03.39-.04.58,0,.1.02.19.05.28.09.09.04.18.09.26.141.08.05.16.119.23.189.07.061.13.14.19.22.05.08.1.17.13.261.04.09.07.189.09.279.02.101.03.2.03.301,0,.199-.04.39-.11.569-.08.181-.19.34-.33.49-.29.28-.66.44-1.06.44Z" fill="#293a4c"/>
        <path d="M29.004,21.776h-6.575c-.829,0-1.5-.672-1.5-1.5s.671-1.5,1.5-1.5h6.575c.829,0,1.5.672,1.5,1.5s-.671,1.5-1.5,1.5Z" fill="#293a4c"/>
      </g>
      <g>
        <path d="M16.97,27.26c-.4,0-.78-.16-1.06-.45-.29-.279-.44-.649-.44-1.05s.16-.78.44-1.06c.07-.07.14-.141.23-.19.08-.06.16-.1.25-.14.1-.04.19-.07.29-.09.19-.03.39-.03.58,0,.1.02.19.05.28.09.09.04.18.08.26.14.08.05.16.12.23.19.28.279.44.659.44,1.06,0,.19-.04.39-.12.57-.07.18-.18.34-.32.479-.14.15-.31.26-.49.33-.18.08-.37.12-.57.12Z" fill="#293a4c"/>
        <path d="M29.004,27.256h-6.575c-.829,0-1.5-.672-1.5-1.5s.671-1.5,1.5-1.5h6.575c.829,0,1.5.672,1.5,1.5s-.671,1.5-1.5,1.5Z" fill="#293a4c"/>
      </g>
      <g>
        <path d="M16.97,32.74c-.2,0-.39-.04-.58-.12-.18-.07-.34-.181-.48-.33-.29-.28-.44-.65-.44-1.05s.16-.79.44-1.061c.07-.07.14-.14.23-.189.08-.061.16-.101.26-.141.09-.04.18-.069.28-.09.19-.03.39-.03.58,0,.1.021.19.05.28.09.09.04.18.08.26.141.08.05.16.119.23.189.28.271.44.66.44,1.061s-.16.77-.44,1.05c-.14.149-.31.26-.49.33-.18.08-.37.12-.57.12Z" fill="#293a4c"/>
        <path d="M29.004,32.735h-6.575c-.829,0-1.5-.672-1.5-1.5s.671-1.5,1.5-1.5h6.575c.829,0,1.5.672,1.5,1.5s-.671,1.5-1.5,1.5Z" fill="#293a4c"/>
      </g>
    </g>
    <g>
      <g>
        <path d="M35,21.78c-.2,0-.4-.04-.58-.12-.18-.07-.34-.181-.48-.32-.15-.15-.26-.31-.33-.49-.08-.18-.11-.37-.11-.569,0-.101.01-.2.03-.301.01-.09.04-.189.08-.279.04-.091.08-.181.14-.261.05-.08.12-.159.19-.22.06-.07.14-.14.22-.189.09-.051.17-.101.26-.141.09-.04.19-.07.28-.09.49-.09,1,.07,1.36.42.07.061.13.14.18.22.06.08.1.17.14.261.04.09.07.189.09.279.02.101.03.2.03.301,0,.199-.04.39-.12.569-.07.181-.18.34-.32.49-.29.28-.66.44-1.06.44Z" fill="#293a4c"/>
        <path d="M47.031,21.776h-6.574c-.829,0-1.5-.672-1.5-1.5s.671-1.5,1.5-1.5h6.574c.829,0,1.5.672,1.5,1.5s-.671,1.5-1.5,1.5Z" fill="#293a4c"/>
      </g>
      <g>
        <path d="M35,27.26c-.41,0-.78-.16-1.06-.45-.29-.279-.44-.649-.44-1.05s.16-.79.44-1.06c.06-.07.14-.141.22-.19.09-.06.17-.1.26-.14.09-.04.19-.07.28-.09.2-.03.4-.03.59,0,.1.02.19.05.28.09s.18.08.26.14c.08.05.16.12.23.19.28.27.44.659.44,1.06,0,.19-.04.39-.12.57-.07.18-.18.34-.32.479-.14.15-.31.26-.49.33-.18.08-.37.12-.57.12Z" fill="#293a4c"/>
        <path d="M47.031,27.256h-6.574c-.829,0-1.5-.672-1.5-1.5s.671-1.5,1.5-1.5h6.574c.829,0,1.5.672,1.5,1.5s-.671,1.5-1.5,1.5Z" fill="#293a4c"/>
      </g>
      <g>
        <path d="M35,32.74c-.4,0-.78-.16-1.06-.45-.29-.28-.44-.65-.44-1.05,0-.101.01-.2.03-.301.02-.09.04-.189.08-.279.04-.091.08-.181.14-.261.05-.08.12-.159.19-.22.06-.07.14-.14.22-.189.08-.061.17-.101.26-.141.09-.04.19-.069.28-.09.2-.03.4-.03.59,0,.1.021.19.05.28.09s.18.08.26.141c.08.05.16.119.23.189.28.271.44.66.44,1.061s-.16.77-.44,1.05c-.14.149-.31.26-.49.33-.18.08-.37.12-.57.12Z" fill="#293a4c"/>
        <path d="M47.031,32.735h-6.574c-.829,0-1.5-.672-1.5-1.5s.671-1.5,1.5-1.5h6.574c.829,0,1.5.672,1.5,1.5s-.671,1.5-1.5,1.5Z" fill="#293a4c"/>
      </g>
    </g>
  </g>
</svg>