<?xml version="1.0" encoding="UTF-8"?>
<svg id="c" data-name="LINE" xmlns="http://www.w3.org/2000/svg" width="64" height="64" viewBox="0 0 64 64">
  <g>
    <g>
      <path d="M56,52.69H8c-2.481,0-4.5-2.019-4.5-4.5V14c0-2.481,2.019-4.5,4.5-4.5h3c.829,0,1.5.672,1.5,1.5s-.671,1.5-1.5,1.5h-3c-.827,0-1.5.673-1.5,1.5v34.19c0,.827.673,1.5,1.5,1.5h48c.827,0,1.5-.673,1.5-1.5V14c0-.827-.673-1.5-1.5-1.5h-3c-.829,0-1.5-.672-1.5-1.5s.671-1.5,1.5-1.5h3c2.481,0,4.5,2.019,4.5,4.5v34.19c0,2.481-2.019,4.5-4.5,4.5Z" fill="#293a4c"/>
      <path d="M59,44.798H5c-.829,0-1.5-.672-1.5-1.5s.671-1.5,1.5-1.5h54c.829,0,1.5.672,1.5,1.5s-.671,1.5-1.5,1.5Z" fill="#293a4c"/>
      <path d="M44.276,52.689c-.829,0-1.5-.672-1.5-1.5v-7.892c0-.828.671-1.5,1.5-1.5s1.5.672,1.5,1.5v7.892c0,.828-.671,1.5-1.5,1.5Z" fill="#293a4c"/>
      <path d="M19.724,52.689c-.829,0-1.5-.672-1.5-1.5v-7.892c0-.828.671-1.5,1.5-1.5s1.5.672,1.5,1.5v7.892c0,.828-.671,1.5-1.5,1.5Z" fill="#293a4c"/>
    </g>
    <g>
      <g>
        <path d="M22.659,60.5c-.203,0-.41-.041-.608-.129-.757-.337-1.098-1.223-.762-1.979l3.468-7.809c.336-.758,1.22-1.101,1.98-.763.757.337,1.098,1.223.762,1.979l-3.468,7.809c-.249.56-.797.892-1.372.892Z" fill="#293a4c"/>
        <path d="M41.341,60.5c-.575,0-1.124-.332-1.372-.892l-3.468-7.809c-.336-.757.005-1.643.762-1.979.756-.338,1.644.005,1.98.763l3.468,7.809c.336.757-.005,1.643-.762,1.979-.198.088-.405.129-.608.129Z" fill="#293a4c"/>
      </g>
      <path d="M43.989,60.5h-23.979c-.829,0-1.5-.672-1.5-1.5s.671-1.5,1.5-1.5h23.979c.829,0,1.5.672,1.5,1.5s-.671,1.5-1.5,1.5Z" fill="#293a4c"/>
    </g>
  </g>
  <path d="M53,38.71H11c-.829,0-1.5-.672-1.5-1.5V14.53c0-.828.671-1.5,1.5-1.5s1.5.672,1.5,1.5v21.18h39v-15.739c0-.828.671-1.5,1.5-1.5s1.5.672,1.5,1.5v17.239c0,.828-.671,1.5-1.5,1.5Z" fill="#293a4c"/>
  <path d="M53,16.03H11c-.829,0-1.5-.672-1.5-1.5v-7.53c0-1.93,1.57-3.5,3.5-3.5h38c1.93,0,3.5,1.57,3.5,3.5v7.53c0,.828-.671,1.5-1.5,1.5ZM12.5,13.03h39v-6.03c0-.271-.229-.5-.5-.5H13c-.271,0-.5.229-.5.5v6.03Z" fill="#293a4c"/>
  <g>
    <g>
      <path d="M26.048,33.094h-7.707c-1.857,0-3.368-1.511-3.368-3.368v-7.706c0-1.857,1.511-3.368,3.368-3.368h3.256c.829,0,1.5.672,1.5,1.5s-.671,1.5-1.5,1.5h-3.256c-.203,0-.368.165-.368.368v7.706c0,.203.165.368.368.368h7.707c.203,0,.368-.165.368-.368v-3.149c0-.828.671-1.5,1.5-1.5s1.5.672,1.5,1.5v3.149c0,1.857-1.511,3.368-3.368,3.368Z" fill="#293a4c"/>
      <path d="M22.204,28.076c-.384,0-.768-.146-1.061-.439l-1.82-1.82c-.586-.586-.586-1.535,0-2.121s1.535-.586,2.121,0l.76.76,2.108-2.107c.586-.586,1.536-.586,2.121,0,.586.586.586,1.535,0,2.121l-3.168,3.168c-.293.293-.677.439-1.061.439Z" fill="#293a4c"/>
    </g>
    <g>
      <path d="M47.527,24.59h-13.819c-.829,0-1.5-.672-1.5-1.5s.671-1.5,1.5-1.5h13.819c.829,0,1.5.672,1.5,1.5s-.671,1.5-1.5,1.5Z" fill="#293a4c"/>
      <path d="M47.527,30.155h-13.819c-.829,0-1.5-.672-1.5-1.5s.671-1.5,1.5-1.5h13.819c.829,0,1.5.672,1.5,1.5s-.671,1.5-1.5,1.5Z" fill="#293a4c"/>
    </g>
  </g>
  <g>
    <g>
      <path d="M16.97,11.27c-.4,0-.78-.16-1.06-.439-.28-.29-.44-.66-.44-1.061s.16-.79.44-1.069c.56-.551,1.56-.551,2.12,0,.28.279.44.67.44,1.069,0,.19-.04.391-.11.57-.08.18-.19.35-.33.49-.28.279-.66.439-1.06.439Z" fill="#293a4c"/>
      <path d="M22.42,11.27c-.4,0-.78-.16-1.06-.439-.28-.29-.44-.66-.44-1.061s.16-.79.44-1.069c.56-.551,1.56-.551,2.12,0,.28.279.44.67.44,1.069,0,.19-.04.391-.11.57-.08.18-.19.35-.33.49-.28.279-.66.439-1.06.439Z" fill="#293a4c"/>
      <path d="M27.87,11.27c-.2,0-.39-.04-.57-.12-.18-.069-.35-.18-.49-.319-.28-.29-.44-.66-.44-1.061s.16-.79.44-1.069c.56-.551,1.57-.551,2.12,0,.28.279.44.67.44,1.069s-.15.771-.44,1.061c-.28.279-.66.439-1.06.439Z" fill="#293a4c"/>
    </g>
    <path d="M47.123,11.266h-12.127c-.829,0-1.5-.672-1.5-1.5s.671-1.5,1.5-1.5h12.127c.829,0,1.5.672,1.5,1.5s-.671,1.5-1.5,1.5Z" fill="#293a4c"/>
  </g>
</svg>