<?xml version="1.0" encoding="UTF-8"?>
<svg id="c" data-name="LINE" xmlns="http://www.w3.org/2000/svg" width="64" height="64" viewBox="0 0 64 64">
  <path d="M55.95,50.596h-3.715c-.828,0-1.5-.672-1.5-1.5s.672-1.5,1.5-1.5h3.715c.408,0,.789-.159,1.073-.448.282-.288.435-.67.427-1.074l-.51-28.146c-.015-.814-.688-1.478-1.5-1.478h-27.82c-1.776,0-3.39-1.049-4.111-2.671l-2.831-6.392c-.242-.534-.786-.888-1.378-.888h-11.3c-.827,0-1.5.673-1.5,1.5v38.096c0,.827.673,1.5,1.5,1.5h9.13c.829,0,1.5.672,1.5,1.5s-.671,1.5-1.5,1.5h-9.13c-2.481,0-4.5-2.019-4.5-4.5V8c0-2.481,2.019-4.5,4.5-4.5h11.3c1.768,0,3.383,1.045,4.116,2.661l2.835,6.401c.239.538.777.888,1.369.888h27.82c2.436,0,4.454,1.983,4.5,4.422l.51,28.146c.021,1.217-.435,2.364-1.286,3.23-.853.868-1.994,1.347-3.214,1.347Z" fill="#293a4c"/>
  <g>
    <path d="M44.872,60.5h-25.745c-1.93,0-3.5-1.57-3.5-3.5v-15.809c0-1.93,1.57-3.5,3.5-3.5h25.745c1.93,0,3.5,1.57,3.5,3.5v15.809c0,1.93-1.57,3.5-3.5,3.5ZM19.127,40.691c-.276,0-.5.225-.5.5v15.809c0,.275.224.5.5.5h25.745c.275,0,.5-.225.5-.5v-15.809c0-.275-.225-.5-.5-.5h-25.745Z" fill="#293a4c"/>
    <g>
      <path d="M32,51.532c-.144,0-.287-.021-.426-.062l-10-2.962c-.618-.184-1.049-.739-1.073-1.383s.366-1.23.968-1.459l10-3.783c.342-.129.72-.129,1.062,0l10,3.783c.602.229.991.815.968,1.459s-.456,1.199-1.073,1.383l-10,2.962c-.139.041-.282.062-.426.062ZM26.697,46.897l5.303,1.57,5.303-1.57-5.303-2.007-5.303,2.007Z" fill="#293a4c"/>
      <path d="M32.082,56.401c-1.84,0-3.698-.311-5.563-.933-1.156-.267-1.983-1.22-1.983-2.309v-4.893c0-.828.671-1.5,1.5-1.5s1.5.672,1.5,1.5v4.378c3.075,1.011,5.998,1.016,8.928.019v-4.396c0-.828.672-1.5,1.5-1.5s1.5.672,1.5,1.5v4.902c0,1.084-.792,2.017-1.94,2.303-1.786.619-3.604.929-5.441.929Z" fill="#293a4c"/>
      <path d="M22,51.375c-.829,0-1.5-.672-1.5-1.5v-2.805c0-.828.671-1.5,1.5-1.5s1.5.672,1.5,1.5v2.805c0,.828-.671,1.5-1.5,1.5Z" fill="#293a4c"/>
    </g>
  </g>
  <path d="M56,16.453c-.828,0-1.5-.672-1.5-1.5v-4.906c0-.827-.673-1.5-1.5-1.5h-30.837c-.829,0-1.5-.672-1.5-1.5s.671-1.5,1.5-1.5h30.837c2.481,0,4.5,2.019,4.5,4.5v4.906c0,.828-.672,1.5-1.5,1.5Z" fill="#293a4c"/>
  <g>
    <path d="M32.83,25.437h-15.063c-.829,0-1.5-.672-1.5-1.5s.671-1.5,1.5-1.5h15.063c.829,0,1.5.672,1.5,1.5s-.672,1.5-1.5,1.5Z" fill="#293a4c"/>
    <path d="M46.872,33.181h-29.106c-.829,0-1.5-.672-1.5-1.5s.671-1.5,1.5-1.5h29.106c.828,0,1.5.672,1.5,1.5s-.672,1.5-1.5,1.5Z" fill="#293a4c"/>
  </g>
</svg>