<?xml version="1.0" encoding="UTF-8"?>
<svg id="c" data-name="LINE" xmlns="http://www.w3.org/2000/svg" width="64" height="64" viewBox="0 0 64 64">
  <path d="M56,57.5H8c-2.481,0-4.5-2.019-4.5-4.5v-26.778c0-.829.671-1.5,1.5-1.5s1.5.671,1.5,1.5v26.778c0,.827.673,1.5,1.5,1.5h48c.827,0,1.5-.673,1.5-1.5V19.77c0-.829.672-1.5,1.5-1.5s1.5.671,1.5,1.5v33.23c0,2.481-2.019,4.5-4.5,4.5Z" fill="#293a4c"/>
  <path d="M59,21.27H5c-.829,0-1.5-.671-1.5-1.5v-8.77c0-2.481,2.019-4.5,4.5-4.5h48c2.481,0,4.5,2.019,4.5,4.5v8.77c0,.829-.672,1.5-1.5,1.5ZM6.5,18.27h51v-7.27c0-.827-.673-1.5-1.5-1.5H8c-.827,0-1.5.673-1.5,1.5v7.27Z" fill="#293a4c"/>
  <g>
    <g>
      <path d="M11.14,15.38c-.1,0-.2-.01-.29-.03-.1-.02-.19-.04-.29-.08-.09-.04-.17-.09-.25-.14-.09-.06-.16-.12-.23-.19-.28-.28-.44-.66-.44-1.06,0-.39.16-.78.44-1.06.56-.56,1.56-.56,2.12,0,.28.28.44.67.44,1.06,0,.4-.16.78-.44,1.06s-.67.44-1.06.44Z" fill="#293a4c"/>
      <path d="M16.5,15.38c-.1,0-.2-.01-.29-.03-.1-.02-.19-.04-.28-.08-.09-.04-.18-.09-.26-.14-.08-.05-.16-.12-.23-.19-.28-.28-.44-.66-.44-1.06,0-.09.01-.19.03-.29s.05-.19.09-.28c.03-.09.08-.18.13-.26.06-.08.12-.16.19-.23.07-.07.15-.13.23-.18.08-.06.17-.1.26-.14.09-.04.18-.07.28-.09.48-.1,1,.06,1.35.41.28.28.44.67.44,1.06,0,.4-.16.78-.44,1.06-.28.28-.66.44-1.06.44Z" fill="#293a4c"/>
      <path d="M21.86,15.38c-.39,0-.78-.16-1.06-.44-.28-.28-.44-.66-.44-1.06,0-.39.16-.78.44-1.06.56-.56,1.56-.56,2.12,0,.28.28.44.67.44,1.06,0,.4-.16.78-.44,1.06-.28.28-.66.44-1.06.44Z" fill="#293a4c"/>
    </g>
    <path d="M52.861,15.383h-21c-.829,0-1.5-.671-1.5-1.5s.671-1.5,1.5-1.5h21c.828,0,1.5.671,1.5,1.5s-.672,1.5-1.5,1.5Z" fill="#293a4c"/>
  </g>
  <g>
    <g>
      <path d="M16.299,39.458c-3.248,0-5.89-2.642-5.89-5.89s2.642-5.89,5.89-5.89,5.89,2.642,5.89,5.89-2.642,5.89-5.89,5.89ZM16.299,30.678c-1.594,0-2.89,1.296-2.89,2.89s1.296,2.89,2.89,2.89,2.89-1.296,2.89-2.89-1.296-2.89-2.89-2.89Z" fill="#293a4c"/>
      <path d="M22.192,48.088h-11.788c-.829,0-1.5-.671-1.5-1.5v-4.205c0-3.269,2.659-5.928,5.928-5.928h2.933c3.269,0,5.928,2.659,5.928,5.928v4.194c0,.829-.671,1.511-1.5,1.511ZM11.904,45.088h8.788v-2.705c0-1.614-1.313-2.928-2.928-2.928h-2.933c-1.614,0-2.928,1.313-2.928,2.928v2.705Z" fill="#293a4c"/>
    </g>
    <g>
      <g>
        <path d="M53.053,53.022h-26.364c-.829,0-1.5-.671-1.5-1.5s.671-1.5,1.5-1.5h26.364c.828,0,1.5.671,1.5,1.5s-.672,1.5-1.5,1.5Z" fill="#293a4c"/>
        <path d="M42.383,53.022c-.828,0-1.5-.671-1.5-1.5v-6.818h-2.024v6.818c0,.829-.672,1.5-1.5,1.5s-1.5-.671-1.5-1.5v-8.318c0-.829.672-1.5,1.5-1.5h5.024c.828,0,1.5.671,1.5,1.5v8.318c0,.829-.672,1.5-1.5,1.5Z" fill="#293a4c"/>
        <path d="M51.329,53.022c-.828,0-1.5-.671-1.5-1.5v-9.733h-2.024v9.733c0,.829-.672,1.5-1.5,1.5s-1.5-.671-1.5-1.5v-11.233c0-.829.672-1.5,1.5-1.5h5.024c.828,0,1.5.671,1.5,1.5v11.233c0,.829-.672,1.5-1.5,1.5Z" fill="#293a4c"/>
        <path d="M33.437,53.022c-.829,0-1.5-.671-1.5-1.5v-4.51h-2.025v4.51c0,.829-.671,1.5-1.5,1.5s-1.5-.671-1.5-1.5v-6.01c0-.829.671-1.5,1.5-1.5h5.025c.828,0,1.5.671,1.5,1.5v6.01c0,.829-.672,1.5-1.5,1.5Z" fill="#293a4c"/>
      </g>
      <g>
        <path d="M43.611,35.467c-.392,0-.784-.153-1.078-.457-.576-.595-.561-1.545.035-2.121l6.155-5.955c.594-.576,1.545-.562,2.121.035.576.595.561,1.545-.035,2.121l-6.155,5.955c-.291.282-.667.422-1.043.422Z" fill="#293a4c"/>
        <path d="M40.664,35.587c-.384,0-.768-.146-1.061-.439l-2.967-2.967c-.586-.586-.586-1.536,0-2.121.586-.586,1.535-.586,2.121,0l2.967,2.967c.586.586.586,1.536,0,2.121-.293.293-.677.439-1.061.439Z" fill="#293a4c"/>
        <path d="M30.412,36.806c-.385,0-.769-.147-1.062-.441-.585-.586-.584-1.536.003-2.121l4.129-4.119c.274-.301.669-.49,1.107-.49.828,0,1.5.667,1.5,1.495v.01c0,.398-.158.781-.44,1.062l-4.178,4.166c-.292.292-.676.438-1.059.438Z" fill="#293a4c"/>
        <path d="M28.872,40.534c-2.031,0-3.683-1.652-3.683-3.683s1.652-3.683,3.683-3.683,3.683,1.652,3.683,3.683-1.652,3.683-3.683,3.683ZM28.872,36.168c-.376,0-.683.307-.683.683s.307.683.683.683.683-.306.683-.683-.306-.683-.683-.683Z" fill="#293a4c"/>
        <path d="M36.138,33.28c-2.03,0-3.683-1.652-3.683-3.683s1.652-3.683,3.683-3.683,3.683,1.652,3.683,3.683-1.652,3.683-3.683,3.683ZM36.138,28.914c-.376,0-.683.306-.683.683s.307.683.683.683.683-.307.683-.683-.307-.683-.683-.683Z" fill="#293a4c"/>
        <path d="M42.201,39.312c-2.03,0-3.683-1.652-3.683-3.683s1.652-3.683,3.683-3.683,3.684,1.652,3.684,3.683-1.652,3.683-3.684,3.683ZM42.201,34.947c-.376,0-.683.306-.683.683s.307.683.683.683.684-.307.684-.683-.307-.683-.684-.683Z" fill="#293a4c"/>
        <path d="M51.332,30.182c-2.03,0-3.683-1.652-3.683-3.683s1.652-3.683,3.683-3.683,3.684,1.652,3.684,3.683-1.652,3.683-3.684,3.683ZM51.332,25.816c-.376,0-.683.306-.683.683s.307.683.683.683.684-.307.684-.683-.307-.683-.684-.683Z" fill="#293a4c"/>
      </g>
    </g>
  </g>
</svg>