<?xml version="1.0" encoding="UTF-8"?>
<svg id="c" data-name="SOLID" xmlns="http://www.w3.org/2000/svg" width="64" height="64" viewBox="0 0 64 64">
  <path d="M8,55.373c-.828,0-1.5-.671-1.5-1.5V7c0-1.93,1.57-3.5,3.5-3.5h4.766c.828,0,1.5.671,1.5,1.5s-.672,1.5-1.5,1.5h-4.766c-.275,0-.5.224-.5.5v46.873c0,.829-.672,1.5-1.5,1.5Z" fill="#293a4c"/>
  <path d="M56,50.245c-.828,0-1.5-.671-1.5-1.5V7c0-.276-.225-.5-.5-.5h-19.296c-.828,0-1.5-.671-1.5-1.5s.672-1.5,1.5-1.5h19.296c1.93,0,3.5,1.57,3.5,3.5v41.745c0,.829-.672,1.5-1.5,1.5Z" fill="#293a4c"/>
  <path d="M56,60.5H13.128c-3.654,0-6.628-2.973-6.628-6.627s2.974-6.628,6.628-6.628h42.872c.537,0,1.034.288,1.301.754.268.466.266,1.04-.006,1.503l-2.557,4.37,2.557,4.371c.271.464.273,1.038.006,1.503-.267.466-.764.754-1.301.754ZM13.128,50.245c-2,0-3.628,1.627-3.628,3.628s1.628,3.627,3.628,3.627h40.257l-1.68-2.871c-.273-.468-.273-1.047,0-1.515l1.68-2.87H13.128Z" fill="#293a4c"/>
  <path d="M28.957,3.5h-14.191c-.828,0-1.5.671-1.5,1.5v27.276c0,.546.296,1.048.773,1.312.478.263,1.061.248,1.523-.042l6.299-3.95,6.299,3.95c.243.152.52.229.797.229.25,0,.5-.062.727-.188.478-.264.773-.767.773-1.312V5c0-.829-.672-1.5-1.5-1.5Z" fill="#293a4c"/>
  <path d="M48.617,50.245c-.828,0-1.5-.671-1.5-1.5V5c0-.829.672-1.5,1.5-1.5s1.5.671,1.5,1.5v43.745c0,.829-.672,1.5-1.5,1.5Z" fill="#293a4c"/>
  <g>
    <path d="M48.617,14.032h-8.106c-.828,0-1.5-.671-1.5-1.5s.672-1.5,1.5-1.5h8.106c.828,0,1.5.671,1.5,1.5s-.672,1.5-1.5,1.5Z" fill="#293a4c"/>
    <path d="M48.617,21.202h-8.106c-.828,0-1.5-.671-1.5-1.5s.672-1.5,1.5-1.5h8.106c.828,0,1.5.671,1.5,1.5s-.672,1.5-1.5,1.5Z" fill="#293a4c"/>
    <path d="M48.617,28.373h-8.106c-.828,0-1.5-.671-1.5-1.5s.672-1.5,1.5-1.5h8.106c.828,0,1.5.671,1.5,1.5s-.672,1.5-1.5,1.5Z" fill="#293a4c"/>
    <path d="M48.617,35.542h-8.106c-.828,0-1.5-.671-1.5-1.5s.672-1.5,1.5-1.5h8.106c.828,0,1.5.671,1.5,1.5s-.672,1.5-1.5,1.5Z" fill="#293a4c"/>
    <path d="M48.617,42.713h-8.106c-.828,0-1.5-.671-1.5-1.5s.672-1.5,1.5-1.5h8.106c.828,0,1.5.671,1.5,1.5s-.672,1.5-1.5,1.5Z" fill="#293a4c"/>
  </g>
  <path d="M53,55.372H15.213c-.828,0-1.5-.671-1.5-1.5s.672-1.5,1.5-1.5h37.787c.828,0,1.5.671,1.5,1.5s-.672,1.5-1.5,1.5Z" fill="#293a4c"/>
</svg>