<?xml version="1.0" encoding="UTF-8"?>
<svg id="c" data-name="SOLID" xmlns="http://www.w3.org/2000/svg" width="64" height="64" viewBox="0 0 64 64">
  <g>
    <path d="M32,19.203c-4.33,0-7.852-3.522-7.852-7.852s3.522-7.852,7.852-7.852,7.852,3.522,7.852,7.852-3.522,7.852-7.852,7.852ZM32,6.5c-2.675,0-4.852,2.177-4.852,4.852s2.176,4.852,4.852,4.852,4.852-2.177,4.852-4.852-2.176-4.852-4.852-4.852Z" fill="#293a4c"/>
    <path d="M34.099,39.87c-.653,0-1.254-.43-1.442-1.089-.227-.797.235-1.627,1.032-1.854,2.656-.757,4.511-3.211,4.511-5.968,0-3.419-2.781-6.2-6.2-6.2s-6.2,2.781-6.2,6.2c0,2.722,1.816,5.16,4.417,5.932.794.236,1.247,1.071,1.011,1.865-.235.793-1.067,1.247-1.865,1.012-3.864-1.146-6.563-4.769-6.563-8.809,0-5.073,4.127-9.2,9.2-9.2s9.2,4.127,9.2,9.2c0,4.091-2.75,7.731-6.689,8.853-.137.039-.275.058-.412.058Z" fill="#293a4c"/>
    <path d="M12.553,45.606c-3.338,0-6.053-2.716-6.053-6.054s2.715-6.053,6.053-6.053,6.053,2.715,6.053,6.053-2.715,6.054-6.053,6.054ZM12.553,36.5c-1.684,0-3.053,1.369-3.053,3.053s1.37,3.054,3.053,3.054,3.053-1.37,3.053-3.054-1.37-3.053-3.053-3.053Z" fill="#293a4c"/>
    <path d="M16.721,39.21c-.576,0-1.125-.333-1.373-.894-.335-.758.008-1.644.766-1.979l8.24-3.64c.757-.334,1.644.009,1.978.766.335.758-.008,1.644-.766,1.979l-8.24,3.64c-.197.087-.403.128-.605.128Z" fill="#293a4c"/>
    <path d="M25.398,28.5c-.263,0-.53-.069-.772-.215l-8.71-5.24c-.709-.427-.939-1.349-.512-2.059.428-.71,1.348-.938,2.059-.512l8.71,5.24c.709.427.939,1.349.512,2.059-.281.468-.778.727-1.287.727Z" fill="#293a4c"/>
    <path d="M32,24.76c-.829,0-1.5-.672-1.5-1.5v-5.56c0-.828.671-1.5,1.5-1.5s1.5.672,1.5,1.5v5.56c0,.828-.671,1.5-1.5,1.5Z" fill="#293a4c"/>
    <path d="M38.521,28.38c-.5,0-.989-.25-1.274-.706-.438-.702-.225-1.628.478-2.066l7.816-4.88c.704-.438,1.628-.224,2.067.479s.225,1.628-.478,2.066l-7.816,4.88c-.247.154-.522.228-.793.228Z" fill="#293a4c"/>
    <path d="M52.933,13.312c-2.518,0-4.567,2.049-4.567,4.567s2.049,4.567,4.567,4.567,4.567-2.049,4.567-4.567-2.049-4.567-4.567-4.567Z" fill="#293a4c"/>
    <path d="M14.067,15.623c-2.519,0-4.567,2.049-4.567,4.567s2.049,4.567,4.567,4.567,4.567-2.049,4.567-4.567-2.049-4.567-4.567-4.567Z" fill="#293a4c"/>
  </g>
  <path d="M44.636,60.5h-15.057c-.67,0-1.259-.444-1.442-1.089l-1.39-4.878-4.241-8.225c-.505-.831-.666-1.867-.44-2.854.225-.983.799-1.803,1.615-2.306.03-.019.061-.036.091-.053,1.674-.874,3.354-.564,4.521.794v-11.097c0-2.014,1.638-3.651,3.652-3.651s3.651,1.638,3.651,3.651v6.322c.974-.18,2.032.08,2.803.645,1.207-.885,3.095-.885,4.303,0,.604-.442,1.348-.703,2.151-.703,2.014,0,3.652,1.638,3.652,3.651v7.721c0,.11-.012.221-.036.328l-2.369,10.57c-.154.685-.762,1.172-1.464,1.172ZM30.712,57.5h12.723l2.07-9.236v-7.555c0-.359-.292-.651-.652-.651s-.651.292-.651.651c0,.828-.671,1.5-1.5,1.5s-1.5-.672-1.5-1.5c0-.359-.292-.651-.651-.651s-.652.292-.652.651c0,.828-.671,1.5-1.5,1.5s-1.5-.672-1.5-1.5c0-.359-.292-.651-.651-.651s-.652.292-.652.651c0,.828-.671,1.5-1.5,1.5s-1.5-.672-1.5-1.5v-9.915c0-.359-.292-.651-.651-.651s-.652.292-.652.651v16.144c0,.666-.44,1.253-1.08,1.439-.641.188-1.326-.07-1.685-.632l-2.354-3.686c-.344-.541-.553-.534-.949-.337-.11.083-.194.227-.234.401-.052.229-.02.473.085.637.025.039.048.079.069.12l4.337,8.41c.046.088.083.181.109.276l1.121,3.933ZM47.005,48.43h.01-.01Z" fill="#293a4c"/>
  <path d="M34.096,48.841c-.829,0-1.5-.672-1.5-1.5v-6.632c0-.828.671-1.5,1.5-1.5s1.5.672,1.5,1.5v6.632c0,.828-.671,1.5-1.5,1.5Z" fill="#293a4c"/>
  <path d="M38.399,48.816c-.829,0-1.5-.672-1.5-1.5v-6.607c0-.828.671-1.5,1.5-1.5s1.5.672,1.5,1.5v6.607c0,.828-.671,1.5-1.5,1.5Z" fill="#293a4c"/>
  <path d="M42.702,48.841c-.829,0-1.5-.672-1.5-1.5v-6.632c0-.828.671-1.5,1.5-1.5s1.5.672,1.5,1.5v6.632c0,.828-.671,1.5-1.5,1.5Z" fill="#293a4c"/>
</svg>