<?xml version="1.0" encoding="UTF-8"?>
<svg id="c" data-name="SOLID" xmlns="http://www.w3.org/2000/svg" width="64" height="64" viewBox="0 0 64 64">
  <g>
    <g>
      <path d="M56,52.18c-.828,0-1.5-.671-1.5-1.5v-20.19c0-.829.672-1.5,1.5-1.5s1.5.671,1.5,1.5v20.19c0,.829-.672,1.5-1.5,1.5Z" fill="#293a4c"/>
      <path d="M8,52.18c-.828,0-1.5-.671-1.5-1.5V17.664c0-1.93,1.57-3.5,3.5-3.5h22c.828,0,1.5.671,1.5,1.5s-.672,1.5-1.5,1.5H10c-.275,0-.5.224-.5.5v33.016c0,.829-.672,1.5-1.5,1.5Z" fill="#293a4c"/>
      <path d="M56.02,60.5H7.98c-2.481,0-4.5-2.019-4.5-4.5v-5.32c0-.829.672-1.5,1.5-1.5h17.329c.679,0,1.272.455,1.448,1.11l.382,1.419h15.761l.382-1.419c.176-.655.77-1.11,1.448-1.11h17.289c.828,0,1.5.671,1.5,1.5v5.32c0,2.481-2.019,4.5-4.5,4.5ZM6.48,52.181v3.82c0,.827.673,1.5,1.5,1.5h48.039c.827,0,1.5-.673,1.5-1.5v-3.82h-14.64l-.382,1.419c-.176.655-.77,1.11-1.448,1.11h-18.06c-.679,0-1.272-.455-1.448-1.11l-.382-1.419H6.48Z" fill="#293a4c"/>
    </g>
    <path d="M56,46.866H8c-.828,0-1.5-.671-1.5-1.5s.672-1.5,1.5-1.5h48c.828,0,1.5.671,1.5,1.5s-.672,1.5-1.5,1.5Z" fill="#293a4c"/>
  </g>
  <g>
    <path d="M21.494,33.314c-3.703,0-6.716-3.013-6.716-6.716s3.013-6.715,6.716-6.715,6.715,3.013,6.715,6.715-3.013,6.716-6.715,6.716ZM21.494,22.883c-2.049,0-3.716,1.667-3.716,3.715s1.667,3.716,3.716,3.716,3.715-1.667,3.715-3.716-1.666-3.715-3.715-3.715Z" fill="#293a4c"/>
    <path d="M28.495,41.174c-.828,0-1.5-.665-1.5-1.494v-2.609c0-2.073-1.688-3.76-3.761-3.76h-3.483c-2.073,0-3.761,1.687-3.761,3.76v2.597c0,.829-.672,1.506-1.5,1.506s-1.5-.665-1.5-1.494v-2.609c0-3.728,3.033-6.76,6.761-6.76h3.483c3.728,0,6.761,3.033,6.761,6.76v2.597c0,.829-.672,1.506-1.5,1.506Z" fill="#293a4c"/>
  </g>
  <path d="M56.02,3.5h-21.02c-2.48,0-4.5,2.02-4.5,4.5v13.03c0,2.48,2.02,4.5,4.5,4.5h.97v4.96c0,.56.31,1.07.8,1.33.22.11.46.17.7.17.3,0,.59-.09.85-.26l9.02-6.2h8.68c2.48,0,4.5-2.02,4.5-4.5v-13.03c0-2.48-2.02-4.5-4.5-4.5ZM40.65,15.57c-.06.07-.14.14-.22.19-.08.05-.17.1-.26.14-.09.04-.19.06-.28.08-.1.02-.2.03-.29.03-.1,0-.2-.01-.3-.03-.09-.02-.19-.04-.28-.08-.09-.04-.18-.09-.26-.14-.08-.05-.16-.12-.23-.19-.27-.28-.43-.66-.43-1.06,0-.39.16-.78.43-1.06.07-.07.15-.13.23-.19.08-.05.17-.1.26-.13.09-.04.19-.07.28-.09.19-.04.39-.04.59,0,.09.02.19.05.28.09.09.03.18.08.26.13.08.06.16.12.22.19.28.28.44.67.44,1.06,0,.4-.16.78-.44,1.06ZM46.98,14.81c-.02.09-.05.19-.09.28-.03.09-.08.17-.13.26-.06.08-.12.15-.19.22-.28.28-.67.44-1.06.44-.1,0-.2-.01-.29-.03-.1-.02-.19-.04-.28-.08-.09-.04-.18-.09-.26-.14-.08-.05-.16-.12-.23-.19-.28-.28-.44-.66-.44-1.06,0-.39.16-.78.44-1.06.07-.07.15-.13.23-.18.08-.06.17-.1.26-.14.09-.04.18-.07.28-.09.49-.1,1,.06,1.35.41.28.28.44.67.44,1.06,0,.1-.01.2-.03.3ZM52.9,14.81c-.02.09-.05.19-.09.28-.04.09-.08.17-.14.26-.05.08-.12.15-.19.22-.27.28-.66.44-1.05.44-.4,0-.79-.16-1.07-.44-.28-.28-.43-.66-.43-1.06,0-.39.15-.78.43-1.06.56-.55,1.57-.56,2.12,0,.28.28.44.67.44,1.06,0,.1-.01.2-.02.3Z" fill="#293a4c"/>
</svg>