<?xml version="1.0" encoding="UTF-8"?>
<svg id="c" data-name="SOLID" xmlns="http://www.w3.org/2000/svg" width="64" height="64" viewBox="0 0 64 64">
  <path d="M55.95,50.596h-3.715c-.828,0-1.5-.672-1.5-1.5s.672-1.5,1.5-1.5h3.715c.408,0,.789-.159,1.073-.448.282-.288.435-.67.427-1.074l-.51-28.146c-.015-.814-.688-1.478-1.5-1.478h-27.82c-1.776,0-3.39-1.049-4.111-2.671l-2.831-6.392c-.242-.534-.786-.888-1.378-.888h-11.3c-.827,0-1.5.673-1.5,1.5v38.096c0,.827.673,1.5,1.5,1.5h9.13c.829,0,1.5.672,1.5,1.5s-.671,1.5-1.5,1.5h-9.13c-2.481,0-4.5-2.019-4.5-4.5V8c0-2.481,2.019-4.5,4.5-4.5h11.3c1.768,0,3.383,1.045,4.116,2.661l2.835,6.401c.239.538.777.888,1.369.888h27.82c2.436,0,4.454,1.983,4.5,4.422l.51,28.146c.021,1.217-.435,2.364-1.286,3.23-.853.868-1.994,1.347-3.214,1.347Z" fill="#293a4c"/>
  <g>
    <path d="M32.43,51.47l4.03-1.19v2.38c-2.93,1-5.85,1-8.92-.01v-2.37l4.03,1.19c.14.04.29.06.43.06s.29-.02.43-.06Z" fill="#293a4c"/>
    <polygon points="32 44.89 37.3 46.9 32 48.47 26.7 46.9 32 44.89" fill="#293a4c"/>
    <path d="M44.87,37.69h-25.74c-1.93,0-3.5,1.57-3.5,3.5v15.81c0,1.93,1.57,3.5,3.5,3.5h25.74c1.93,0,3.5-1.57,3.5-3.5v-15.81c0-1.93-1.57-3.5-3.5-3.5ZM42.43,48.51l-2.97.88v3.78c0,1.08-.79,2.02-1.94,2.3-1.78.62-3.6.93-5.44.93s-3.7-.31-5.56-.93c-1.16-.27-1.98-1.22-1.98-2.31v-3.77l-1.04-.31v.8c0,.82-.67,1.5-1.5,1.5s-1.5-.68-1.5-1.5v-2.81c0-.08.01-.16.02-.24.01-.05.02-.09.03-.13.01-.06.03-.12.06-.18,0-.02.01-.03.02-.04.03-.09.07-.17.13-.25.05-.09.12-.17.2-.24.05-.05.11-.1.18-.15.1-.07.21-.13.33-.17l10-3.79c.34-.13.72-.13,1.06,0l10,3.79c.6.23.99.81.97,1.46-.02.64-.46,1.2-1.07,1.38Z" fill="#293a4c"/>
  </g>
  <path d="M56,16.453c-.828,0-1.5-.672-1.5-1.5v-4.906c0-.827-.673-1.5-1.5-1.5h-30.837c-.829,0-1.5-.672-1.5-1.5s.671-1.5,1.5-1.5h30.837c2.481,0,4.5,2.019,4.5,4.5v4.906c0,.828-.672,1.5-1.5,1.5Z" fill="#293a4c"/>
  <g>
    <path d="M32.83,25.437h-15.063c-.829,0-1.5-.672-1.5-1.5s.671-1.5,1.5-1.5h15.063c.829,0,1.5.672,1.5,1.5s-.672,1.5-1.5,1.5Z" fill="#293a4c"/>
    <path d="M46.872,33.181h-29.106c-.829,0-1.5-.672-1.5-1.5s.671-1.5,1.5-1.5h29.106c.828,0,1.5.672,1.5,1.5s-.672,1.5-1.5,1.5Z" fill="#293a4c"/>
  </g>
</svg>