<?xml version="1.0" encoding="UTF-8"?>
<svg id="c" data-name="SOLID" xmlns="http://www.w3.org/2000/svg" width="64" height="64" viewBox="0 0 64 64">
  <g>
    <g>
      <g>
        <path d="M31.99,44.314h-.057c-1.486-.009-2.963-.357-4.271-1.009-.963-.478-1.836-1.103-2.591-1.858-1.605-1.604-2.605-3.73-2.816-5.984-.033-.297-.052-.617-.052-.947v-5.638c0-5.402,4.396-9.798,9.799-9.798s9.799,4.396,9.799,9.798v5.356c0,.453-.029.875-.09,1.29-.405,3.225-2.452,6.189-5.339,7.707-1.384.72-2.856,1.083-4.382,1.083ZM32.002,22.08c-3.749,0-6.799,3.05-6.799,6.798v5.638c0,.219.013.432.036.644.148,1.584.842,3.055,1.953,4.167.524.524,1.132.959,1.804,1.293.916.455,1.91.689,2.955.695,1.056-.02,2.074-.243,3.03-.741,2.026-1.065,3.468-3.156,3.757-5.452.043-.299.062-.58.062-.887v-5.356c0-3.748-3.05-6.798-6.799-6.798Z" fill="#293a4c"/>
        <path d="M32.001,39.131c-.958,0-1.916-.363-2.809-1.09-.643-.523-.739-1.468-.216-2.11s1.468-.738,2.11-.216c.691.562,1.137.562,1.828,0,.642-.523,1.586-.428,2.11.216.523.643.427,1.587-.216,2.11-.893.727-1.851,1.09-2.809,1.09Z" fill="#293a4c"/>
      </g>
      <g>
        <path d="M25.865,46.881c-.724,0-1.36-.524-1.479-1.262-.131-.818.426-1.588,1.243-1.72.696-.111,1.201-.714,1.201-1.433v-.5c0-.828.672-1.5,1.5-1.5s1.5.672,1.5,1.5v.5c0,2.2-1.566,4.049-3.725,4.396-.081.013-.161.019-.24.019Z" fill="#293a4c"/>
        <path d="M22.024,47.595c-.828,0-1.5-.672-1.5-1.5,0-.682.454-1.257,1.076-1.439.961-.304,1.96.447,1.96,1.428,0,.68-.452,1.254-1.072,1.438-.15.047-.311.073-.464.073Z" fill="#293a4c"/>
        <path d="M19.247,49.418c-.389,0-.777-.15-1.07-.449-.581-.592-.571-1.541.02-2.122.95-.932,2.051-1.654,3.271-2.147.771-.311,1.643.062,1.953.828.311.769-.061,1.643-.828,1.953-.855.346-1.627.853-2.295,1.509-.292.286-.672.429-1.051.429Z" fill="#293a4c"/>
      </g>
      <g>
        <path d="M38.135,46.881c-.083,0-.166-.007-.25-.021-2.152-.361-3.715-2.209-3.715-4.394v-.56c0-.828.672-1.5,1.5-1.5s1.5.672,1.5,1.5v.56c0,.714.509,1.317,1.211,1.435.817.137,1.368.91,1.231,1.728-.123.733-.758,1.252-1.478,1.252Z" fill="#293a4c"/>
        <path d="M47.543,60.5h-31.086c-.828,0-1.5-.672-1.5-1.5v-4.66c0-2.728,1.216-5.532,3.253-7.503.593-.575,1.545-.561,2.121.035s.561,1.545-.035,2.121c-1.442,1.396-2.339,3.444-2.339,5.347v3.16h28.086v-3.16c0-1.909-.892-3.958-2.327-5.347-.596-.576-.611-1.525-.035-2.121.576-.595,1.527-.609,2.121-.035,2.029,1.964,3.241,4.769,3.241,7.503v4.66c0,.828-.672,1.5-1.5,1.5Z" fill="#293a4c"/>
        <path d="M41.976,47.595c-.154,0-.314-.026-.467-.074-.618-.185-1.069-.759-1.069-1.438,0-.98.994-1.736,1.962-1.427.621.184,1.074.758,1.074,1.438,0,.828-.672,1.5-1.5,1.5Z" fill="#293a4c"/>
        <path d="M44.759,49.418c-.379,0-.759-.143-1.051-.429-.668-.656-1.439-1.163-2.295-1.509-.768-.311-1.139-1.185-.828-1.953.311-.767,1.181-1.139,1.953-.828,1.221.493,2.321,1.216,3.271,2.147.591.581.601,1.53.02,2.122-.293.299-.682.449-1.07.449Z" fill="#293a4c"/>
      </g>
    </g>
    <path d="M24.437,30.718c-.708,0-1.338-.503-1.473-1.225-.151-.813.384-1.597,1.197-1.75,1.475-.279,4.098-1.194,4.855-2.461.262-.437.728-.71,1.236-.728.516-.023.992.225,1.282.643.062.08,1.979,2.521,8.028,2.521.828,0,1.5.672,1.5,1.5s-.672,1.5-1.5,1.5c-4.882,0-7.702-1.401-9.171-2.513-2.076,1.767-5.251,2.407-5.679,2.487-.093.018-.186.025-.277.025Z" fill="#293a4c"/>
    <g>
      <path d="M24.842,56.097c-.175,0-.35-.03-.518-.092-.431-.159-.766-.506-.908-.943l-2.814-8.633c-.232-.71.095-1.483.766-1.812l2.816-1.38c.519-.252,1.134-.188,1.585.166l7.158,5.608c.387.303.601.775.573,1.266-.028.49-.294.936-.712,1.192l-7.16,4.404c-.239.147-.512.223-.786.223ZM23.857,46.737l1.82,5.584,3.702-2.277-4.721-3.699-.802.393Z" fill="#293a4c"/>
      <path d="M39.161,56.097c-.274,0-.547-.075-.786-.223l-7.16-4.404c-.418-.257-.684-.702-.712-1.192-.027-.49.187-.963.573-1.266l7.158-5.608c.452-.354,1.067-.419,1.585-.166l2.816,1.38c.671.328.998,1.102.766,1.812l-2.814,8.633c-.143.438-.478.784-.908.943-.168.062-.343.092-.518.092ZM34.623,50.044l3.702,2.277,1.82-5.584-.802-.393-4.721,3.699Z" fill="#293a4c"/>
    </g>
    <g>
      <path d="M27.516,60.5c-.119,0-.24-.014-.36-.044-.805-.198-1.296-1.012-1.097-1.815l1.774-7.184c.199-.805,1.018-1.296,1.815-1.097.805.198,1.296,1.012,1.097,1.815l-1.774,7.184c-.169.684-.781,1.141-1.455,1.141Z" fill="#293a4c"/>
      <path d="M36.484,60.5c-.674,0-1.286-.457-1.455-1.141l-1.774-7.184c-.199-.804.292-1.617,1.097-1.815.8-.2,1.616.292,1.815,1.097l1.774,7.184c.199.804-.292,1.617-1.097,1.815-.12.03-.241.044-.36.044Z" fill="#293a4c"/>
    </g>
  </g>
  <path d="M17.168,20.245c-.49,0-.971-.24-1.259-.683-.451-.694-.255-1.623.44-2.075l11.403-7.415c.692-.451,1.622-.255,2.075.44.451.694.255,1.623-.44,2.075l-11.403,7.415c-.252.164-.536.242-.816.242Z" fill="#293a4c"/>
  <path d="M51.489,23.26c-.28,0-.563-.078-.816-.242l-16.061-10.43c-.694-.451-.892-1.38-.44-2.075s1.38-.892,2.075-.44l16.061,10.43c.694.451.892,1.38.44,2.075-.287.442-.769.683-1.259.683Z" fill="#293a4c"/>
  <path d="M23.699,35.34c-.283,0-.569-.08-.824-.247l-11.3-7.439c-.691-.456-.883-1.386-.428-2.078.456-.691,1.386-.881,2.078-.428l11.3,7.439c.691.456.883,1.386.428,2.078-.288.438-.767.675-1.254.675Z" fill="#293a4c"/>
  <path d="M9.096,18.395c-3.086,0-5.596,2.51-5.596,5.596s2.51,5.597,5.596,5.597,5.597-2.511,5.597-5.597-2.511-5.596-5.597-5.596Z" fill="#293a4c"/>
  <path d="M54.922,18.395c-3.086,0-5.596,2.51-5.596,5.596s2.51,5.597,5.596,5.597,5.597-2.511,5.597-5.597-2.511-5.596-5.597-5.596Z" fill="#293a4c"/>
  <path d="M32.002,3.5c-3.086,0-5.596,2.51-5.596,5.596s2.51,5.597,5.596,5.597,5.596-2.511,5.596-5.597-2.51-5.596-5.596-5.596Z" fill="#293a4c"/>
</svg>