<?xml version="1.0" encoding="UTF-8"?>
<svg id="c" data-name="DYPTA_EXPAND" xmlns="http://www.w3.org/2000/svg" width="64" height="64" viewBox="0 0 64 64">
  <g>
    <path d="M41.93,60.5H8c-2.481,0-4.5-2.019-4.5-4.5V8c0-2.481,2.019-4.5,4.5-4.5h33.93c2.481,0,4.5,2.019,4.5,4.5v48c0,2.481-2.019,4.5-4.5,4.5ZM8,6.5c-.827,0-1.5.673-1.5,1.5v48c0,.827.673,1.5,1.5,1.5h33.93c.827,0,1.5-.673,1.5-1.5V8c0-.827-.673-1.5-1.5-1.5H8Z" fill="#293a4c"/>
    <g>
      <g>
        <path d="M22.06,8.46h-11.06c-.83,0-1.5.68-1.5,1.5v11.07c0,.83.67,1.5,1.5,1.5h11.06c.83,0,1.5-.67,1.5-1.5v-11.07c0-.82-.67-1.5-1.5-1.5ZM19.12,15.6l-1.92,1.91c-.29.3-.67.44-1.06.44-.38,0-.76-.14-1.06-.44l-1.14-1.14c-.58-.58-.58-1.53,0-2.12.59-.58,1.54-.58,2.12,0l.08.08.86-.85c.58-.59,1.53-.59,2.12,0,.58.58.58,1.53,0,2.12Z" fill="#ff5f00"/>
        <path d="M22.06,24.97h-11.06c-.83,0-1.5.67-1.5,1.5v11.06c0,.83.67,1.5,1.5,1.5h11.06c.83,0,1.5-.67,1.5-1.5v-11.06c0-.83-.67-1.5-1.5-1.5ZM19.13,32.48c.59.59.59,1.54,0,2.12-.29.3-.67.44-1.06.44-.38,0-.76-.14-1.06-.44l-.48-.48-.48.48c-.3.3-.68.44-1.07.44-.38,0-.76-.14-1.06-.44-.58-.58-.58-1.53,0-2.12l.48-.48-.48-.48c-.58-.59-.58-1.54,0-2.12.59-.59,1.54-.59,2.13,0l.48.48.48-.48c.59-.59,1.54-.59,2.12,0,.59.58.59,1.53,0,2.12l-.48.48.48.48Z" fill="#ff5f00"/>
        <path d="M22.06,41.47h-11.06c-.83,0-1.5.67-1.5,1.5v11.07c0,.82.67,1.5,1.5,1.5h11.06c.83,0,1.5-.68,1.5-1.5v-11.07c0-.83-.67-1.5-1.5-1.5ZM19.12,48.61l-1.92,1.91c-.29.29-.67.44-1.06.44-.38,0-.76-.15-1.06-.44l-1.14-1.14c-.58-.58-.58-1.53,0-2.12.59-.59,1.54-.59,2.12,0l.08.08.86-.85c.58-.59,1.53-.59,2.12,0,.58.58.58,1.53,0,2.12Z" fill="#ff5f00"/>
      </g>
      <g>
        <path d="M33.738,14.083h-5.194c-.829,0-1.5-.671-1.5-1.5s.671-1.5,1.5-1.5h5.194c.829,0,1.5.671,1.5,1.5s-.671,1.5-1.5,1.5Z" fill="#293a4c"/>
        <path d="M38.932,19.909h-10.389c-.829,0-1.5-.671-1.5-1.5s.671-1.5,1.5-1.5h10.389c.829,0,1.5.671,1.5,1.5s-.671,1.5-1.5,1.5Z" fill="#293a4c"/>
      </g>
      <g>
        <path d="M33.738,30.587h-5.194c-.829,0-1.5-.671-1.5-1.5s.671-1.5,1.5-1.5h5.194c.829,0,1.5.671,1.5,1.5s-.671,1.5-1.5,1.5Z" fill="#293a4c"/>
        <path d="M38.932,36.413h-10.389c-.829,0-1.5-.671-1.5-1.5s.671-1.5,1.5-1.5h10.389c.829,0,1.5.671,1.5,1.5s-.671,1.5-1.5,1.5Z" fill="#293a4c"/>
      </g>
      <g>
        <path d="M33.738,47.091h-5.194c-.829,0-1.5-.671-1.5-1.5s.671-1.5,1.5-1.5h5.194c.829,0,1.5.671,1.5,1.5s-.671,1.5-1.5,1.5Z" fill="#293a4c"/>
        <path d="M38.932,52.917h-10.389c-.829,0-1.5-.671-1.5-1.5s.671-1.5,1.5-1.5h10.389c.829,0,1.5.671,1.5,1.5s-.671,1.5-1.5,1.5Z" fill="#293a4c"/>
      </g>
    </g>
  </g>
  <g>
    <path d="M54.489,55.933c-.589,0-1.124-.345-1.367-.882l-4.511-9.979c-.088-.194-.133-.405-.133-.618V11.567c0-1.93,1.57-3.5,3.5-3.5h5.021c1.93,0,3.5,1.57,3.5,3.5v32.888c0,.213-.045.424-.133.618l-4.511,9.979c-.243.537-.777.882-1.367.882ZM51.479,44.131l3.011,6.66,3.011-6.66V11.567c0-.276-.224-.5-.5-.5h-5.021c-.276,0-.5.224-.5.5v32.564ZM59,44.455h.01-.01Z" fill="#293a4c"/>
    <path d="M59,20.125h-9.021c-.829,0-1.5-.671-1.5-1.5s.671-1.5,1.5-1.5h9.021c.829,0,1.5.671,1.5,1.5s-.671,1.5-1.5,1.5Z" fill="#293a4c"/>
    <path d="M59,45.955h-9.021c-.829,0-1.5-.671-1.5-1.5s.671-1.5,1.5-1.5h9.021c.829,0,1.5.671,1.5,1.5s-.671,1.5-1.5,1.5Z" fill="#293a4c"/>
    <path d="M54.489,45.955c-.829,0-1.5-.671-1.5-1.5v-25.83c0-.829.671-1.5,1.5-1.5s1.5.671,1.5,1.5v25.83c0,.829-.671,1.5-1.5,1.5Z" fill="#293a4c"/>
  </g>
</svg>