<?xml version="1.0" encoding="UTF-8"?>
<svg id="c" data-name="DYPTA_EXPAND" xmlns="http://www.w3.org/2000/svg" width="64" height="64" viewBox="0 0 64 64">
  <g>
    <path d="M39.57,60.5H7c-1.93,0-3.5-1.57-3.5-3.5V13c0-1.93,1.57-3.5,3.5-3.5h23.68c.829,0,1.5.672,1.5,1.5s-.671,1.5-1.5,1.5H7c-.276,0-.5.225-.5.5v44c0,.275.224.5.5.5h32.57c.275,0,.5-.225.5-.5v-3.41c0-.828.672-1.5,1.5-1.5s1.5.672,1.5,1.5v3.41c0,1.93-1.57,3.5-3.5,3.5Z" fill="#293a4c"/>
    <path d="M41.57,30.03c-.828,0-1.5-.672-1.5-1.5v-6.641c0-.828.672-1.5,1.5-1.5s1.5.672,1.5,1.5v6.641c0,.828-.672,1.5-1.5,1.5Z" fill="#293a4c"/>
    <path d="M47.45,36.55c-.828,0-1.5-.672-1.5-1.5V7c0-.275-.225-.5-.5-.5H12.44c-.276,0-.5.225-.5.5v3.83c0,.828-.671,1.5-1.5,1.5s-1.5-.672-1.5-1.5v-3.83c0-1.93,1.57-3.5,3.5-3.5h33.01c1.93,0,3.5,1.57,3.5,3.5v28.05c0,.828-.672,1.5-1.5,1.5Z" fill="#293a4c"/>
    <path d="M41.57,23.39h-10.89c-.829,0-1.5-.672-1.5-1.5v-10.89c0-.606.365-1.153.926-1.386.562-.233,1.207-.104,1.635.325l10.89,10.89c.429.429.558,1.074.325,1.635s-.779.926-1.386.926ZM32.18,20.39h5.769l-5.769-5.769v5.769Z" fill="#293a4c"/>
    <path d="M25.064,23.39h-15.021c-.829,0-1.5-.672-1.5-1.5v-5.698c0-.828.671-1.5,1.5-1.5h15.021c.829,0,1.5.672,1.5,1.5v5.698c0,.828-.671,1.5-1.5,1.5ZM11.542,20.39h12.021v-2.698h-12.021v2.698Z" fill="#293a4c"/>
    <path d="M23.285,31.109h-13.243c-.829,0-1.5-.672-1.5-1.5s.671-1.5,1.5-1.5h13.243c.829,0,1.5.672,1.5,1.5s-.671,1.5-1.5,1.5Z" fill="#293a4c"/>
    <path d="M23.285,38.453h-13.243c-.829,0-1.5-.672-1.5-1.5s.671-1.5,1.5-1.5h13.243c.829,0,1.5.672,1.5,1.5s-.671,1.5-1.5,1.5Z" fill="#293a4c"/>
    <path d="M23.285,45.797h-13.243c-.829,0-1.5-.672-1.5-1.5s.671-1.5,1.5-1.5h13.243c.829,0,1.5.672,1.5,1.5s-.671,1.5-1.5,1.5Z" fill="#293a4c"/>
    <path d="M29.234,53.141H10.042c-.829,0-1.5-.672-1.5-1.5s.671-1.5,1.5-1.5h19.191c.829,0,1.5.672,1.5,1.5s-.671,1.5-1.5,1.5Z" fill="#293a4c"/>
  </g>
  <g>
    <path d="M46.851,51.94c-.384,0-.768-.146-1.061-.439l-3.967-3.967c-.586-.586-.586-1.535,0-2.121s1.535-.586,2.121,0l3.967,3.967c.586.586.586,1.535,0,2.121-.293.293-.677.439-1.061.439Z" fill="#293a4c"/>
    <path d="M50.438,48.353c-.384,0-.768-.146-1.061-.439l-3.967-3.967c-.586-.586-.586-1.535,0-2.121s1.535-.586,2.121,0l3.967,3.967c.586.586.586,1.535,0,2.121-.293.293-.677.439-1.061.439Z" fill="#293a4c"/>
    <path d="M54.726,60.496c-1.479,0-2.958-.562-4.084-1.688l-6.079-6.079c-.586-.586-.586-1.535,0-2.121l6.047-6.047c.586-.586,1.535-.586,2.121,0l6.079,6.079c2.251,2.252,2.251,5.916,0,8.168-1.126,1.125-2.605,1.688-4.084,1.688ZM47.744,51.668l5.019,5.019c1.082,1.082,2.844,1.082,3.926,0,1.081-1.082,1.081-2.844,0-3.926l-5.019-5.019-3.926,3.926Z" fill="#293a4c"/>
    <path d="M40.46,40.46c-1.41,1.42-3.87,1.41-5.27,0-1.46-1.45-1.46-3.82,0-5.27.7-.7,1.64-1.09,2.64-1.09.99,0,1.93.39,2.63,1.09,1.46,1.45,1.46,3.82,0,5.27Z" fill="#ff5f00"/>
    <path d="M45.97,29.68c-2.18-2.17-5.07-3.37-8.14-3.37s-5.97,1.2-8.15,3.37c-2.17,2.18-3.37,5.07-3.37,8.15s1.2,5.96,3.37,8.14c2.18,2.18,5.07,3.37,8.15,3.37s5.96-1.19,8.14-3.37c2.17-2.18,3.37-5.07,3.37-8.14s-1.2-5.97-3.37-8.15ZM42.58,42.59c-1.27,1.27-2.96,1.97-4.75,1.97-1.8,0-3.49-.7-4.76-1.97-2.63-2.63-2.63-6.9-.01-9.52,1.28-1.27,2.97-1.97,4.77-1.97,1.79,0,3.48.7,4.75,1.97,2.63,2.62,2.63,6.89,0,9.52Z" fill="#ff5f00"/>
  </g>
</svg>