<?xml version="1.0" encoding="UTF-8"?>
<svg id="c" data-name="DYPTA_EXPAND" xmlns="http://www.w3.org/2000/svg" width="64" height="64" viewBox="0 0 64 64">
  <g>
    <path d="M48.663,60.5c-6.558,0-11.894-5.335-11.894-11.894s5.335-11.894,11.894-11.894,11.894,5.335,11.894,11.894-5.335,11.894-11.894,11.894ZM48.663,39.713c-4.904,0-8.894,3.989-8.894,8.894s3.99,8.894,8.894,8.894,8.894-3.989,8.894-8.894-3.99-8.894-8.894-8.894Z" fill="#293a4c"/>
    <path d="M54.051,50.094l-3.891-2.333v-4.551c0-.828-.671-1.5-1.5-1.5-3.799,0-6.89,3.096-6.89,6.9s3.091,6.89,6.89,6.89c2.406,0,4.67-1.283,5.907-3.35.425-.71.194-1.631-.516-2.057Z" fill="#ff5f00"/>
    <path d="M48.663,39.713c-.829,0-1.5-.672-1.5-1.5v-4.346c0-.828.671-1.5,1.5-1.5s1.5.672,1.5,1.5v4.346c0,.828-.671,1.5-1.5,1.5Z" fill="#293a4c"/>
    <path d="M50.66,35.367h-3.995c-.829,0-1.5-.672-1.5-1.5s.671-1.5,1.5-1.5h3.995c.829,0,1.5.672,1.5,1.5s-.671,1.5-1.5,1.5Z" fill="#293a4c"/>
  </g>
  <g>
    <path d="M48.66,30.65c-.829,0-1.5-.672-1.5-1.5v-15.15c0-.827-.673-1.5-1.5-1.5h-6.04c-.829,0-1.5-.672-1.5-1.5s.671-1.5,1.5-1.5h6.04c2.481,0,4.5,2.019,4.5,4.5v15.15c0,.828-.671,1.5-1.5,1.5Z" fill="#293a4c"/>
    <path d="M37.51,60.5H8c-2.481,0-4.5-2.019-4.5-4.5V14c0-2.481,2.019-4.5,4.5-4.5h6.04c.829,0,1.5.672,1.5,1.5s-.671,1.5-1.5,1.5h-6.04c-.827,0-1.5.673-1.5,1.5v42c0,.827.673,1.5,1.5,1.5h29.51c.829,0,1.5.672,1.5,1.5s-.671,1.5-1.5,1.5Z" fill="#293a4c"/>
    <g>
      <path d="M37.619,16.734h-21.575c-1.93,0-3.5-1.57-3.5-3.5v-2.575c0-1.93,1.57-3.5,3.5-3.5h4.214c.254,0,.428-.245.475-.32,1.327-2.117,3.607-3.382,6.099-3.382s4.772,1.265,6.099,3.382c.047.075.22.32.475.32h4.214c1.93,0,3.5,1.57,3.5,3.5v2.575c0,1.93-1.57,3.5-3.5,3.5ZM16.044,10.159c-.276,0-.5.225-.5.5v2.575c0,.275.224.5.5.5h21.575c.276,0,.5-.225.5-.5v-2.575c0-.275-.224-.5-.5-.5h-4.214c-1.211,0-2.339-.646-3.017-1.727-.775-1.237-2.105-1.976-3.557-1.976s-2.782.738-3.557,1.976c-.678,1.081-1.805,1.727-3.017,1.727h-4.214Z" fill="#293a4c"/>
      <path d="M26.831,11.134c-.829,0-1.5-.656-1.5-1.484v-.032c0-.828.671-1.5,1.5-1.5s1.5.672,1.5,1.5-.671,1.517-1.5,1.517Z" fill="#293a4c"/>
    </g>
  </g>
  <g>
    <g>
      <g>
        <path d="M18.84,29.096h-5.368c-1.544,0-2.801-1.257-2.801-2.801v-5.367c0-.828.671-1.5,1.5-1.5s1.5.672,1.5,1.5v5.168h5.168c.829,0,1.5.672,1.5,1.5s-.671,1.5-1.5,1.5Z" fill="#293a4c"/>
        <path d="M17.32,25.276c-.384,0-.768-.146-1.061-.439l-1.613-1.613c-.586-.586-.586-1.535,0-2.121s1.535-.586,2.121,0l.582.581,2.028-1.92c.602-.571,1.551-.544,2.121.058s.543,1.551-.058,2.12l-3.088,2.924c-.29.274-.661.411-1.031.411Z" fill="#293a4c"/>
      </g>
      <g>
        <path d="M41.491,23.306h-15.372c-.829,0-1.5-.672-1.5-1.5s.671-1.5,1.5-1.5h15.372c.829,0,1.5.672,1.5,1.5s-.671,1.5-1.5,1.5Z" fill="#293a4c"/>
        <path d="M41.491,28.142h-15.372c-.829,0-1.5-.672-1.5-1.5s.671-1.5,1.5-1.5h15.372c.829,0,1.5.672,1.5,1.5s-.671,1.5-1.5,1.5Z" fill="#293a4c"/>
      </g>
    </g>
    <g>
      <g>
        <path d="M18.84,41.798h-5.368c-1.544,0-2.801-1.257-2.801-2.801v-5.367c0-.828.671-1.5,1.5-1.5s1.5.672,1.5,1.5v5.168h5.168c.829,0,1.5.672,1.5,1.5s-.671,1.5-1.5,1.5Z" fill="#293a4c"/>
        <path d="M17.32,37.979c-.384,0-.768-.146-1.061-.439l-1.613-1.613c-.586-.586-.586-1.535,0-2.121s1.535-.586,2.121,0l.581.581,2.029-1.921c.602-.572,1.55-.544,2.12.058s.544,1.551-.058,2.12l-3.088,2.925c-.29.274-.661.411-1.031.411Z" fill="#293a4c"/>
      </g>
      <g>
        <path d="M40.234,36.008h-14.115c-.829,0-1.5-.672-1.5-1.5s.671-1.5,1.5-1.5h14.115c.829,0,1.5.672,1.5,1.5s-.671,1.5-1.5,1.5Z" fill="#293a4c"/>
        <path d="M35.042,40.844h-8.924c-.829,0-1.5-.672-1.5-1.5s.671-1.5,1.5-1.5h8.924c.829,0,1.5.672,1.5,1.5s-.671,1.5-1.5,1.5Z" fill="#293a4c"/>
      </g>
    </g>
    <g>
      <g>
        <path d="M18.84,54.5h-5.368c-1.544,0-2.801-1.257-2.801-2.801v-5.368c0-.828.671-1.5,1.5-1.5s1.5.672,1.5,1.5v5.169h5.168c.829,0,1.5.672,1.5,1.5s-.671,1.5-1.5,1.5Z" fill="#293a4c"/>
        <path d="M17.32,50.681c-.384,0-.768-.146-1.061-.439l-1.613-1.613c-.586-.586-.586-1.535,0-2.121s1.535-.586,2.121,0l.581.581,2.029-1.921c.602-.572,1.55-.545,2.12.058.57.602.544,1.551-.058,2.12l-3.088,2.925c-.29.274-.661.411-1.031.411Z" fill="#293a4c"/>
      </g>
      <g>
        <path d="M32.234,48.71h-6.115c-.829,0-1.5-.672-1.5-1.5s.671-1.5,1.5-1.5h6.115c.829,0,1.5.672,1.5,1.5s-.671,1.5-1.5,1.5Z" fill="#293a4c"/>
        <path d="M32.66,53.546h-6.541c-.829,0-1.5-.672-1.5-1.5s.671-1.5,1.5-1.5h6.541c.829,0,1.5.672,1.5,1.5s-.671,1.5-1.5,1.5Z" fill="#293a4c"/>
      </g>
    </g>
  </g>
</svg>