<?xml version="1.0" encoding="UTF-8"?>
<svg id="c" data-name="DYPTA_EXPAND" xmlns="http://www.w3.org/2000/svg" width="64" height="64" viewBox="0 0 64 64">
  <g>
    <path d="M46.73,60.539h-25.94c-2.481,0-4.5-2.019-4.5-4.5v-3.38c0-.828.672-1.5,1.5-1.5s1.5.672,1.5,1.5v3.38c0,.827.673,1.5,1.5,1.5h25.94c.828,0,1.5.672,1.5,1.5s-.672,1.5-1.5,1.5Z" fill="#293a4c"/>
    <path d="M59,48.269c-.828,0-1.5-.672-1.5-1.5V7.959c0-.827-.673-1.5-1.5-1.5H20.79c-.827,0-1.5.673-1.5,1.5v3.38c0,.828-.672,1.5-1.5,1.5s-1.5-.672-1.5-1.5v-3.38c0-2.481,2.019-4.5,4.5-4.5h35.21c2.481,0,4.5,2.019,4.5,4.5v38.81c0,.828-.672,1.5-1.5,1.5Z" fill="#293a4c"/>
    <path d="M46.729,60.541c-.193,0-.389-.037-.574-.114-.561-.232-.926-.779-.926-1.386v-12.271c0-.828.672-1.5,1.5-1.5h12.271c.606,0,1.153.365,1.386.926s.104,1.206-.325,1.635l-12.271,12.271c-.287.287-.671.439-1.061.439ZM48.229,48.271v7.149l7.149-7.149h-7.149Z" fill="#293a4c"/>
  </g>
  <g>
    <path d="M38.426,54.158H8c-2.481,0-4.5-2.019-4.5-4.5V14.339c0-2.481,2.019-4.5,4.5-4.5h30.426c2.481,0,4.5,2.019,4.5,4.5v35.319c0,2.481-2.019,4.5-4.5,4.5ZM8,12.839c-.827,0-1.5.673-1.5,1.5v35.319c0,.827.673,1.5,1.5,1.5h30.426c.827,0,1.5-.673,1.5-1.5V14.339c0-.827-.673-1.5-1.5-1.5H8Z" fill="#293a4c"/>
    <g>
      <path d="M23.214,40.076c-3.248,0-5.89-2.642-5.89-5.89s2.642-5.89,5.89-5.89,5.89,2.642,5.89,5.89-2.642,5.89-5.89,5.89ZM23.214,31.297c-1.594,0-2.89,1.296-2.89,2.89s1.296,2.89,2.89,2.89,2.89-1.296,2.89-2.89-1.296-2.89-2.89-2.89Z" fill="#293a4c"/>
      <path d="M29.107,48.707h-11.789c-.828,0-1.5-.672-1.5-1.5v-4.205c0-3.269,2.659-5.928,5.929-5.928h2.932c3.27,0,5.929,2.659,5.929,5.928v4.193c0,.828-.672,1.512-1.5,1.512ZM18.818,45.707h8.789v-2.705c0-1.614-1.313-2.928-2.929-2.928h-2.932c-1.615,0-2.929,1.313-2.929,2.928v2.705Z" fill="#293a4c"/>
    </g>
    <g>
      <path d="M38.979,21.405c-.166-.51-.591-.893-1.115-1.004l-1.723-.365-.88-1.525c-.269-.465-.764-.751-1.3-.751s-1.031.286-1.299.75l-.881,1.526-1.724.365c-.524.111-.949.494-1.115,1.004-.165.51-.047,1.069.312,1.468l1.18,1.31-.186,1.752c-.056.533.177,1.056.61,1.371s1.003.373,1.492.156l1.609-.717,1.609.717c.195.087.403.13.61.13.312,0,.621-.097.882-.286.434-.315.666-.838.61-1.371l-.186-1.753,1.179-1.309c.359-.398.478-.958.312-1.468Z" fill="#ff5f00"/>
      <path d="M27.115,17.88l-1.723-.365-.88-1.525c-.269-.465-.764-.751-1.3-.751s-1.031.286-1.299.75l-.881,1.526-1.724.365c-.524.111-.949.494-1.115,1.004-.165.51-.047,1.069.312,1.468l1.18,1.31-.186,1.752c-.056.533.177,1.056.61,1.371s1.003.374,1.492.156l1.609-.717,1.609.717c.195.087.403.13.61.13.312,0,.621-.097.882-.286.434-.315.666-.838.61-1.371l-.186-1.753,1.179-1.309c.359-.398.478-.958.312-1.468-.166-.51-.591-.893-1.115-1.004Z" fill="#ff5f00"/>
      <path d="M16.366,20.401l-1.723-.365-.88-1.525c-.269-.465-.764-.751-1.3-.751s-1.031.286-1.299.75l-.881,1.526-1.724.365c-.524.111-.949.494-1.115,1.004-.165.51-.047,1.069.312,1.468l1.18,1.31-.186,1.752c-.056.533.177,1.056.61,1.371s1.003.373,1.492.156l1.609-.717,1.609.717c.195.087.403.13.61.13.312,0,.621-.097.882-.286.434-.315.666-.838.61-1.371l-.186-1.753,1.179-1.309c.359-.398.478-.958.312-1.468-.166-.51-.591-.893-1.115-1.004Z" fill="#ff5f00"/>
    </g>
    <g>
      <path d="M10.361,48.707c-.828,0-1.5-.672-1.5-1.5v-8.631c0-.828.672-1.5,1.5-1.5s1.5.672,1.5,1.5v8.631c0,.828-.672,1.5-1.5,1.5Z" fill="#293a4c"/>
      <path d="M36.063,48.707c-.828,0-1.5-.672-1.5-1.5v-8.631c0-.828.672-1.5,1.5-1.5s1.5.672,1.5,1.5v8.631c0,.828-.672,1.5-1.5,1.5Z" fill="#293a4c"/>
    </g>
  </g>
  <path d="M51.639,12.839h-4.908c-.828,0-1.5-.672-1.5-1.5s.672-1.5,1.5-1.5h4.908c.828,0,1.5.672,1.5,1.5s-.672,1.5-1.5,1.5Z" fill="#293a4c"/>
  <path d="M51.639,19.903h-4.908c-.828,0-1.5-.672-1.5-1.5s.672-1.5,1.5-1.5h4.908c.828,0,1.5.672,1.5,1.5s-.672,1.5-1.5,1.5Z" fill="#293a4c"/>
  <path d="M51.639,26.967h-4.908c-.828,0-1.5-.672-1.5-1.5s.672-1.5,1.5-1.5h4.908c.828,0,1.5.672,1.5,1.5s-.672,1.5-1.5,1.5Z" fill="#293a4c"/>
  <path d="M51.639,34.03h-4.908c-.828,0-1.5-.672-1.5-1.5s.672-1.5,1.5-1.5h4.908c.828,0,1.5.672,1.5,1.5s-.672,1.5-1.5,1.5Z" fill="#293a4c"/>
  <path d="M51.639,41.095h-4.908c-.828,0-1.5-.672-1.5-1.5s.672-1.5,1.5-1.5h4.908c.828,0,1.5.672,1.5,1.5s-.672,1.5-1.5,1.5Z" fill="#293a4c"/>
</svg>