<?xml version="1.0" encoding="UTF-8"?>
<svg id="c" data-name="DYPTA_EXPAND" xmlns="http://www.w3.org/2000/svg" width="64" height="64" viewBox="0 0 64 64">
  <path d="M50,60.5H14c-2.481,0-4.5-2.019-4.5-4.5V17.09c0-.829.671-1.5,1.5-1.5s1.5.671,1.5,1.5v38.91c0,.827.673,1.5,1.5,1.5h36c.827,0,1.5-.673,1.5-1.5V8c0-.827-.673-1.5-1.5-1.5h-26.91c-.829,0-1.5-.671-1.5-1.5s.671-1.5,1.5-1.5h26.91c2.481,0,4.5,2.019,4.5,4.5v48c0,2.481-2.019,4.5-4.5,4.5Z" fill="#293a4c"/>
  <path d="M23.085,18.585h-12.085c-.607,0-1.154-.365-1.386-.926-.232-.561-.104-1.206.325-1.635L22.024,3.939c.428-.429,1.074-.559,1.635-.325.561.232.926.779.926,1.386v12.085c0,.829-.671,1.5-1.5,1.5ZM14.621,15.585h6.964v-6.964l-6.964,6.964Z" fill="#293a4c"/>
  <g>
    <path d="M22,24.5h-5.447c-.829,0-1.5-.671-1.5-1.5s.671-1.5,1.5-1.5h5.447c.829,0,1.5.671,1.5,1.5s-.671,1.5-1.5,1.5Z" fill="#293a4c"/>
    <path d="M26.617,30.67h-10.064c-.829,0-1.5-.671-1.5-1.5s.671-1.5,1.5-1.5h10.064c.829,0,1.5.671,1.5,1.5s-.671,1.5-1.5,1.5Z" fill="#293a4c"/>
    <path d="M26.617,36.84h-10.064c-.829,0-1.5-.671-1.5-1.5s.671-1.5,1.5-1.5h10.064c.829,0,1.5.671,1.5,1.5s-.671,1.5-1.5,1.5Z" fill="#293a4c"/>
  </g>
  <g>
    <path d="M47.447,54.968h-30.894c-.829,0-1.5-.671-1.5-1.5s.671-1.5,1.5-1.5h30.894c.828,0,1.5.671,1.5,1.5s-.672,1.5-1.5,1.5Z" fill="#293a4c"/>
    <g>
      <path d="M35.065,54.968h-6.131c-.829,0-1.5-.671-1.5-1.5v-8.429c0-.829.671-1.5,1.5-1.5h6.131c.828,0,1.5.671,1.5,1.5v8.429c0,.829-.672,1.5-1.5,1.5ZM30.435,51.968h3.131v-5.429h-3.131v5.429Z" fill="#293a4c"/>
      <path d="M45.894,54.968h-6.131c-.828,0-1.5-.671-1.5-1.5v-11.468c0-.829.672-1.5,1.5-1.5h6.131c.828,0,1.5.671,1.5,1.5v11.468c0,.829-.672,1.5-1.5,1.5ZM41.263,51.968h3.131v-8.468h-3.131v8.468Z" fill="#293a4c"/>
      <path d="M24.237,54.968h-6.131c-.829,0-1.5-.671-1.5-1.5v-5.457c0-.829.671-1.5,1.5-1.5h6.131c.829,0,1.5.671,1.5,1.5v5.457c0,.829-.671,1.5-1.5,1.5ZM19.606,51.968h3.131v-2.457h-3.131v2.457Z" fill="#293a4c"/>
    </g>
  </g>
  <g>
    <path d="M38.22,9.5v12.17h-7.72v-10.67c0-.83.67-1.5,1.5-1.5h6.22Z" fill="#ff5f00"/>
    <path d="M30.5,24.67h7.72v12.17h-6.22c-.83,0-1.5-.67-1.5-1.5v-10.67Z" fill="#ff5f00"/>
    <path d="M48.95,11v10.67h-7.73v-12.17h6.23c.83,0,1.5.67,1.5,1.5Z" fill="#ff5f00"/>
    <path d="M41.22,24.67h7.73v10.67c0,.83-.67,1.5-1.5,1.5h-6.23v-12.17Z" fill="#ff5f00"/>
  </g>
</svg>