<?xml version="1.0" encoding="UTF-8"?>
<svg id="c" data-name="SOLID" xmlns="http://www.w3.org/2000/svg" width="64" height="64" viewBox="0 0 64 64">
  <g>
    <g>
      <path d="M17.026,30.463c-.384,0-.768-.146-1.061-.439l-1.977-1.976c-.586-.586-.586-1.536,0-2.122s1.535-.586,2.121,0l.916.916,1.955-1.956c.586-.586,1.535-.586,2.121,0,.586.585.586,1.535,0,2.121l-3.016,3.016c-.293.293-.677.439-1.061.439Z" fill="#293a4c"/>
      <g>
        <path d="M30.1,29.012c-2.66,0-4.824-2.165-4.824-4.825s2.164-4.825,4.824-4.825,4.825,2.165,4.825,4.825-2.165,4.825-4.825,4.825ZM30.1,22.362c-1.006,0-1.824.819-1.824,1.825s.818,1.825,1.824,1.825,1.825-.818,1.825-1.825-.818-1.825-1.825-1.825Z" fill="#293a4c"/>
        <path d="M34.563,35.549h-8.929c-.828,0-1.5-.671-1.5-1.5v-3.185c0-2.676,2.178-4.854,4.854-4.854h2.222c2.676,0,4.854,2.178,4.854,4.854v3.176c0,.829-.672,1.508-1.5,1.508ZM27.135,32.549h5.929v-1.685c0-1.022-.831-1.854-1.854-1.854h-2.222c-1.022,0-1.854.832-1.854,1.854v1.685Z" fill="#293a4c"/>
      </g>
      <g>
        <path d="M45.289,26.831h-5.133c-.828,0-1.5-.671-1.5-1.5s.672-1.5,1.5-1.5h5.133c.828,0,1.5.671,1.5,1.5s-.672,1.5-1.5,1.5Z" fill="#293a4c"/>
        <path d="M48.95,31.08h-8.794c-.828,0-1.5-.671-1.5-1.5s.672-1.5,1.5-1.5h8.794c.828,0,1.5.671,1.5,1.5s-.672,1.5-1.5,1.5Z" fill="#293a4c"/>
      </g>
    </g>
    <g>
      <path d="M17.026,49.771c-.384,0-.768-.146-1.061-.439l-1.977-1.976c-.586-.586-.586-1.536,0-2.122s1.535-.586,2.121,0l.916.916,1.955-1.956c.586-.586,1.535-.586,2.121,0,.586.585.586,1.535,0,2.121l-3.016,3.016c-.293.293-.677.439-1.061.439Z" fill="#293a4c"/>
      <g>
        <path d="M30.1,48.32c-2.66,0-4.824-2.165-4.824-4.825s2.164-4.825,4.824-4.825,4.825,2.165,4.825,4.825-2.165,4.825-4.825,4.825ZM30.1,41.67c-1.006,0-1.824.819-1.824,1.825s.818,1.825,1.824,1.825,1.825-.818,1.825-1.825-.818-1.825-1.825-1.825Z" fill="#293a4c"/>
        <path d="M34.563,54.856h-8.929c-.828,0-1.5-.671-1.5-1.5v-3.185c0-2.676,2.178-4.854,4.854-4.854h2.222c2.676,0,4.854,2.178,4.854,4.854v3.176c0,.829-.672,1.508-1.5,1.508ZM27.135,51.856h5.929v-1.685c0-1.022-.831-1.854-1.854-1.854h-2.222c-1.022,0-1.854.832-1.854,1.854v1.685Z" fill="#293a4c"/>
      </g>
      <g>
        <path d="M45.289,46.139h-5.133c-.828,0-1.5-.671-1.5-1.5s.672-1.5,1.5-1.5h5.133c.828,0,1.5.671,1.5,1.5s-.672,1.5-1.5,1.5Z" fill="#293a4c"/>
        <path d="M48.95,50.388h-8.794c-.828,0-1.5-.671-1.5-1.5s.672-1.5,1.5-1.5h8.794c.828,0,1.5.671,1.5,1.5s-.672,1.5-1.5,1.5Z" fill="#293a4c"/>
      </g>
    </g>
  </g>
  <path d="M52.4,60.511H11.6c-1.93,0-3.5-1.57-3.5-3.5V13.031c0-1.93,1.57-3.5,3.5-3.5h7.61c.828,0,1.5.671,1.5,1.5s-.672,1.5-1.5,1.5h-7.61c-.275,0-.5.224-.5.5v43.98c0,.276.225.5.5.5h40.801c.275,0,.5-.224.5-.5V13.031c0-.276-.225-.5-.5-.5h-3.272c-.828,0-1.5-.671-1.5-1.5s.672-1.5,1.5-1.5h3.272c1.93,0,3.5,1.57,3.5,3.5v43.98c0,1.93-1.57,3.5-3.5,3.5Z" fill="#293a4c"/>
  <path d="M42.79,7.19h-4.22c-.25,0-.42-.24-.47-.32-1.33-2.12-3.61-3.38-6.1-3.38s-4.77,1.26-6.1,3.38c-.05.08-.22.32-.47.32h-4.22c-1.93,0-3.5,1.57-3.5,3.5v2.58c0,1.92,1.57,3.5,3.5,3.5h21.58c1.93,0,3.5-1.58,3.5-3.5v-2.58c0-1.93-1.57-3.5-3.5-3.5ZM32,11.16c-.83,0-1.5-.65-1.5-1.48v-.03c0-.83.67-1.5,1.5-1.5s1.5.67,1.5,1.5-.67,1.51-1.5,1.51Z" fill="#293a4c"/>
</svg>