<?xml version="1.0" encoding="UTF-8"?>
<svg id="c" data-name="SOLID" xmlns="http://www.w3.org/2000/svg" width="64" height="64" viewBox="0 0 64 64">
  <g>
    <path d="M17.236,41.691c-.327,0-.648-.106-.913-.311-.37-.283-.587-.724-.587-1.189v-19.28c0-.564.317-1.082.82-1.337,5.65-2.87,11.076-2.902,16.125-.089h0c.02.011.037.021.055.031.691.39.963,1.259.604,1.977-.37.741-1.27,1.041-2.013.671-.029-.015-.071-.038-.105-.058-3.94-2.195-8.033-2.279-12.485-.253v16.446c4.481-.904,8.998-.773,13.461.392.734.095,1.301.713,1.301,1.474,0,.52-.27,1.016-.711,1.289-.338.209-.74.28-1.118.199h0c-.04-.009-.082-.02-.123-.031-4.618-1.226-9.302-1.217-13.922.019-.128.034-.258.051-.388.051Z" fill="#293a4c"/>
    <path d="M31.999,41.691c-.662,0-1.268-.441-1.447-1.11-.216-.801.259-1.623,1.059-1.838,4.527-1.218,9.109-1.367,13.65-.445v-16.445c-4.466-2.031-8.569-1.94-12.527.278-.72.404-1.636.149-2.042-.575-.405-.722-.147-1.637.575-2.042,5.064-2.841,10.508-2.82,16.174.061.503.256.82.772.82,1.337v19.28c0,.467-.217.906-.587,1.19-.371.284-.851.381-1.303.258-4.638-1.246-9.342-1.246-13.981,0-.131.035-.262.052-.391.052Z" fill="#293a4c"/>
    <path d="M32,41.678c-.828,0-1.5-.672-1.5-1.5v-19.355c0-.828.672-1.5,1.5-1.5s1.5.672,1.5,1.5v19.355c0,.828-.672,1.5-1.5,1.5Z" fill="#293a4c"/>
    <g>
      <path d="M27.199,25.971h-5.165c-.828,0-1.5-.672-1.5-1.5s.672-1.5,1.5-1.5h5.165c.828,0,1.5.672,1.5,1.5s-.672,1.5-1.5,1.5Z" fill="#293a4c"/>
      <path d="M27.199,31.007h-5.165c-.828,0-1.5-.672-1.5-1.5s.672-1.5,1.5-1.5h5.165c.828,0,1.5.672,1.5,1.5s-.672,1.5-1.5,1.5Z" fill="#293a4c"/>
      <path d="M27.199,36.043h-5.165c-.828,0-1.5-.672-1.5-1.5s.672-1.5,1.5-1.5h5.165c.828,0,1.5.672,1.5,1.5s-.672,1.5-1.5,1.5Z" fill="#293a4c"/>
    </g>
    <g>
      <path d="M41.963,25.971h-5.165c-.828,0-1.5-.672-1.5-1.5s.672-1.5,1.5-1.5h5.165c.828,0,1.5.672,1.5,1.5s-.672,1.5-1.5,1.5Z" fill="#293a4c"/>
      <path d="M41.963,31.007h-5.165c-.828,0-1.5-.672-1.5-1.5s.672-1.5,1.5-1.5h5.165c.828,0,1.5.672,1.5,1.5s-.672,1.5-1.5,1.5Z" fill="#293a4c"/>
      <path d="M41.963,36.043h-5.165c-.828,0-1.5-.672-1.5-1.5s.672-1.5,1.5-1.5h5.165c.828,0,1.5.672,1.5,1.5s-.672,1.5-1.5,1.5Z" fill="#293a4c"/>
    </g>
  </g>
  <path d="M11,49.48c-.828,0-1.5-.672-1.5-1.5V8c0-2.481,2.019-4.5,4.5-4.5h36c2.481,0,4.5,2.019,4.5,4.5v33.639c0,.828-.672,1.5-1.5,1.5s-1.5-.672-1.5-1.5V8c0-.827-.673-1.5-1.5-1.5H14c-.827,0-1.5.673-1.5,1.5v39.98c0,.828-.672,1.5-1.5,1.5Z" fill="#293a4c"/>
  <path d="M41.447,12.5h-18.895c-.559,0-1.07-.311-1.329-.805l-3.127-5.979c-.384-.734-.101-1.641.634-2.024.733-.385,1.641-.1,2.024.634l2.706,5.174h17.078l2.706-5.174c.384-.733,1.293-1.018,2.024-.634.734.384,1.018,1.29.634,2.024l-3.127,5.979c-.259.494-.771.805-1.329.805Z" fill="#293a4c"/>
  <path d="M53,46.48H11c-.83,0-1.5.67-1.5,1.5v8.02c0,2.48,2.02,4.5,4.5,4.5h36c2.48,0,4.5-2.02,4.5-4.5v-8.02c0-.83-.67-1.5-1.5-1.5ZM35,54.99h-6c-.83,0-1.5-.67-1.5-1.5s.67-1.5,1.5-1.5h6c.83,0,1.5.67,1.5,1.5s-.67,1.5-1.5,1.5Z" fill="#293a4c"/>
</svg>