<?xml version="1.0" encoding="UTF-8"?>
<svg id="c" data-name="SOLID" xmlns="http://www.w3.org/2000/svg" width="64" height="64" viewBox="0 0 64 64">
  <g>
    <g>
      <path d="M56,52.18c-.829,0-1.5-.671-1.5-1.5V17.664c0-.276-.224-.5-.5-.5h-4.49c-.829,0-1.5-.671-1.5-1.5s.671-1.5,1.5-1.5h4.49c1.93,0,3.5,1.57,3.5,3.5v33.016c0,.829-.671,1.5-1.5,1.5Z" fill="#293a4c"/>
      <path d="M8,52.18c-.829,0-1.5-.671-1.5-1.5V17.664c0-1.93,1.57-3.5,3.5-3.5h4.49c.829,0,1.5.671,1.5,1.5s-.671,1.5-1.5,1.5h-4.49c-.276,0-.5.224-.5.5v33.016c0,.829-.671,1.5-1.5,1.5Z" fill="#293a4c"/>
      <path d="M56.02,60.5H7.98c-2.481,0-4.5-2.019-4.5-4.5v-5.32c0-.829.671-1.5,1.5-1.5h17.33c.679,0,1.272.456,1.449,1.111l.381,1.419h15.76l.381-1.419c.176-.655.771-1.11,1.449-1.11h17.29c.829,0,1.5.671,1.5,1.5v5.32c0,2.481-2.019,4.5-4.5,4.5ZM6.48,52.181v3.82c0,.827.673,1.5,1.5,1.5h48.04c.827,0,1.5-.673,1.5-1.5v-3.82h-14.64l-.381,1.419c-.176.655-.771,1.11-1.449,1.11h-18.06c-.679,0-1.272-.456-1.449-1.111l-.381-1.419H6.48Z" fill="#293a4c"/>
    </g>
    <path d="M56,46.866H8c-.829,0-1.5-.671-1.5-1.5s.671-1.5,1.5-1.5h48c.829,0,1.5.671,1.5,1.5s-.671,1.5-1.5,1.5Z" fill="#293a4c"/>
  </g>
  <path d="M49.511,45.826c-.829,0-1.5-.671-1.5-1.5V6.656c-.154-.085-.334-.156-.5-.156h-31.021c-.166,0-.346.071-.5.156v37.67c0,.829-.671,1.5-1.5,1.5s-1.5-.671-1.5-1.5V5.96c0-1.358,2.118-2.46,3.5-2.46h31.021c1.382,0,3.5,1.102,3.5,2.46v38.366c0,.829-.671,1.5-1.5,1.5Z" fill="#293a4c"/>
  <path d="M19.489,14.968c-.829,0-1.5-.671-1.5-1.5v-3.468c0-.829.671-1.5,1.5-1.5h3.468c.829,0,1.5.671,1.5,1.5s-.671,1.5-1.5,1.5h-1.968v1.968c0,.829-.671,1.5-1.5,1.5Z" fill="#293a4c"/>
  <path d="M44.511,14.968c-.829,0-1.5-.671-1.5-1.5v-1.968h-1.968c-.829,0-1.5-.671-1.5-1.5s.671-1.5,1.5-1.5h3.468c.829,0,1.5.671,1.5,1.5v3.468c0,.829-.671,1.5-1.5,1.5Z" fill="#293a4c"/>
  <g>
    <g>
      <path d="M27.994,37.291c-.522,0-1.008-.272-1.281-.72l-1.836-3.013-3.799-.042c-.526-.006-1.011-.287-1.277-.741s-.275-1.014-.023-1.477l3.522-6.465c.247-.49.754-.827,1.339-.827.829,0,1.5.667,1.5,1.496v.008c0,.25-.063.498-.183.718l-2.351,4.315,2.137.024c.518.006.995.278,1.264.72l.916,1.502,2.487-4.564c.263-.482.768-.782,1.317-.782.829,0,1.504.671,1.504,1.5,0,.305-.09.588-.246.825l-3.674,6.74c-.256.471-.745.769-1.281.782-.012,0-.024,0-.036,0Z" fill="#293a4c"/>
      <path d="M36.006,37.291c-.012,0-.024,0-.036,0-.536-.013-1.024-.311-1.281-.782l-3.688-6.767c-.146-.231-.231-.505-.231-.799,0-.829.667-1.5,1.496-1.5h.009c.549,0,1.054.3,1.317.782l2.487,4.564.916-1.502c.269-.442.747-.714,1.264-.72l2.139-.024-.089-.164c-.396-.728-.126-1.639.601-2.035.727-.395,1.638-.126,2.035.601l1.28,2.353c.251.462.242,1.022-.024,1.476-.266.454-.75.735-1.277.741l-3.799.042-1.836,3.013c-.272.448-.758.72-1.281.72Z" fill="#293a4c"/>
    </g>
    <g>
      <circle cx="32" cy="21.06" r="1.68" fill="#293a4c"/>
      <path d="M40.24,16.95c-.24-.16-.38-.42-.41-.7-.19-2.17-2.12-3.78-4.28-3.59-.28.03-.56-.08-.76-.27-1.54-1.54-4.04-1.54-5.58,0-.2.2-.48.3-.76.27-2.17-.19-4.09,1.42-4.28,3.59-.03.28-.17.54-.4.7-1.79,1.25-2.22,3.72-.98,5.5.17.24.22.53.14.8-.2.74-.17,1.49.05,2.17.31,1.05,1.06,1.94,2.09,2.43.21.09.43.18.66.24.27.07.5.26.62.51.53,1.14,1.54,1.91,2.67,2.17.83.21,1.74.14,2.58-.25.25-.12.55-.12.8,0,.05.02.09.04.14.06.5.21,1.02.31,1.53.31,1.48,0,2.91-.85,3.58-2.28.12-.26.35-.45.62-.52,2.11-.57,3.36-2.74,2.8-4.84-.08-.27-.03-.56.14-.8,1.24-1.78.81-4.25-.97-5.5ZM32,25.74c-2.58,0-4.68-2.1-4.68-4.68s2.1-4.68,4.68-4.68,4.68,2.1,4.68,4.68-2.1,4.68-4.68,4.68Z" fill="#293a4c"/>
    </g>
  </g>
  <path d="M38.276,42.458h-13.083c-.829,0-1.5-.671-1.5-1.5s.671-1.5,1.5-1.5h13.083c.829,0,1.5.671,1.5,1.5s-.671,1.5-1.5,1.5Z" fill="#293a4c"/>
</svg>