<?xml version="1.0" encoding="UTF-8"?>
<svg id="c" data-name="SOLID" xmlns="http://www.w3.org/2000/svg" width="64" height="64" viewBox="0 0 64 64">
  <g>
    <g>
      <path d="M56,46.849c-.829,0-1.5-.672-1.5-1.5V12.332c0-.275-.224-.5-.5-.5H10c-.276,0-.5.225-.5.5v33.017c0,.828-.671,1.5-1.5,1.5s-1.5-.672-1.5-1.5V12.332c0-1.93,1.57-3.5,3.5-3.5h44c1.93,0,3.5,1.57,3.5,3.5v33.017c0,.828-.671,1.5-1.5,1.5Z" fill="#293a4c"/>
      <path d="M56.02,55.167H7.98c-2.481,0-4.5-2.019-4.5-4.5v-5.32c0-.828.671-1.5,1.5-1.5h17.33c.679,0,1.272.455,1.449,1.111l.381,1.419h15.76l.381-1.42c.176-.655.771-1.11,1.449-1.11h17.29c.829,0,1.5.672,1.5,1.5v5.32c0,2.481-2.019,4.5-4.5,4.5ZM6.48,46.847v3.82c0,.827.673,1.5,1.5,1.5h48.04c.827,0,1.5-.673,1.5-1.5v-3.82h-14.64l-.381,1.42c-.176.655-.771,1.11-1.449,1.11h-18.06c-.679,0-1.272-.455-1.449-1.111l-.381-1.419H6.48Z" fill="#293a4c"/>
    </g>
    <path d="M56,41.535H8c-.829,0-1.5-.672-1.5-1.5s.671-1.5,1.5-1.5h48c.829,0,1.5.672,1.5,1.5s-.671,1.5-1.5,1.5Z" fill="#293a4c"/>
  </g>
  <g>
    <path d="M36.46,26.37v2.38c-2.92,1-5.85,1-8.92-.02v-2.36l4.03,1.19c.14.04.29.06.43.06s.29-.02.43-.06l4.03-1.19Z" fill="#293a4c"/>
    <polygon points="37.3 22.99 32 24.56 26.7 22.99 32 20.98 37.3 22.99" fill="#293a4c"/>
    <path d="M44.87,13.78h-25.74c-1.93,0-3.5,1.57-3.5,3.5v15.81c0,1.93,1.57,3.5,3.5,3.5h25.74c1.93,0,3.5-1.57,3.5-3.5v-15.81c0-1.93-1.57-3.5-3.5-3.5ZM42.43,24.6l-2.97.88v3.78c0,1.08-.79,2.01-1.94,2.3-1.78.62-3.6.93-5.44.93s-3.7-.31-5.56-.93c-1.16-.27-1.98-1.22-1.98-2.31v-3.77l-1.04-.31v.79c0,.83-.67,1.5-1.5,1.5s-1.5-.67-1.5-1.5v-2.8c0-.12.01-.24.05-.36.01-.08.04-.15.07-.22.04-.09.08-.18.14-.26v-.01c.06-.08.11-.15.18-.21.06-.06.13-.12.2-.17.1-.07.21-.13.33-.17l10-3.79c.34-.13.72-.13,1.06,0l10,3.79c.6.22.99.81.97,1.45-.02.65-.46,1.21-1.07,1.39Z" fill="#293a4c"/>
  </g>
</svg>