<?xml version="1.0" encoding="UTF-8"?>
<svg id="c" data-name="SOLID" xmlns="http://www.w3.org/2000/svg" width="64" height="64" viewBox="0 0 64 64">
  <path d="M59,57.5H5c-.828,0-1.5-.671-1.5-1.5V8c0-.829.672-1.5,1.5-1.5h54c.828,0,1.5.671,1.5,1.5v48c0,.829-.672,1.5-1.5,1.5ZM6.5,54.5h51V9.5H6.5v45Z" fill="#293a4c"/>
  <path d="M29.11,22.03c0-1.6,1.3-2.89,2.89-2.89s2.89,1.29,2.89,2.89c0,1.49-1.14,2.73-2.59,2.88-.1.01-.2.01-.3.01s-.2,0-.3-.01c-1.45-.15-2.59-1.39-2.59-2.88Z" fill="#293a4c"/>
  <path d="M36.39,30.84v2.71h-8.78v-2.71c0-1.61,1.31-2.93,2.92-2.93h2.94c1.61,0,2.92,1.32,2.92,2.93Z" fill="#293a4c"/>
  <path d="M54,11.5H10c-.83,0-1.5.67-1.5,1.5v26.68c0,.83.67,1.5,1.5,1.5h44c.83,0,1.5-.67,1.5-1.5V13c0-.83-.67-1.5-1.5-1.5ZM39.39,35.03c0,.83-.67,1.52-1.5,1.52h-11.78c-.83,0-1.5-.68-1.5-1.5v-4.21c0-2.15,1.14-4.03,2.86-5.06-.85-1.02-1.36-2.33-1.36-3.75,0-3.25,2.64-5.89,5.89-5.89s5.89,2.64,5.89,5.89c0,1.42-.51,2.73-1.36,3.75,1.72,1.03,2.86,2.91,2.86,5.06v4.19Z" fill="#293a4c"/>
  <g>
    <path d="M31.8,27.91c.07.01.13.01.2.01s.13,0,.2-.01h-.4Z" fill="#293a4c"/>
    <path d="M31.7,24.91c.1.01.2.01.3.01s.2,0,.3-.01h-.6Z" fill="#293a4c"/>
  </g>
  <path d="M10,52.906c-.258,0-.516-.066-.747-.199-.466-.268-.753-.764-.753-1.301v-7.193c0-.537.287-1.033.753-1.301.467-.267,1.039-.265,1.504.005l6.159,3.597c.46.269.743.762.743,1.295s-.283,1.026-.743,1.295l-6.159,3.597c-.234.136-.495.205-.757.205ZM11.5,46.826v1.968l1.685-.984-1.685-.984Z" fill="#293a4c"/>
  <g>
    <path d="M21.553,52.417c-.828,0-1.5-.671-1.5-1.5v-6.214c0-.829.672-1.5,1.5-1.5s1.5.671,1.5,1.5v6.214c0,.829-.672,1.5-1.5,1.5Z" fill="#293a4c"/>
    <path d="M25.553,52.417c-.828,0-1.5-.671-1.5-1.5v-6.214c0-.829.672-1.5,1.5-1.5s1.5.671,1.5,1.5v6.214c0,.829-.672,1.5-1.5,1.5Z" fill="#293a4c"/>
  </g>
  <path d="M54,49.31h-15.09c-.828,0-1.5-.671-1.5-1.5s.672-1.5,1.5-1.5h15.09c.828,0,1.5.671,1.5,1.5s-.672,1.5-1.5,1.5Z" fill="#293a4c"/>
  <path d="M34.63,49.31h-3.82c-.828,0-1.5-.671-1.5-1.5s.672-1.5,1.5-1.5h3.82c.828,0,1.5.671,1.5,1.5s-.672,1.5-1.5,1.5Z" fill="#293a4c"/>
  <path d="M36.774,52.906c-2.008,0-3.642-1.633-3.642-3.641v-2.912c0-2.007,1.634-3.641,3.642-3.641s3.641,1.633,3.641,3.641v2.912c0,2.008-1.633,3.641-3.641,3.641ZM36.774,45.713c-.354,0-.642.288-.642.641v2.912c0,.354.288.641.642.641s.641-.288.641-.641v-2.912c0-.353-.287-.641-.641-.641Z" fill="#293a4c"/>
</svg>