<?xml version="1.0" encoding="UTF-8"?>
<svg id="c" data-name="SOLID" xmlns="http://www.w3.org/2000/svg" width="64" height="64" viewBox="0 0 64 64">
  <path d="M30.96,54.5H8c-2.481,0-4.5-2.019-4.5-4.5v-26.78c0-.829.671-1.5,1.5-1.5s1.5.671,1.5,1.5v26.78c0,.827.673,1.5,1.5,1.5h22.96c.829,0,1.5.671,1.5,1.5s-.671,1.5-1.5,1.5Z" fill="#293a4c"/>
  <path d="M56,54.5h-3.336c-.829,0-1.5-.671-1.5-1.5s.671-1.5,1.5-1.5h3.336c.827,0,1.5-.673,1.5-1.5V16.77c0-.829.671-1.5,1.5-1.5s1.5.671,1.5,1.5v33.23c0,2.481-2.019,4.5-4.5,4.5Z" fill="#293a4c"/>
  <path d="M56,3.5H8c-2.48,0-4.5,2.02-4.5,4.5v8.77c0,.83.67,1.5,1.5,1.5h54c.83,0,1.5-.67,1.5-1.5v-8.77c0-2.48-2.02-4.5-4.5-4.5ZM12.61,11.18c-.02.09-.05.19-.09.28-.03.09-.08.17-.13.26-.06.08-.12.15-.19.22s-.15.14-.23.19c-.08.05-.17.1-.26.14-.09.04-.18.06-.28.08-.1.02-.19.03-.29.03-.4,0-.78-.16-1.06-.44s-.44-.66-.44-1.06c0-.39.16-.78.44-1.06.56-.56,1.56-.56,2.12,0,.07.07.13.15.19.23.05.08.1.17.13.26.04.09.07.18.09.28.02.1.03.19.03.29s-.01.2-.03.3ZM17.56,11.94c-.28.28-.66.44-1.06.44-.1,0-.2-.01-.29-.03-.1-.02-.19-.04-.28-.08-.09-.04-.18-.09-.26-.14-.08-.05-.16-.12-.23-.19s-.13-.14-.19-.22c-.05-.09-.1-.17-.13-.26-.04-.09-.07-.19-.09-.28-.02-.1-.03-.2-.03-.3s.01-.19.03-.29c.02-.1.05-.19.09-.28.03-.09.08-.18.13-.26.06-.08.12-.16.19-.23.56-.56,1.56-.56,2.12,0,.28.28.44.67.44,1.06,0,.4-.16.78-.44,1.06ZM22.92,11.94c-.07.07-.14.14-.23.19-.08.05-.16.1-.25.14-.09.04-.19.06-.28.08-.1.02-.2.03-.3.03s-.19-.01-.29-.03c-.1-.02-.19-.04-.28-.08-.09-.04-.18-.09-.26-.14-.08-.05-.16-.12-.23-.19s-.13-.14-.18-.22c-.06-.09-.11-.17-.14-.26-.04-.09-.07-.19-.09-.28-.02-.1-.03-.2-.03-.3s.01-.19.03-.29c.02-.1.05-.19.09-.28.03-.09.08-.18.14-.26.05-.08.11-.16.18-.23.56-.56,1.56-.56,2.12,0,.28.28.44.67.44,1.06,0,.4-.16.78-.44,1.06ZM52.86,12.38h-21c-.83,0-1.5-.67-1.5-1.5s.67-1.5,1.5-1.5h21c.83,0,1.5.67,1.5,1.5s-.67,1.5-1.5,1.5Z" fill="#293a4c"/>
  <g>
    <g>
      <path d="M43.725,60.5c-.254,0-.508-.064-.737-.193-.471-.266-.763-.765-.763-1.307v-.843h-11.262c-.829,0-1.5-.671-1.5-1.5v-15.289c0-.829.671-1.5,1.5-1.5h21.702c.829,0,1.5.671,1.5,1.5v15.289c0,.829-.671,1.5-1.5,1.5h-4.65l-3.514,2.126c-.238.145-.507.217-.776.217ZM32.463,55.157h11.262c.726,0,1.331.515,1.47,1.2l1.625-.983c.234-.142.502-.217.776-.217h3.568v-12.289h-18.702v12.289Z" fill="#293a4c"/>
      <g>
        <g>
          <path d="M44.934,51.185c-2.101,0-3.81-1.709-3.81-3.81s1.709-3.81,3.81-3.81,3.81,1.709,3.81,3.81-1.709,3.81-3.81,3.81ZM44.934,46.565c-.446,0-.81.363-.81.81s.363.81.81.81.81-.363.81-.81-.363-.81-.81-.81Z" fill="#293a4c"/>
          <path d="M48.035,54.665c-.829,0-1.5-.668-1.5-1.497v-1.155c0-.458-.372-.83-.83-.83h-1.543c-.458,0-.83.372-.83.83v1.149c0,.829-.671,1.503-1.5,1.503s-1.5-.668-1.5-1.497v-1.155c0-2.112,1.718-3.83,3.83-3.83h1.543c2.112,0,3.83,1.718,3.83,3.83v1.149c0,.829-.671,1.503-1.5,1.503Z" fill="#293a4c"/>
        </g>
        <g>
          <path d="M37.712,48.324h-2.163c-.829,0-1.5-.671-1.5-1.5s.671-1.5,1.5-1.5h2.163c.829,0,1.5.671,1.5,1.5s-.671,1.5-1.5,1.5Z" fill="#293a4c"/>
          <path d="M37.712,52.91h-2.163c-.829,0-1.5-.671-1.5-1.5s.671-1.5,1.5-1.5h2.163c.829,0,1.5.671,1.5,1.5s-.671,1.5-1.5,1.5Z" fill="#293a4c"/>
        </g>
      </g>
    </g>
    <g>
      <path d="M20.275,40.266c-.269,0-.538-.072-.776-.217l-3.514-2.126h-4.65c-.829,0-1.5-.671-1.5-1.5v-15.289c0-.829.671-1.5,1.5-1.5h21.702c.829,0,1.5.671,1.5,1.5v15.289c0,.829-.671,1.5-1.5,1.5h-11.262v.843c0,.542-.292,1.041-.763,1.307-.229.129-.483.193-.737.193ZM12.835,34.923h3.568c.274,0,.542.075.776.217l1.625.983c.139-.685.745-1.2,1.47-1.2h11.262v-12.289H12.835v12.289Z" fill="#293a4c"/>
      <g>
        <g>
          <path d="M19.066,30.951c-2.101,0-3.81-1.709-3.81-3.81s1.709-3.81,3.81-3.81,3.81,1.709,3.81,3.81-1.709,3.81-3.81,3.81ZM19.066,26.332c-.446,0-.81.363-.81.81s.363.81.81.81.81-.363.81-.81-.363-.81-.81-.81Z" fill="#293a4c"/>
          <path d="M22.167,34.432c-.829,0-1.5-.668-1.5-1.497v-1.156c0-.458-.372-.83-.83-.83h-1.543c-.458,0-.83.372-.83.83v1.15c0,.829-.671,1.503-1.5,1.503s-1.5-.668-1.5-1.497v-1.156c0-2.112,1.718-3.83,3.83-3.83h1.543c2.112,0,3.83,1.718,3.83,3.83v1.15c0,.829-.671,1.503-1.5,1.503Z" fill="#293a4c"/>
        </g>
        <g>
          <path d="M28.451,28.09h-2.163c-.829,0-1.5-.671-1.5-1.5s.671-1.5,1.5-1.5h2.163c.829,0,1.5.671,1.5,1.5s-.671,1.5-1.5,1.5Z" fill="#293a4c"/>
          <path d="M28.451,32.676h-2.163c-.829,0-1.5-.671-1.5-1.5s.671-1.5,1.5-1.5h2.163c.829,0,1.5.671,1.5,1.5s-.671,1.5-1.5,1.5Z" fill="#293a4c"/>
        </g>
      </g>
    </g>
  </g>
</svg>